G75*
G70*
%OFA0B0*%
%FSLAX24Y24*%
%IPPOS*%
%LPD*%
%AMOC8*
5,1,8,0,0,1.08239X$1,22.5*
%
%ADD10C,0.0100*%
%ADD11R,0.0512X0.0591*%
%ADD12C,0.1378*%
%ADD13OC8,0.0560*%
%ADD14OC8,0.0600*%
%ADD15C,0.2000*%
%ADD16R,0.0630X0.0512*%
%ADD17R,0.0394X0.0433*%
%ADD18R,0.0433X0.0394*%
%ADD19C,0.1306*%
%ADD20C,0.0543*%
%ADD21OC8,0.1900*%
%ADD22C,0.0600*%
%ADD23C,0.0380*%
%ADD24C,0.0540*%
%ADD25C,0.1000*%
%ADD26C,0.0886*%
%ADD27C,0.0780*%
%ADD28R,0.0748X0.0748*%
%ADD29R,0.1575X0.0315*%
%ADD30R,0.0800X0.0800*%
%ADD31C,0.3150*%
%ADD32C,0.0600*%
%ADD33C,0.0315*%
%ADD34C,0.0240*%
%ADD35R,0.0376X0.0376*%
%ADD36C,0.0236*%
%ADD37C,0.0079*%
%ADD38C,0.0320*%
%ADD39C,0.0500*%
%ADD40C,0.0276*%
%ADD41C,0.0160*%
%ADD42R,0.0416X0.0416*%
%ADD43C,0.0098*%
%ADD44R,0.0337X0.0337*%
D10*
X002151Y003191D02*
X002151Y011763D01*
X003598Y011763D01*
X003717Y011645D01*
X003930Y011556D01*
X004162Y011556D01*
X004169Y011559D01*
X004169Y011321D01*
X004669Y011321D01*
X004669Y011221D01*
X004769Y011221D01*
X004769Y010721D01*
X005139Y010721D01*
X005177Y010732D01*
X005211Y010751D01*
X005239Y010779D01*
X005259Y010813D01*
X005269Y010852D01*
X005269Y011221D01*
X004769Y011221D01*
X004769Y010721D01*
X005139Y010721D01*
X005177Y010732D01*
X005211Y010751D01*
X005239Y010779D01*
X005259Y010813D01*
X005269Y010852D01*
X005269Y011221D01*
X004769Y011221D01*
X004669Y011221D01*
X004669Y010721D01*
X004299Y010721D01*
X004261Y010732D01*
X004227Y010751D01*
X004199Y010779D01*
X004179Y010813D01*
X004169Y010852D01*
X004169Y011221D01*
X004669Y011221D01*
X004669Y010721D01*
X004299Y010721D01*
X004261Y010732D01*
X004227Y010751D01*
X004199Y010779D01*
X004179Y010813D01*
X004169Y010852D01*
X004169Y011221D01*
X004669Y011221D01*
X004669Y011321D01*
X004169Y011321D01*
X004169Y011559D01*
X004162Y011556D01*
X003930Y011556D01*
X003717Y011645D01*
X003553Y011808D01*
X003464Y012022D01*
X003464Y012253D01*
X003553Y012467D01*
X003717Y012630D01*
X003930Y012719D01*
X004162Y012719D01*
X004375Y012630D01*
X004539Y012467D01*
X004627Y012253D01*
X004627Y012022D01*
X004544Y011821D01*
X004669Y011821D01*
X004669Y011321D01*
X004769Y011321D01*
X005269Y011321D01*
X005269Y011691D01*
X005259Y011729D01*
X005239Y011763D01*
X005239Y011763D01*
X005211Y011791D01*
X005177Y011811D01*
X005139Y011821D01*
X004769Y011821D01*
X004769Y011321D01*
X004769Y011221D01*
X004769Y011321D01*
X005269Y011321D01*
X005269Y011691D01*
X005259Y011729D01*
X005239Y011763D01*
X012500Y011763D01*
X012500Y011529D01*
X012543Y011424D01*
X012624Y011344D01*
X012729Y011300D01*
X014203Y011300D01*
X014131Y011228D01*
X014125Y011214D01*
X009880Y011214D01*
X009874Y011228D01*
X009794Y011308D01*
X009689Y011352D01*
X009199Y011352D01*
X009093Y011308D01*
X009013Y011228D01*
X008969Y011123D01*
X008969Y010633D01*
X009013Y010527D01*
X009093Y010447D01*
X009199Y010403D01*
X009689Y010403D01*
X009794Y010447D01*
X009874Y010527D01*
X009880Y010541D01*
X012906Y010541D01*
X012906Y010140D01*
X012950Y010035D01*
X013030Y009955D01*
X013136Y009911D01*
X013626Y009911D01*
X013731Y009955D01*
X013811Y010035D01*
X013817Y010049D01*
X014420Y010049D01*
X014426Y010035D01*
X014507Y009955D01*
X014612Y009911D01*
X015050Y009911D01*
X015050Y009879D01*
X015054Y009875D01*
X015054Y008368D01*
X015050Y008365D01*
X015050Y007879D01*
X015054Y007875D01*
X015054Y007368D01*
X015050Y007365D01*
X015050Y006879D01*
X015054Y006875D01*
X015054Y006368D01*
X015050Y006365D01*
X015050Y005879D01*
X015054Y005875D01*
X015054Y005464D01*
X015097Y005464D01*
X014878Y005426D01*
X014878Y005426D01*
X014607Y005269D01*
X012621Y005269D01*
X012630Y005235D02*
X012602Y005341D01*
X012560Y005442D01*
X012505Y005538D01*
X012438Y005625D01*
X012360Y005703D01*
X012273Y005770D01*
X012178Y005825D01*
X012076Y005867D01*
X011970Y005895D01*
X011861Y005910D01*
X011856Y005910D01*
X011856Y005121D01*
X011756Y005121D01*
X011756Y005910D01*
X011751Y005910D01*
X011642Y005895D01*
X011536Y005867D01*
X011434Y005825D01*
X011339Y005770D01*
X011251Y005703D01*
X011174Y005625D01*
X011107Y005538D01*
X011052Y005442D01*
X011010Y005341D01*
X010981Y005235D01*
X010967Y005126D01*
X010967Y005121D01*
X011756Y005121D01*
X011756Y005021D01*
X010967Y005021D01*
X010967Y005016D01*
X010981Y004907D01*
X011010Y004800D01*
X011052Y004699D01*
X011107Y004603D01*
X011174Y004516D01*
X011251Y004438D01*
X011339Y004371D01*
X011434Y004316D01*
X011536Y004274D01*
X011642Y004246D01*
X011751Y004232D01*
X011756Y004232D01*
X011756Y005021D01*
X011856Y005021D01*
X011856Y005121D01*
X012645Y005121D01*
X012645Y005126D01*
X012630Y005235D01*
X012639Y005171D02*
X014524Y005171D01*
X014607Y005269D02*
X014406Y005030D01*
X014406Y005030D01*
X014299Y004736D01*
X014299Y004638D01*
X014299Y004637D01*
X014299Y004415D01*
X014227Y004343D01*
X014079Y003985D01*
X014079Y003597D01*
X014227Y003239D01*
X014274Y003191D01*
X002151Y003191D01*
X002151Y003201D02*
X014265Y003201D01*
X014202Y003299D02*
X002151Y003299D01*
X002151Y003398D02*
X014161Y003398D01*
X014120Y003496D02*
X002151Y003496D01*
X002151Y003595D02*
X014080Y003595D01*
X014079Y003693D02*
X002151Y003693D01*
X002151Y003792D02*
X014079Y003792D01*
X014079Y003890D02*
X002151Y003890D01*
X002151Y003989D02*
X008807Y003989D01*
X008776Y004002D02*
X008878Y003959D01*
X008984Y003931D01*
X009093Y003917D01*
X009098Y003917D01*
X009098Y004706D01*
X008309Y004706D01*
X008309Y004701D01*
X008324Y004592D01*
X008352Y004485D01*
X008394Y004384D01*
X008449Y004288D01*
X008516Y004201D01*
X008594Y004123D01*
X008681Y004057D01*
X008776Y004002D01*
X008641Y004087D02*
X002151Y004087D01*
X002151Y004186D02*
X008532Y004186D01*
X008452Y004284D02*
X006765Y004284D01*
X006741Y004274D02*
X006843Y004316D01*
X006938Y004371D01*
X007025Y004438D01*
X007103Y004516D01*
X007170Y004603D01*
X007225Y004699D01*
X007267Y004800D01*
X007296Y004907D01*
X007310Y005016D01*
X007310Y005021D01*
X006521Y005021D01*
X006521Y005121D01*
X006421Y005121D01*
X006421Y005821D01*
X007070Y006469D01*
X007070Y007493D01*
X006687Y007875D01*
X006711Y007873D01*
X006736Y007873D01*
X006736Y009548D01*
X006836Y009548D01*
X006836Y007873D01*
X006861Y007873D01*
X007011Y007886D01*
X007160Y007913D01*
X007305Y007952D01*
X007447Y008003D01*
X007583Y008067D01*
X007714Y008142D01*
X007837Y008228D01*
X007952Y008325D01*
X008059Y008432D01*
X008156Y008547D01*
X008242Y008670D01*
X008317Y008801D01*
X008381Y008937D01*
X008433Y009079D01*
X008472Y009224D01*
X008498Y009373D01*
X008511Y009523D01*
X008511Y009548D01*
X006836Y009548D01*
X006836Y009648D01*
X008511Y009648D01*
X008511Y009673D01*
X008498Y009823D01*
X008472Y009972D01*
X008433Y010117D01*
X008381Y010259D01*
X008317Y010395D01*
X008242Y010526D01*
X008156Y010649D01*
X008059Y010764D01*
X007952Y010871D01*
X007837Y010968D01*
X007714Y011054D01*
X007583Y011129D01*
X007447Y011193D01*
X007305Y011245D01*
X007160Y011284D01*
X007011Y011310D01*
X006861Y011323D01*
X006836Y011323D01*
X006836Y009648D01*
X006736Y009648D01*
X006736Y009548D01*
X005061Y009548D01*
X005061Y009523D01*
X005074Y009373D01*
X005101Y009224D01*
X005140Y009079D01*
X005191Y008937D01*
X005255Y008801D01*
X005330Y008670D01*
X005416Y008547D01*
X005513Y008432D01*
X005620Y008325D01*
X005735Y008228D01*
X005751Y008217D01*
X005321Y008217D01*
X005100Y007996D01*
X005100Y008673D01*
X004375Y009397D01*
X003351Y009397D01*
X002627Y008673D01*
X002627Y007649D01*
X003351Y006925D01*
X004375Y006925D01*
X004597Y007147D01*
X004597Y006623D01*
X004319Y006901D01*
X003913Y006901D01*
X003913Y005851D01*
X003813Y005851D01*
X003813Y005751D01*
X002763Y005751D01*
X002763Y005345D01*
X003408Y004701D01*
X003813Y004701D01*
X003813Y005751D01*
X003913Y005751D01*
X003913Y004701D01*
X004319Y004701D01*
X004963Y005345D01*
X004963Y005751D01*
X003913Y005751D01*
X003913Y005851D01*
X004963Y005851D01*
X004963Y006103D01*
X005321Y005745D01*
X005972Y005745D01*
X005917Y005703D01*
X005839Y005625D01*
X005772Y005538D01*
X005717Y005442D01*
X005675Y005341D01*
X005647Y005235D01*
X005632Y005126D01*
X005632Y005121D01*
X006421Y005121D01*
X006421Y005021D01*
X005632Y005021D01*
X005632Y005016D01*
X005647Y004907D01*
X005675Y004800D01*
X005717Y004699D01*
X005772Y004603D01*
X005839Y004516D01*
X005917Y004438D01*
X006004Y004371D01*
X006099Y004316D01*
X006201Y004274D01*
X006307Y004246D01*
X006416Y004232D01*
X006421Y004232D01*
X006421Y005021D01*
X006521Y005021D01*
X006521Y004232D01*
X006526Y004232D01*
X006635Y004246D01*
X006741Y004274D01*
X006521Y004284D02*
X006421Y004284D01*
X006421Y004383D02*
X006521Y004383D01*
X006521Y004481D02*
X006421Y004481D01*
X006421Y004580D02*
X006521Y004580D01*
X006521Y004678D02*
X006421Y004678D01*
X006421Y004777D02*
X006521Y004777D01*
X006521Y004875D02*
X006421Y004875D01*
X006421Y004974D02*
X006521Y004974D01*
X006521Y005072D02*
X008371Y005072D01*
X008352Y005026D02*
X008394Y005127D01*
X008449Y005223D01*
X008516Y005310D01*
X008594Y005388D01*
X008681Y005455D01*
X008776Y005510D01*
X008878Y005552D01*
X008984Y005580D01*
X009093Y005595D01*
X009098Y005595D01*
X009098Y004806D01*
X009198Y004806D01*
X009198Y005595D01*
X009203Y005595D01*
X009312Y005580D01*
X009419Y005552D01*
X009520Y005510D01*
X009615Y005455D01*
X009703Y005388D01*
X009780Y005310D01*
X009847Y005223D01*
X009902Y005127D01*
X009944Y005026D01*
X009973Y004920D01*
X009987Y004811D01*
X009987Y004806D01*
X009198Y004806D01*
X009198Y004706D01*
X009987Y004706D01*
X009987Y004701D01*
X009973Y004592D01*
X009944Y004485D01*
X009902Y004384D01*
X009847Y004288D01*
X009780Y004201D01*
X009703Y004123D01*
X009615Y004057D01*
X009520Y004002D01*
X009419Y003959D01*
X009312Y003931D01*
X009203Y003917D01*
X009198Y003917D01*
X009198Y004706D01*
X009098Y004706D01*
X009098Y004806D01*
X008309Y004806D01*
X008309Y004811D01*
X008324Y004920D01*
X008352Y005026D01*
X008338Y004974D02*
X007305Y004974D01*
X007287Y004875D02*
X008318Y004875D01*
X008312Y004678D02*
X007213Y004678D01*
X007258Y004777D02*
X009098Y004777D01*
X009098Y004875D02*
X009198Y004875D01*
X009198Y004777D02*
X011019Y004777D01*
X010990Y004875D02*
X009979Y004875D01*
X009958Y004974D02*
X010972Y004974D01*
X010973Y005171D02*
X009877Y005171D01*
X009925Y005072D02*
X011756Y005072D01*
X011756Y004974D02*
X011856Y004974D01*
X011856Y005021D02*
X011856Y004232D01*
X011861Y004232D01*
X011970Y004246D01*
X012076Y004274D01*
X012178Y004316D01*
X012273Y004371D01*
X012360Y004438D01*
X012438Y004516D01*
X012505Y004603D01*
X012560Y004699D01*
X012602Y004800D01*
X012630Y004907D01*
X012645Y005016D01*
X012645Y005021D01*
X011856Y005021D01*
X011856Y005072D02*
X014441Y005072D01*
X014386Y004974D02*
X012639Y004974D01*
X012622Y004875D02*
X014350Y004875D01*
X014314Y004777D02*
X012592Y004777D01*
X012548Y004678D02*
X014299Y004678D01*
X014299Y004580D02*
X012487Y004580D01*
X012403Y004481D02*
X014299Y004481D01*
X014266Y004383D02*
X012288Y004383D01*
X012100Y004284D02*
X014203Y004284D01*
X014162Y004186D02*
X009765Y004186D01*
X009844Y004284D02*
X011512Y004284D01*
X011324Y004383D02*
X009902Y004383D01*
X009943Y004481D02*
X011209Y004481D01*
X011125Y004580D02*
X009970Y004580D01*
X009984Y004678D02*
X011064Y004678D01*
X011756Y004678D02*
X011856Y004678D01*
X011856Y004580D02*
X011756Y004580D01*
X011756Y004481D02*
X011856Y004481D01*
X011856Y004383D02*
X011756Y004383D01*
X011756Y004284D02*
X011856Y004284D01*
X011856Y004777D02*
X011756Y004777D01*
X011756Y004875D02*
X011856Y004875D01*
X011856Y005171D02*
X011756Y005171D01*
X011756Y005269D02*
X011856Y005269D01*
X011856Y005368D02*
X011756Y005368D01*
X011756Y005466D02*
X011856Y005466D01*
X011856Y005565D02*
X011756Y005565D01*
X011756Y005663D02*
X011856Y005663D01*
X011856Y005762D02*
X011756Y005762D01*
X011756Y005860D02*
X011856Y005860D01*
X012092Y005860D02*
X012528Y005860D01*
X012541Y005830D02*
X012697Y005674D01*
X012902Y005589D01*
X013663Y005589D01*
X013867Y005674D01*
X014024Y005830D01*
X014108Y006035D01*
X014108Y006256D01*
X014024Y006460D01*
X013867Y006617D01*
X013663Y006702D01*
X012902Y006702D01*
X012697Y006617D01*
X012541Y006460D01*
X012456Y006256D01*
X012456Y006035D01*
X012541Y005830D01*
X012609Y005762D02*
X012283Y005762D01*
X012400Y005663D02*
X012723Y005663D01*
X012484Y005565D02*
X015054Y005565D01*
X015054Y005663D02*
X013842Y005663D01*
X013955Y005762D02*
X015054Y005762D01*
X015054Y005860D02*
X014036Y005860D01*
X014077Y005959D02*
X015050Y005959D01*
X015050Y006057D02*
X014108Y006057D01*
X014108Y006156D02*
X015050Y006156D01*
X015050Y006254D02*
X014108Y006254D01*
X014068Y006353D02*
X015050Y006353D01*
X015054Y006451D02*
X014028Y006451D01*
X013934Y006550D02*
X015054Y006550D01*
X015054Y006648D02*
X013792Y006648D01*
X013713Y006756D02*
X013772Y006786D01*
X013826Y006825D01*
X013873Y006872D01*
X013911Y006925D01*
X013941Y006984D01*
X013962Y007047D01*
X013971Y007105D01*
X013322Y007105D01*
X013322Y006725D01*
X013585Y006725D01*
X013651Y006736D01*
X013713Y006756D01*
X013684Y006747D02*
X015054Y006747D01*
X015054Y006845D02*
X013846Y006845D01*
X013921Y006944D02*
X015050Y006944D01*
X015050Y007042D02*
X013960Y007042D01*
X013971Y007185D02*
X013962Y007244D01*
X013941Y007307D01*
X013911Y007365D01*
X013873Y007419D01*
X013826Y007466D01*
X013772Y007505D01*
X013713Y007535D01*
X015054Y007535D01*
X015054Y007633D02*
X011059Y007633D01*
X011059Y007535D02*
X012851Y007535D01*
X012792Y007505D01*
X012739Y007466D01*
X012692Y007419D01*
X012653Y007365D01*
X012623Y007307D01*
X012602Y007244D01*
X012593Y007185D01*
X013242Y007185D01*
X013242Y007105D01*
X013322Y007105D01*
X013322Y007185D01*
X013971Y007185D01*
X013963Y007239D02*
X015050Y007239D01*
X015050Y007141D02*
X013322Y007141D01*
X013282Y007145D02*
X014534Y007165D01*
X014660Y007039D01*
X014660Y005464D01*
X014777Y005368D02*
X012591Y005368D01*
X012546Y005466D02*
X015054Y005466D01*
X015274Y005464D02*
X017219Y005464D01*
X017219Y003191D01*
X016072Y003191D01*
X016072Y004637D01*
X016072Y004638D01*
X016072Y004736D01*
X016072Y004736D01*
X015965Y005030D01*
X015764Y005269D01*
X017219Y005269D01*
X017219Y005171D02*
X015847Y005171D01*
X015929Y005072D02*
X017219Y005072D01*
X017219Y004974D02*
X015985Y004974D01*
X015965Y005030D02*
X015965Y005030D01*
X016021Y004875D02*
X017219Y004875D01*
X017219Y004777D02*
X016057Y004777D01*
X016072Y004678D02*
X017219Y004678D01*
X017219Y004580D02*
X016072Y004580D01*
X016072Y004481D02*
X017219Y004481D01*
X017219Y004383D02*
X016072Y004383D01*
X016072Y004284D02*
X017219Y004284D01*
X017219Y004186D02*
X016072Y004186D01*
X016072Y004087D02*
X017219Y004087D01*
X017219Y003989D02*
X016072Y003989D01*
X016072Y003890D02*
X017219Y003890D01*
X017219Y003792D02*
X016072Y003792D01*
X016072Y003693D02*
X017219Y003693D01*
X017219Y003595D02*
X016072Y003595D01*
X016072Y003496D02*
X017219Y003496D01*
X017219Y003398D02*
X016072Y003398D01*
X016072Y003299D02*
X017219Y003299D01*
X017219Y003201D02*
X016072Y003201D01*
X014080Y003989D02*
X009489Y003989D01*
X009655Y004087D02*
X014121Y004087D01*
X014607Y005269D02*
X014607Y005269D01*
X015274Y005464D02*
X015493Y005426D01*
X015493Y005426D01*
X015764Y005269D01*
X015764Y005269D01*
X015764Y005269D01*
X015593Y005368D02*
X017219Y005368D01*
X018007Y005464D02*
X018085Y005543D01*
X018085Y006480D01*
X018085Y007157D01*
X017416Y007826D01*
X017416Y009204D01*
X019975Y009204D01*
X020142Y009246D02*
X020142Y009852D01*
X018736Y009852D01*
X018509Y009625D01*
X018509Y009403D01*
X018466Y009298D01*
X018461Y009294D01*
X018831Y009294D01*
X018892Y009268D01*
X018954Y009294D01*
X019579Y009294D01*
X019684Y009250D01*
X019765Y009170D01*
X019809Y009064D01*
X019809Y008714D01*
X020142Y008714D01*
X020142Y009064D01*
X020179Y009155D01*
X020142Y009246D01*
X020157Y009209D02*
X019725Y009209D01*
X019789Y009111D02*
X020161Y009111D01*
X020142Y009012D02*
X019809Y009012D01*
X019809Y008914D02*
X020142Y008914D01*
X020142Y008815D02*
X019809Y008815D01*
X019809Y008717D02*
X020142Y008717D01*
X020684Y008712D02*
X020684Y008220D01*
X020684Y007826D01*
X021432Y007826D02*
X021432Y008712D01*
X021432Y009598D01*
X020684Y009598D02*
X020684Y008712D01*
X020142Y009308D02*
X018470Y009308D01*
X018509Y009406D02*
X020142Y009406D01*
X020142Y009505D02*
X018509Y009505D01*
X018509Y009603D02*
X020142Y009603D01*
X020142Y009702D02*
X018586Y009702D01*
X018684Y009800D02*
X020142Y009800D01*
X020566Y010582D02*
X018007Y010582D01*
X017908Y010681D01*
X017908Y010464D01*
X018007Y010582D02*
X017613Y010582D01*
X017731Y010563D01*
X017613Y010582D02*
X017022Y010582D01*
X016629Y010189D01*
X016636Y010181D01*
X016636Y010122D01*
X017223Y010096D02*
X017330Y010096D01*
X017332Y010090D02*
X017307Y010029D01*
X017307Y009403D01*
X017351Y009298D01*
X017431Y009218D01*
X017536Y009174D01*
X017633Y009174D01*
X017558Y009143D01*
X017477Y009063D01*
X017434Y008957D01*
X017434Y008467D01*
X017477Y008362D01*
X017558Y008282D01*
X017663Y008238D01*
X018001Y008238D01*
X017976Y008179D01*
X017976Y007474D01*
X017993Y007433D01*
X017219Y007433D01*
X017219Y007875D01*
X017223Y007879D01*
X017223Y008365D01*
X017219Y008368D01*
X017219Y008875D01*
X017223Y008879D01*
X017223Y009365D01*
X017219Y009368D01*
X017219Y009875D01*
X017223Y009879D01*
X017223Y010246D01*
X017307Y010246D01*
X017307Y010151D01*
X017332Y010090D01*
X017307Y009997D02*
X017223Y009997D01*
X017223Y009899D02*
X017307Y009899D01*
X017307Y009800D02*
X017219Y009800D01*
X017219Y009702D02*
X017307Y009702D01*
X017307Y009603D02*
X017219Y009603D01*
X017219Y009505D02*
X017307Y009505D01*
X017307Y009406D02*
X017219Y009406D01*
X017223Y009308D02*
X017347Y009308D01*
X017451Y009209D02*
X017223Y009209D01*
X017223Y009111D02*
X017526Y009111D01*
X017457Y009012D02*
X017223Y009012D01*
X017223Y008914D02*
X017434Y008914D01*
X017434Y008815D02*
X017219Y008815D01*
X017219Y008717D02*
X017434Y008717D01*
X017434Y008618D02*
X017219Y008618D01*
X017219Y008520D02*
X017434Y008520D01*
X017453Y008421D02*
X017219Y008421D01*
X017223Y008323D02*
X017517Y008323D01*
X017223Y008224D02*
X017995Y008224D01*
X017976Y008126D02*
X017223Y008126D01*
X017223Y008027D02*
X017976Y008027D01*
X017976Y007929D02*
X017223Y007929D01*
X017219Y007830D02*
X017976Y007830D01*
X017976Y007732D02*
X017219Y007732D01*
X017219Y007633D02*
X017976Y007633D01*
X017976Y007535D02*
X017219Y007535D01*
X017219Y007436D02*
X017992Y007436D01*
X018518Y007826D02*
X018518Y008712D01*
X017908Y008712D01*
X017908Y009716D02*
X017987Y009795D01*
X018203Y009795D01*
X018597Y010189D01*
X021944Y010189D01*
X022140Y009992D01*
X022140Y007826D01*
X022337Y007630D01*
X022731Y007630D01*
X023322Y007039D01*
X023715Y007630D02*
X023715Y008515D01*
X023912Y008515D01*
X023912Y010386D01*
X023322Y010386D01*
X023322Y010443D01*
X029974Y010443D01*
X031206Y009211D01*
X031300Y009116D01*
X031424Y009065D01*
X032375Y009065D01*
X032375Y009038D01*
X032418Y008933D01*
X032499Y008852D01*
X032604Y008809D01*
X033133Y008809D01*
X033239Y008852D01*
X033319Y008933D01*
X033363Y009038D01*
X033363Y009203D01*
X033626Y009203D01*
X033731Y009246D01*
X033811Y009327D01*
X033855Y009432D01*
X033855Y009961D01*
X033811Y010066D01*
X033731Y010147D01*
X033626Y010191D01*
X033096Y010191D01*
X032991Y010147D01*
X032910Y010066D01*
X032896Y010033D01*
X032024Y010033D01*
X032024Y013602D01*
X031973Y013726D01*
X031260Y014439D01*
X031637Y014439D01*
X031743Y014482D01*
X031787Y014527D01*
X031821Y014493D01*
X031833Y014488D01*
X031833Y014332D01*
X032131Y014332D01*
X032131Y014235D01*
X031833Y014235D01*
X031833Y014047D01*
X031843Y014009D01*
X031863Y013975D01*
X031891Y013947D01*
X031925Y013927D01*
X031963Y013917D01*
X032131Y013917D01*
X032131Y014235D01*
X032228Y014235D01*
X032228Y013917D01*
X032396Y013917D01*
X032434Y013927D01*
X032434Y012484D01*
X032485Y012360D01*
X032533Y012313D01*
X032533Y011440D01*
X032499Y011427D01*
X032418Y011346D01*
X032375Y011241D01*
X032375Y010711D01*
X032418Y010606D01*
X032499Y010526D01*
X032604Y010482D01*
X033626Y010482D01*
X033656Y010495D01*
X033687Y010482D01*
X034216Y010482D01*
X034321Y010526D01*
X034402Y010606D01*
X034445Y010711D01*
X034445Y011241D01*
X034402Y011346D01*
X034321Y011427D01*
X034288Y011440D01*
X034288Y012224D01*
X034236Y012348D01*
X033500Y013084D01*
X033500Y015758D01*
X033894Y016152D01*
X035396Y016152D01*
X035520Y016203D01*
X036107Y016790D01*
X036158Y016913D01*
X036158Y017331D01*
X036172Y017337D01*
X036252Y017417D01*
X036296Y017522D01*
X036296Y018012D01*
X036252Y018118D01*
X036172Y018198D01*
X036067Y018242D01*
X035576Y018242D01*
X035471Y018198D01*
X035416Y018143D01*
X035331Y018143D01*
X034878Y018596D01*
X034878Y019637D01*
X036510Y019637D01*
X036512Y019562D01*
X036409Y019459D01*
X036409Y018973D01*
X036523Y018859D01*
X036528Y018578D01*
X036409Y018459D01*
X036409Y017973D01*
X036539Y017842D01*
X036547Y017404D01*
X036545Y017403D01*
X036545Y017266D01*
X036549Y017266D01*
X036550Y017166D01*
X036545Y017166D01*
X036545Y017030D01*
X036553Y017022D01*
X036559Y016610D01*
X036409Y016459D01*
X036409Y015973D01*
X036572Y015810D01*
X036575Y015626D01*
X036409Y015459D01*
X036409Y014973D01*
X036589Y014793D01*
X036591Y014642D01*
X036409Y014459D01*
X036409Y014265D01*
X035607Y014265D01*
X035607Y014371D01*
X035563Y014476D01*
X035483Y014556D01*
X035378Y014600D01*
X034888Y014600D01*
X034782Y014556D01*
X034702Y014476D01*
X034658Y014371D01*
X034658Y013881D01*
X034702Y013775D01*
X034782Y013695D01*
X034888Y013651D01*
X035052Y013651D01*
X035052Y013616D01*
X034789Y013616D01*
X034684Y013572D01*
X034603Y013492D01*
X034560Y013386D01*
X034560Y012896D01*
X034603Y012791D01*
X034684Y012711D01*
X034789Y012667D01*
X035052Y012667D01*
X035052Y012503D01*
X035095Y012397D01*
X035176Y012317D01*
X035281Y012273D01*
X035532Y012273D01*
X035536Y012262D01*
X036409Y011390D01*
X036409Y010973D01*
X036654Y010728D01*
X036655Y010705D01*
X036409Y010459D01*
X036409Y009973D01*
X036671Y009711D01*
X036690Y008518D01*
X036582Y008489D01*
X036440Y008437D01*
X036304Y008374D01*
X036173Y008298D01*
X036050Y008212D01*
X035935Y008115D01*
X035828Y008009D01*
X035731Y007893D01*
X035645Y007770D01*
X035570Y007639D01*
X035506Y007503D01*
X035455Y007361D01*
X035416Y007216D01*
X035389Y007068D01*
X035376Y006918D01*
X035376Y006892D01*
X037051Y006892D01*
X037051Y006792D01*
X037151Y006792D01*
X037151Y005117D01*
X037176Y005117D01*
X037326Y005131D01*
X037475Y005157D01*
X037620Y005196D01*
X037762Y005247D01*
X037898Y005311D01*
X038029Y005386D01*
X038152Y005473D01*
X038267Y005569D01*
X038374Y005676D01*
X038471Y005791D01*
X038557Y005915D01*
X038586Y005965D01*
X038586Y003191D01*
X036896Y003191D01*
X036944Y003239D01*
X037092Y003597D01*
X037092Y003985D01*
X036944Y004343D01*
X036872Y004415D01*
X036872Y004637D01*
X036872Y004638D01*
X036872Y004736D01*
X036765Y005030D01*
X036638Y005181D01*
X036727Y005157D01*
X036876Y005131D01*
X037026Y005117D01*
X037051Y005117D01*
X037051Y006792D01*
X035376Y006792D01*
X035376Y006767D01*
X035389Y006617D01*
X035416Y006469D01*
X035455Y006323D01*
X035506Y006182D01*
X035570Y006045D01*
X035645Y005915D01*
X035731Y005791D01*
X035828Y005676D01*
X035935Y005569D01*
X036050Y005473D01*
X036058Y005467D01*
X035985Y005480D01*
X035678Y005426D01*
X035678Y005426D01*
X035407Y005269D01*
X034081Y005269D01*
X034084Y005171D02*
X035324Y005171D01*
X035407Y005269D02*
X035206Y005030D01*
X035206Y005030D01*
X035099Y004736D01*
X035099Y004638D01*
X035099Y004637D01*
X035099Y003191D01*
X034140Y003191D01*
X034006Y007884D01*
X034007Y007884D01*
X034013Y007870D01*
X034093Y007789D01*
X034199Y007746D01*
X034689Y007746D01*
X034794Y007789D01*
X034874Y007870D01*
X034918Y007975D01*
X034918Y008465D01*
X034874Y008570D01*
X034794Y008651D01*
X034689Y008694D01*
X034199Y008694D01*
X034093Y008651D01*
X034013Y008570D01*
X034007Y008556D01*
X033987Y008556D01*
X033951Y009795D01*
X036587Y009795D01*
X036752Y009630D01*
X037238Y009630D01*
X037403Y009795D01*
X037587Y009795D01*
X037752Y009630D01*
X038238Y009630D01*
X038403Y009795D01*
X038586Y009795D01*
X038586Y007719D01*
X038557Y007770D01*
X038471Y007893D01*
X038374Y008009D01*
X038267Y008115D01*
X038152Y008212D01*
X038029Y008298D01*
X037898Y008374D01*
X037762Y008437D01*
X037620Y008489D01*
X037475Y008528D01*
X037326Y008554D01*
X037176Y008567D01*
X037151Y008567D01*
X037151Y006892D01*
X037051Y006892D01*
X037051Y008567D01*
X037026Y008567D01*
X036876Y008554D01*
X036727Y008528D01*
X036582Y008489D01*
X036440Y008437D01*
X036304Y008374D01*
X036173Y008298D01*
X036050Y008212D01*
X035935Y008115D01*
X035828Y008009D01*
X035731Y007893D01*
X035645Y007770D01*
X035570Y007639D01*
X035506Y007503D01*
X035480Y007433D01*
X033479Y007433D01*
X033468Y007443D01*
X033422Y007463D01*
X033422Y007884D01*
X034007Y007884D01*
X034013Y007870D01*
X034093Y007789D01*
X034199Y007746D01*
X034689Y007746D01*
X034794Y007789D01*
X034874Y007870D01*
X034918Y007975D01*
X034918Y008465D01*
X034874Y008570D01*
X034794Y008651D01*
X034689Y008694D01*
X034199Y008694D01*
X034093Y008651D01*
X034013Y008570D01*
X034007Y008556D01*
X033097Y008556D01*
X032974Y008505D01*
X032800Y008332D01*
X032749Y008208D01*
X032749Y007463D01*
X032702Y007443D01*
X032692Y007433D01*
X031979Y007433D01*
X031968Y007443D01*
X031720Y007546D01*
X031543Y007546D01*
X030829Y008260D01*
X030709Y008310D01*
X030444Y008310D01*
X030426Y008354D01*
X030345Y008434D01*
X030240Y008478D01*
X029710Y008478D01*
X029605Y008434D01*
X029525Y008354D01*
X029481Y008249D01*
X029481Y007719D01*
X029525Y007614D01*
X029605Y007533D01*
X029710Y007490D01*
X030240Y007490D01*
X030345Y007533D01*
X030426Y007614D01*
X030444Y007658D01*
X030509Y007658D01*
X030735Y007433D01*
X028979Y007433D01*
X028968Y007443D01*
X028720Y007546D01*
X028451Y007546D01*
X028267Y007470D01*
X027978Y007760D01*
X027978Y008179D01*
X027940Y008269D01*
X027978Y008360D01*
X027978Y009064D01*
X027940Y009155D01*
X027978Y009246D01*
X027978Y009950D01*
X027934Y010056D01*
X027854Y010136D01*
X027749Y010180D01*
X027123Y010180D01*
X027062Y010154D01*
X027001Y010180D01*
X026375Y010180D01*
X026270Y010136D01*
X026189Y010056D01*
X026146Y009950D01*
X026146Y009246D01*
X026170Y009187D01*
X025985Y009187D01*
X026009Y009246D01*
X026009Y009950D01*
X025966Y010056D01*
X025885Y010136D01*
X025780Y010180D01*
X025154Y010180D01*
X025093Y010154D01*
X025032Y010180D01*
X024406Y010180D01*
X024301Y010136D01*
X024221Y010056D01*
X024177Y009950D01*
X024177Y009246D01*
X024215Y009155D01*
X024177Y009064D01*
X024177Y008517D01*
X023912Y008517D01*
X023912Y010386D01*
X024010Y010287D01*
X023912Y010189D01*
X023912Y010194D02*
X030222Y010194D01*
X030124Y010293D02*
X023912Y010293D01*
X023912Y010386D02*
X023420Y010386D01*
X023420Y010287D01*
X023420Y010386D02*
X022928Y010386D01*
X022222Y010386D01*
X022134Y010474D01*
X022010Y010525D01*
X020984Y010525D01*
X021048Y010589D01*
X021099Y010712D01*
X021099Y010974D01*
X021136Y010964D01*
X021305Y010964D01*
X021305Y011282D01*
X021401Y011282D01*
X021401Y010964D01*
X021570Y010964D01*
X021608Y010974D01*
X021642Y010994D01*
X021670Y011022D01*
X021690Y011056D01*
X021700Y011094D01*
X021700Y011282D01*
X021401Y011282D01*
X021401Y011379D01*
X021700Y011379D01*
X021700Y011535D01*
X021712Y011541D01*
X021793Y011621D01*
X021796Y011629D01*
X021799Y011621D01*
X021880Y011541D01*
X021892Y011535D01*
X021892Y011379D01*
X022190Y011379D01*
X022190Y011282D01*
X021892Y011282D01*
X021892Y011094D01*
X021902Y011056D01*
X021922Y011022D01*
X021950Y010994D01*
X021984Y010974D01*
X022022Y010964D01*
X022190Y010964D01*
X022190Y011282D01*
X022287Y011282D01*
X022287Y010964D01*
X022455Y010964D01*
X022494Y010974D01*
X022528Y010994D01*
X022556Y011022D01*
X022575Y011056D01*
X022586Y011094D01*
X022586Y011282D01*
X022287Y011282D01*
X022287Y011379D01*
X022586Y011379D01*
X022586Y011535D01*
X022598Y011541D01*
X022678Y011621D01*
X022722Y011726D01*
X022722Y012175D01*
X022788Y012175D01*
X022788Y010712D01*
X022840Y010589D01*
X022928Y010501D01*
X022928Y010386D01*
X022633Y010681D01*
X022633Y011370D01*
X021747Y011370D01*
X021747Y013141D01*
X020959Y013141D01*
X020172Y013043D01*
X020172Y014323D01*
X019778Y014323D01*
X019581Y014323D01*
X019188Y014716D01*
X018203Y014716D01*
X017967Y014480D01*
X017967Y013437D01*
X017919Y013445D02*
X016998Y013445D01*
X017096Y013346D02*
X017601Y013346D01*
X017601Y013388D02*
X017601Y013281D01*
X017162Y013281D01*
X015877Y014565D01*
X023072Y014565D01*
X023072Y014242D01*
X023044Y014174D01*
X023044Y013684D01*
X023088Y013579D01*
X023168Y013498D01*
X023273Y013454D01*
X023763Y013454D01*
X023869Y013498D01*
X023949Y013579D01*
X023993Y013684D01*
X023993Y014174D01*
X023965Y014242D01*
X023965Y015600D01*
X024472Y015600D01*
X024577Y015644D01*
X024604Y015670D01*
X024795Y015670D01*
X024822Y015644D01*
X024927Y015600D01*
X025456Y015600D01*
X025562Y015644D01*
X025642Y015724D01*
X025686Y015829D01*
X025686Y016359D01*
X025642Y016464D01*
X025562Y016545D01*
X025456Y016588D01*
X024927Y016588D01*
X024822Y016545D01*
X024795Y016518D01*
X024604Y016518D01*
X024577Y016545D01*
X024472Y016588D01*
X023965Y016588D01*
X023965Y017000D01*
X024065Y017041D01*
X024146Y017122D01*
X024190Y017227D01*
X024190Y017717D01*
X024146Y017822D01*
X024065Y017903D01*
X023960Y017946D01*
X023470Y017946D01*
X023373Y017906D01*
X023373Y018073D01*
X023075Y018073D01*
X023075Y018170D01*
X023373Y018170D01*
X023373Y018327D01*
X023385Y018332D01*
X023466Y018412D01*
X023509Y018518D01*
X023509Y018769D01*
X023553Y018726D01*
X023565Y018721D01*
X023565Y018564D01*
X023864Y018564D01*
X023864Y018467D01*
X023960Y018467D01*
X023960Y018149D01*
X024129Y018149D01*
X024167Y018159D01*
X024201Y018179D01*
X024229Y018207D01*
X024249Y018241D01*
X024259Y018279D01*
X024259Y018467D01*
X023961Y018467D01*
X023961Y018564D01*
X024259Y018564D01*
X024259Y018721D01*
X024271Y018726D01*
X024315Y018769D01*
X024315Y018419D01*
X024358Y018314D01*
X024439Y018233D01*
X024451Y018228D01*
X024451Y018072D01*
X024749Y018072D01*
X024749Y017975D01*
X024451Y017975D01*
X024451Y017787D01*
X024461Y017749D01*
X024481Y017715D01*
X024509Y017687D01*
X024543Y017667D01*
X024581Y017657D01*
X024749Y017657D01*
X024749Y017975D01*
X024846Y017975D01*
X024846Y017657D01*
X025014Y017657D01*
X025053Y017667D01*
X025087Y017687D01*
X025115Y017715D01*
X025135Y017749D01*
X025145Y017787D01*
X025145Y017975D01*
X024846Y017975D01*
X024846Y018072D01*
X025145Y018072D01*
X025145Y018228D01*
X025157Y018233D01*
X025237Y018314D01*
X025281Y018419D01*
X025281Y018769D01*
X025325Y018726D01*
X025337Y018721D01*
X025337Y018564D01*
X025635Y018564D01*
X025635Y018467D01*
X025337Y018467D01*
X025337Y018279D01*
X025347Y018241D01*
X025367Y018207D01*
X025395Y018179D01*
X025429Y018159D01*
X025467Y018149D01*
X025635Y018149D01*
X025635Y018467D01*
X025732Y018467D01*
X025732Y018149D01*
X025900Y018149D01*
X025938Y018159D01*
X025973Y018179D01*
X026001Y018207D01*
X026020Y018241D01*
X026031Y018279D01*
X026031Y018467D01*
X025732Y018467D01*
X025732Y018564D01*
X026031Y018564D01*
X026031Y018721D01*
X026043Y018726D01*
X026087Y018769D01*
X026519Y018769D01*
X026574Y018792D01*
X026650Y018761D01*
X027197Y018761D01*
X027303Y018804D01*
X027383Y018885D01*
X027388Y018897D01*
X027545Y018897D01*
X027545Y019195D01*
X027642Y019195D01*
X027710Y019195D01*
X027710Y019292D01*
X027642Y019292D01*
X027642Y019195D01*
X027642Y018897D01*
X027710Y018897D01*
X027710Y016339D01*
X027643Y016339D01*
X027643Y016638D01*
X027487Y016638D01*
X027481Y016650D01*
X027401Y016731D01*
X027296Y016774D01*
X026749Y016774D01*
X026673Y016743D01*
X026618Y016765D01*
X026128Y016765D01*
X026022Y016722D01*
X025942Y016641D01*
X025898Y016536D01*
X025898Y016046D01*
X025942Y015941D01*
X026022Y015860D01*
X026128Y015817D01*
X026618Y015817D01*
X026673Y015839D01*
X026749Y015808D01*
X027296Y015808D01*
X027401Y015852D01*
X027481Y015932D01*
X027487Y015944D01*
X027643Y015944D01*
X027643Y016243D01*
X027710Y016243D01*
X027710Y015338D01*
X027761Y015215D01*
X027855Y015120D01*
X027979Y015069D01*
X029186Y015069D01*
X030520Y013736D01*
X030307Y013736D01*
X030092Y013646D01*
X029927Y013481D01*
X029925Y013477D01*
X029667Y013736D01*
X029181Y013736D01*
X028924Y013478D01*
X028667Y013736D01*
X028181Y013736D01*
X027932Y013487D01*
X027642Y013487D01*
X027642Y013584D01*
X027545Y013584D01*
X027545Y013882D01*
X027388Y013882D01*
X027383Y013894D01*
X027303Y013975D01*
X027197Y014018D01*
X026650Y014018D01*
X026574Y013987D01*
X026519Y014009D01*
X026029Y014009D01*
X025963Y013982D01*
X025926Y014071D01*
X025846Y014152D01*
X025834Y014157D01*
X025834Y014313D01*
X025535Y014313D01*
X025535Y014410D01*
X025438Y014410D01*
X025438Y014313D01*
X025140Y014313D01*
X025140Y014157D01*
X025128Y014152D01*
X025047Y014071D01*
X025004Y013966D01*
X025004Y013517D01*
X024848Y013517D01*
X024744Y013474D01*
X024737Y013492D01*
X024656Y013572D01*
X024551Y013616D01*
X024061Y013616D01*
X023956Y013572D01*
X023875Y013492D01*
X023831Y013386D01*
X023831Y013124D01*
X023667Y013124D01*
X023562Y013080D01*
X023518Y013037D01*
X023475Y013080D01*
X023370Y013124D01*
X023076Y013124D01*
X023076Y013494D01*
X023033Y013599D01*
X022952Y013679D01*
X022847Y013723D01*
X022566Y013723D01*
X022272Y014017D01*
X022148Y014068D01*
X021002Y014068D01*
X020996Y014082D01*
X020916Y014163D01*
X020811Y014206D01*
X020321Y014206D01*
X020215Y014163D01*
X020135Y014082D01*
X020091Y013977D01*
X020091Y013588D01*
X020023Y013616D01*
X019649Y013616D01*
X019618Y013689D01*
X019538Y013769D01*
X019433Y013813D01*
X019079Y013813D01*
X019015Y013876D01*
X018910Y013920D01*
X018363Y013920D01*
X018258Y013876D01*
X018177Y013796D01*
X018172Y013784D01*
X018016Y013784D01*
X018016Y013485D01*
X017919Y013485D01*
X017919Y013784D01*
X017731Y013784D01*
X017693Y013773D01*
X017659Y013754D01*
X017631Y013726D01*
X017611Y013691D01*
X017601Y013653D01*
X017601Y013485D01*
X017919Y013485D01*
X017919Y013388D01*
X017601Y013388D01*
X017601Y013543D02*
X016899Y013543D01*
X016801Y013642D02*
X017601Y013642D01*
X017645Y013740D02*
X016702Y013740D01*
X016604Y013839D02*
X018220Y013839D01*
X018016Y013740D02*
X017919Y013740D01*
X017919Y013642D02*
X018016Y013642D01*
X018016Y013543D02*
X017919Y013543D01*
X018636Y013437D02*
X018735Y013338D01*
X019188Y013338D01*
X019581Y013141D02*
X019385Y012945D01*
X017022Y012945D01*
X014955Y015011D01*
X014266Y015011D01*
X013873Y015405D01*
X013573Y015405D01*
X013841Y014961D02*
X014074Y014728D01*
X013602Y014728D01*
X013602Y014450D01*
X013545Y014450D01*
X013545Y014728D01*
X012766Y014728D01*
X012728Y014718D01*
X012694Y014698D01*
X012666Y014671D01*
X012646Y014636D01*
X012636Y014598D01*
X012636Y014450D01*
X013545Y014450D01*
X013545Y014392D01*
X013602Y014392D01*
X013602Y014113D01*
X014381Y014113D01*
X014419Y014124D01*
X014453Y014143D01*
X014481Y014171D01*
X014501Y014206D01*
X014511Y014244D01*
X014511Y014392D01*
X013602Y014392D01*
X013602Y014450D01*
X014511Y014450D01*
X014511Y014598D01*
X014501Y014636D01*
X014481Y014671D01*
X014476Y014675D01*
X014816Y014675D01*
X015718Y013773D01*
X014629Y013773D01*
X014604Y013835D01*
X014523Y013916D01*
X014418Y013959D01*
X012729Y013959D01*
X012624Y013916D01*
X012543Y013835D01*
X012500Y013730D01*
X012500Y013301D01*
X012543Y013196D01*
X012558Y013181D01*
X012543Y013166D01*
X012500Y013061D01*
X012500Y012632D01*
X012543Y012527D01*
X012624Y012446D01*
X012729Y012402D01*
X014418Y012402D01*
X014523Y012446D01*
X014604Y012527D01*
X014647Y012632D01*
X014647Y013061D01*
X014631Y013100D01*
X015702Y013100D01*
X016438Y012364D01*
X016562Y012313D01*
X019243Y012313D01*
X019249Y012299D01*
X019330Y012219D01*
X019435Y012175D01*
X019925Y012175D01*
X020030Y012219D01*
X020094Y012283D01*
X020123Y012212D01*
X020204Y012132D01*
X020218Y012126D01*
X020218Y011891D01*
X020119Y011793D01*
X020025Y011698D01*
X020001Y011641D01*
X019931Y011612D01*
X019851Y011532D01*
X019846Y011520D01*
X019689Y011520D01*
X019689Y011221D01*
X019592Y011221D01*
X019592Y011124D01*
X019274Y011124D01*
X019274Y010956D01*
X019284Y010919D01*
X018429Y010919D01*
X018385Y010963D01*
X018280Y011006D01*
X018001Y011006D01*
X017975Y011017D01*
X017841Y011017D01*
X017816Y011006D01*
X017536Y011006D01*
X017431Y010963D01*
X017387Y010919D01*
X016955Y010919D01*
X016832Y010867D01*
X016672Y010708D01*
X016394Y010708D01*
X016268Y010582D01*
X016005Y010582D01*
X015973Y010615D01*
X015973Y010854D01*
X015922Y010978D01*
X015827Y011072D01*
X015827Y011072D01*
X015416Y011483D01*
X015465Y011531D01*
X015508Y011637D01*
X015508Y012087D01*
X015465Y012192D01*
X015384Y012273D01*
X015279Y012317D01*
X014828Y012317D01*
X014723Y012273D01*
X014643Y012192D01*
X014599Y012087D01*
X014599Y012068D01*
X014523Y012144D01*
X014418Y012187D01*
X012729Y012187D01*
X012624Y012144D01*
X012543Y012063D01*
X012500Y011958D01*
X012500Y011529D01*
X012543Y011424D01*
X012624Y011344D01*
X012729Y011300D01*
X014203Y011300D01*
X014131Y011228D01*
X014125Y011214D01*
X009880Y011214D01*
X009874Y011228D01*
X009794Y011308D01*
X009689Y011352D01*
X009199Y011352D01*
X009093Y011308D01*
X009013Y011228D01*
X008969Y011123D01*
X008969Y010633D01*
X008990Y010582D01*
X008203Y010582D01*
X008156Y010649D01*
X008059Y010764D01*
X007952Y010871D01*
X007837Y010968D01*
X007714Y011054D01*
X007583Y011129D01*
X007447Y011193D01*
X007305Y011245D01*
X007160Y011284D01*
X007011Y011310D01*
X006861Y011323D01*
X006836Y011323D01*
X006836Y010582D01*
X006736Y010582D01*
X006736Y011323D01*
X006711Y011323D01*
X006561Y011310D01*
X006412Y011284D01*
X006267Y011245D01*
X006125Y011193D01*
X005989Y011129D01*
X005858Y011054D01*
X005735Y010968D01*
X005620Y010871D01*
X005513Y010764D01*
X005416Y010649D01*
X005330Y010526D01*
X005255Y010395D01*
X005191Y010259D01*
X005140Y010117D01*
X005101Y009972D01*
X005074Y009823D01*
X005061Y009673D01*
X005061Y009648D01*
X006736Y009648D01*
X006736Y011323D01*
X006711Y011323D01*
X006561Y011310D01*
X006412Y011284D01*
X006267Y011245D01*
X006125Y011193D01*
X005989Y011129D01*
X005858Y011054D01*
X005735Y010968D01*
X005620Y010871D01*
X005513Y010764D01*
X005416Y010649D01*
X005370Y010582D01*
X002151Y010582D01*
X002151Y023682D01*
X002180Y023631D01*
X002267Y023508D01*
X002364Y023392D01*
X002470Y023286D01*
X002585Y023189D01*
X002709Y023103D01*
X002839Y023027D01*
X002976Y022964D01*
X003117Y022912D01*
X003263Y022873D01*
X003411Y022847D01*
X003561Y022834D01*
X003586Y022834D01*
X003586Y024509D01*
X003686Y024509D01*
X003686Y022834D01*
X003712Y022834D01*
X003862Y022847D01*
X004010Y022873D01*
X004156Y022912D01*
X004297Y022964D01*
X004434Y023027D01*
X004564Y023103D01*
X004687Y023189D01*
X004803Y023286D01*
X004909Y023392D01*
X005006Y023508D01*
X005093Y023631D01*
X005168Y023762D01*
X005232Y023898D01*
X005283Y024040D01*
X005322Y024185D01*
X005348Y024333D01*
X005361Y024483D01*
X005361Y024509D01*
X003686Y024509D01*
X003686Y024609D01*
X003586Y024609D01*
X003586Y026284D01*
X003561Y026284D01*
X003411Y026270D01*
X003263Y026244D01*
X003117Y026205D01*
X002976Y026154D01*
X002839Y026090D01*
X002709Y026015D01*
X002585Y025928D01*
X002470Y025832D01*
X002364Y025725D01*
X002267Y025610D01*
X002180Y025486D01*
X002151Y025435D01*
X002151Y027168D01*
X002369Y027078D01*
X002659Y027078D01*
X002927Y027189D01*
X003046Y027307D01*
X003164Y027189D01*
X003374Y027102D01*
X003745Y026730D01*
X003840Y026636D01*
X003963Y026585D01*
X004913Y026585D01*
X004973Y026544D01*
X004973Y025980D01*
X004959Y025974D01*
X004879Y025893D01*
X004839Y025796D01*
X004803Y025832D01*
X004687Y025928D01*
X004564Y026015D01*
X004434Y026090D01*
X004297Y026154D01*
X004156Y026205D01*
X004010Y026244D01*
X003862Y026270D01*
X003712Y026284D01*
X003686Y026284D01*
X003686Y024609D01*
X005361Y024609D01*
X005361Y024634D01*
X005348Y024784D01*
X005322Y024932D01*
X005285Y025069D01*
X005555Y025069D01*
X005660Y025112D01*
X005740Y025193D01*
X005784Y025298D01*
X005784Y025788D01*
X005740Y025893D01*
X005660Y025974D01*
X005646Y025980D01*
X005646Y026387D01*
X005705Y026387D01*
X005776Y026416D01*
X005847Y026387D01*
X006237Y026387D01*
X006360Y026438D01*
X006377Y026455D01*
X006393Y026438D01*
X006517Y026387D01*
X006906Y026387D01*
X007030Y026438D01*
X007110Y026519D01*
X007191Y026438D01*
X007218Y026427D01*
X007245Y026307D01*
X007288Y026185D01*
X007344Y026069D01*
X007413Y025959D01*
X007493Y025858D01*
X007585Y025767D01*
X007686Y025686D01*
X007795Y025618D01*
X007911Y025562D01*
X008033Y025519D01*
X008159Y025490D01*
X008288Y025476D01*
X008302Y025476D01*
X008302Y026387D01*
X008402Y026387D01*
X008402Y025476D01*
X008417Y025476D01*
X008545Y025490D01*
X008671Y025519D01*
X008793Y025562D01*
X008909Y025618D01*
X009019Y025686D01*
X009120Y025767D01*
X009211Y025858D01*
X009292Y025959D01*
X009360Y026069D01*
X009416Y026185D01*
X009459Y026307D01*
X009488Y026433D01*
X009497Y026512D01*
X009503Y026519D01*
X009583Y026438D01*
X009707Y026387D01*
X010224Y026387D01*
X010348Y026438D01*
X010442Y026533D01*
X010494Y026656D01*
X010494Y027557D01*
X010442Y027680D01*
X010348Y027775D01*
X010224Y027826D01*
X009707Y027826D01*
X009583Y027775D01*
X009489Y027680D01*
X009361Y027553D01*
X009358Y027546D01*
X009299Y027571D01*
X009010Y027571D01*
X008909Y027634D01*
X008793Y027690D01*
X008671Y027732D01*
X008545Y027761D01*
X008417Y027776D01*
X008402Y027776D01*
X008402Y027571D01*
X008302Y027571D01*
X008302Y027776D01*
X008288Y027776D01*
X008159Y027761D01*
X008033Y027732D01*
X007911Y027690D01*
X007795Y027634D01*
X007688Y027567D01*
X007574Y027519D01*
X007509Y027454D01*
X007444Y027519D01*
X007320Y027571D01*
X007222Y027571D01*
X007259Y027662D01*
X007259Y027952D01*
X007148Y028220D01*
X006943Y028425D01*
X006675Y028536D01*
X006385Y028536D01*
X006117Y028425D01*
X005999Y028306D01*
X005880Y028425D01*
X005612Y028536D01*
X005322Y028536D01*
X005054Y028425D01*
X004890Y028261D01*
X004852Y028300D01*
X004638Y028388D01*
X004407Y028388D01*
X004193Y028300D01*
X004154Y028261D01*
X003990Y028425D01*
X003722Y028536D01*
X003432Y028536D01*
X003164Y028425D01*
X003046Y028306D01*
X002927Y028425D01*
X002659Y028536D01*
X002369Y028536D01*
X002151Y028445D01*
X002151Y029356D01*
X002224Y029282D01*
X002438Y029194D01*
X002669Y029194D01*
X002883Y029282D01*
X003047Y029446D01*
X003135Y029660D01*
X003135Y029891D01*
X003047Y030105D01*
X002884Y030267D01*
X003047Y030430D01*
X003135Y030644D01*
X003135Y030867D01*
X005909Y030867D01*
X005909Y030644D01*
X005998Y030430D01*
X006161Y030267D01*
X005998Y030105D01*
X005909Y029891D01*
X005909Y029660D01*
X005998Y029446D01*
X006161Y029282D01*
X006375Y029194D01*
X006606Y029194D01*
X006786Y029268D01*
X006786Y028889D01*
X038586Y028889D01*
X038586Y023861D01*
X038557Y023912D01*
X038471Y024035D01*
X038374Y024150D01*
X038267Y024257D01*
X038152Y024354D01*
X038029Y024440D01*
X037898Y024515D01*
X037762Y024579D01*
X037620Y024630D01*
X037475Y024669D01*
X037326Y024696D01*
X037176Y024709D01*
X037151Y024709D01*
X037151Y023034D01*
X037051Y023034D01*
X037051Y024709D01*
X037026Y024709D01*
X036876Y024696D01*
X036727Y024669D01*
X036582Y024630D01*
X036440Y024579D01*
X036304Y024515D01*
X036173Y024440D01*
X036059Y024360D01*
X036059Y024811D01*
X036196Y024947D01*
X036281Y025152D01*
X036281Y025374D01*
X036196Y025579D01*
X036118Y025657D01*
X036196Y025735D01*
X036281Y025940D01*
X036281Y026162D01*
X036196Y026367D01*
X036039Y026524D01*
X035889Y026586D01*
X035963Y026661D01*
X036015Y026784D01*
X036015Y027429D01*
X035963Y027553D01*
X035869Y027647D01*
X035741Y027775D01*
X035617Y027826D01*
X035228Y027826D01*
X035104Y027775D01*
X035088Y027758D01*
X035071Y027775D01*
X034948Y027826D01*
X034431Y027826D01*
X034307Y027775D01*
X034226Y027695D01*
X034146Y027775D01*
X034022Y027826D01*
X033633Y027826D01*
X033525Y027782D01*
X033393Y027914D01*
X033048Y028057D01*
X032674Y028057D01*
X032329Y027914D01*
X032241Y027826D01*
X032038Y027826D01*
X031914Y027775D01*
X031834Y027695D01*
X031753Y027775D01*
X031630Y027826D01*
X031300Y027826D01*
X030980Y027912D01*
X030641Y027912D01*
X030314Y027824D01*
X030021Y027655D01*
X029950Y027584D01*
X029887Y027647D01*
X029760Y027775D01*
X029636Y027826D01*
X029247Y027826D01*
X029123Y027775D01*
X029042Y027695D01*
X028962Y027775D01*
X028838Y027826D01*
X028449Y027826D01*
X028325Y027775D01*
X028309Y027758D01*
X028292Y027775D01*
X028289Y027777D01*
X028169Y027826D01*
X028035Y027826D01*
X028032Y027825D01*
X027911Y027775D01*
X027906Y027770D01*
X027846Y027710D01*
X027781Y027775D01*
X027657Y027826D01*
X027524Y027826D01*
X027400Y027775D01*
X027337Y027712D01*
X027258Y027712D01*
X026914Y027368D01*
X026914Y026883D01*
X027085Y026712D01*
X026843Y026712D01*
X026843Y026912D01*
X026871Y026939D01*
X026871Y027076D01*
X026843Y027076D01*
X026843Y027176D01*
X026871Y027176D01*
X026871Y027312D01*
X026816Y027367D01*
X026792Y027425D01*
X026697Y027519D01*
X026639Y027544D01*
X026607Y027576D01*
X026471Y027576D01*
X026471Y027571D01*
X026440Y027571D01*
X026379Y027545D01*
X026371Y027549D01*
X026371Y027576D01*
X026234Y027576D01*
X026229Y027571D01*
X026056Y027571D01*
X025933Y027519D01*
X025919Y027505D01*
X025905Y027519D01*
X025781Y027571D01*
X025725Y027571D01*
X025583Y027712D01*
X025098Y027712D01*
X024940Y027554D01*
X024875Y027532D01*
X024789Y027458D01*
X024703Y027532D01*
X024673Y027542D01*
X024503Y027712D01*
X024018Y027712D01*
X023733Y027427D01*
X023479Y027680D01*
X023479Y027680D01*
X023384Y027775D01*
X023261Y027826D01*
X023127Y027826D01*
X023003Y027775D01*
X022909Y027680D01*
X022858Y027557D01*
X022858Y027054D01*
X022748Y027008D01*
X022653Y026914D01*
X022602Y026790D01*
X022602Y026656D01*
X022653Y026533D01*
X022748Y026438D01*
X022871Y026387D01*
X023153Y026387D01*
X023134Y026368D01*
X023134Y025883D01*
X023379Y025638D01*
X023379Y025279D01*
X023430Y025156D01*
X023494Y025092D01*
X014996Y025092D01*
X014799Y025289D01*
X014799Y025734D01*
X014902Y025837D01*
X015199Y025539D01*
X015685Y025539D01*
X016028Y025883D01*
X016028Y026368D01*
X015685Y026712D01*
X015545Y026712D01*
X015545Y027557D01*
X015493Y027680D01*
X015399Y027775D01*
X015275Y027826D01*
X014758Y027826D01*
X014635Y027775D01*
X014507Y027647D01*
X014412Y027553D01*
X014409Y027546D01*
X014350Y027571D01*
X014014Y027571D01*
X014009Y027576D01*
X013872Y027576D01*
X013872Y027534D01*
X013837Y027519D01*
X013820Y027503D01*
X013804Y027519D01*
X013772Y027533D01*
X013772Y027576D01*
X013636Y027576D01*
X013631Y027571D01*
X013163Y027571D01*
X013137Y027560D01*
X012985Y027712D01*
X012499Y027712D01*
X012358Y027571D01*
X012349Y027571D01*
X012303Y027680D01*
X012209Y027775D01*
X012085Y027826D01*
X011824Y027826D01*
X011700Y027775D01*
X011637Y027712D01*
X011485Y027712D01*
X011421Y027775D01*
X011298Y027826D01*
X011164Y027826D01*
X011040Y027775D01*
X010946Y027680D01*
X010895Y027557D01*
X010895Y027423D01*
X010946Y027300D01*
X010947Y027298D01*
X010946Y027297D01*
X010895Y027174D01*
X010895Y027040D01*
X010946Y026916D01*
X011023Y026840D01*
X011023Y026712D01*
X010879Y026712D01*
X010536Y026368D01*
X010536Y025883D01*
X010781Y025638D01*
X010781Y024295D01*
X010832Y024171D01*
X010926Y024077D01*
X011517Y023486D01*
X011640Y023435D01*
X013419Y023435D01*
X013403Y023419D01*
X013314Y023204D01*
X013314Y022749D01*
X013239Y022824D01*
X013133Y022868D01*
X012890Y022868D01*
X012882Y022875D01*
X012758Y022926D01*
X009977Y022926D01*
X009142Y023761D01*
X009018Y023812D01*
X007124Y023812D01*
X007118Y023826D01*
X007038Y023907D01*
X006933Y023950D01*
X006443Y023950D01*
X006337Y023907D01*
X006257Y023826D01*
X006213Y023721D01*
X006213Y023231D01*
X006257Y023126D01*
X006337Y023045D01*
X006443Y023002D01*
X006933Y023002D01*
X007038Y023045D01*
X007118Y023126D01*
X007124Y023140D01*
X008812Y023140D01*
X009647Y022305D01*
X009770Y022254D01*
X012414Y022254D01*
X012414Y022148D01*
X012458Y022043D01*
X012538Y021963D01*
X012643Y021919D01*
X013133Y021919D01*
X013239Y021963D01*
X013319Y022043D01*
X013363Y022148D01*
X013363Y022253D01*
X013403Y022155D01*
X013568Y021990D01*
X013784Y021901D01*
X014017Y021901D01*
X014232Y021990D01*
X014397Y022155D01*
X014474Y022341D01*
X014483Y022314D01*
X014515Y022251D01*
X014557Y022194D01*
X014607Y022144D01*
X014664Y022102D01*
X014728Y022070D01*
X014795Y022048D01*
X014850Y022039D01*
X014850Y022737D01*
X014950Y022737D01*
X014950Y022039D01*
X015006Y022048D01*
X015073Y022070D01*
X015136Y022102D01*
X015193Y022144D01*
X015244Y022194D01*
X015285Y022251D01*
X015317Y022314D01*
X015326Y022341D01*
X015403Y022155D01*
X015568Y021990D01*
X015784Y021901D01*
X016017Y021901D01*
X016044Y021912D01*
X016274Y021682D01*
X016180Y021643D01*
X016099Y021563D01*
X016056Y021457D01*
X016056Y021214D01*
X015872Y021214D01*
X015767Y021171D01*
X015686Y021090D01*
X015642Y020985D01*
X015642Y020455D01*
X015686Y020350D01*
X015763Y020273D01*
X015752Y020246D01*
X015752Y019699D01*
X015795Y019593D01*
X015876Y019513D01*
X015888Y019508D01*
X015888Y019351D01*
X016186Y019351D01*
X016186Y019254D01*
X015888Y019254D01*
X015888Y019067D01*
X015898Y019028D01*
X015918Y018994D01*
X015946Y018966D01*
X015980Y018947D01*
X016018Y018936D01*
X016186Y018936D01*
X016186Y019254D01*
X016283Y019254D01*
X016283Y018936D01*
X016452Y018936D01*
X016490Y018947D01*
X016524Y018966D01*
X016552Y018994D01*
X016572Y019028D01*
X016582Y019067D01*
X016582Y019254D01*
X016283Y019254D01*
X016283Y019351D01*
X016582Y019351D01*
X016582Y019508D01*
X016594Y019513D01*
X016674Y019593D01*
X016718Y019699D01*
X016718Y020246D01*
X016674Y020351D01*
X016613Y020412D01*
X016630Y020455D01*
X016630Y020636D01*
X016733Y020534D01*
X016857Y020482D01*
X018852Y020482D01*
X018997Y020337D01*
X019121Y020286D01*
X019245Y020286D01*
X019245Y020127D01*
X019233Y020098D01*
X019233Y020048D01*
X019205Y019981D01*
X019205Y019718D01*
X018943Y019718D01*
X018937Y019716D01*
X018910Y019727D01*
X018363Y019727D01*
X018258Y019683D01*
X018177Y019603D01*
X018172Y019591D01*
X018016Y019591D01*
X018016Y019292D01*
X017919Y019292D01*
X017919Y019195D01*
X018016Y019195D01*
X018016Y018897D01*
X018172Y018897D01*
X018177Y018885D01*
X018258Y018804D01*
X018363Y018761D01*
X018910Y018761D01*
X018937Y018772D01*
X018943Y018769D01*
X019433Y018769D01*
X019462Y018781D01*
X019518Y018726D01*
X019530Y018721D01*
X019530Y018564D01*
X019828Y018564D01*
X019828Y018467D01*
X019530Y018467D01*
X019530Y018279D01*
X019540Y018241D01*
X019560Y018207D01*
X019588Y018179D01*
X019622Y018159D01*
X019660Y018149D01*
X019828Y018149D01*
X019828Y018467D01*
X019925Y018467D01*
X019925Y018149D01*
X020093Y018149D01*
X020131Y018159D01*
X020166Y018179D01*
X020194Y018207D01*
X020213Y018241D01*
X020223Y018279D01*
X020223Y018467D01*
X019925Y018467D01*
X019925Y018564D01*
X019828Y018564D01*
X019828Y018682D01*
X019925Y018682D01*
X019925Y018564D01*
X020223Y018564D01*
X020223Y018721D01*
X020236Y018726D01*
X020280Y018769D01*
X020712Y018769D01*
X020772Y018794D01*
X020772Y018419D01*
X020815Y018314D01*
X020896Y018233D01*
X020908Y018228D01*
X020908Y018143D01*
X020419Y018143D01*
X020314Y018100D01*
X020233Y018019D01*
X020190Y017914D01*
X020190Y017651D01*
X019927Y017651D01*
X019859Y017623D01*
X015654Y017623D01*
X015490Y017555D01*
X015364Y017430D01*
X014897Y016962D01*
X014612Y016962D01*
X014507Y016919D01*
X014476Y016888D01*
X014451Y016898D01*
X014453Y016899D01*
X014481Y016927D01*
X014501Y016961D01*
X014511Y017000D01*
X014511Y017148D01*
X013602Y017148D01*
X013602Y017206D01*
X014511Y017206D01*
X014511Y017354D01*
X014509Y017361D01*
X014523Y017367D01*
X014604Y017448D01*
X014647Y017553D01*
X014647Y017982D01*
X014604Y018087D01*
X014589Y018102D01*
X014604Y018117D01*
X014647Y018222D01*
X014647Y018651D01*
X014604Y018756D01*
X014523Y018837D01*
X014418Y018880D01*
X012729Y018880D01*
X012624Y018837D01*
X012580Y018793D01*
X012044Y018793D01*
X012044Y019416D01*
X012107Y019352D01*
X012107Y019352D01*
X012210Y019250D01*
X012304Y019156D01*
X012428Y019104D01*
X012542Y019104D01*
X012543Y019101D01*
X012624Y019021D01*
X012729Y018977D01*
X014418Y018977D01*
X014523Y019021D01*
X014604Y019101D01*
X014647Y019207D01*
X014647Y019635D01*
X014604Y019741D01*
X014523Y019821D01*
X014418Y019865D01*
X012729Y019865D01*
X012634Y019825D01*
X012634Y020001D01*
X012729Y019961D01*
X014418Y019961D01*
X014523Y020005D01*
X014604Y020086D01*
X014647Y020191D01*
X014647Y020620D01*
X014604Y020725D01*
X014523Y020805D01*
X014418Y020849D01*
X012772Y020849D01*
X012772Y021260D01*
X012729Y021366D01*
X012648Y021446D01*
X012543Y021490D01*
X012182Y021490D01*
X012182Y021654D01*
X012138Y021759D01*
X012058Y021840D01*
X011952Y021883D01*
X011462Y021883D01*
X011357Y021840D01*
X011277Y021759D01*
X011233Y021654D01*
X011233Y021164D01*
X011277Y021059D01*
X011357Y020978D01*
X011371Y020973D01*
X011371Y018586D01*
X011422Y018463D01*
X011517Y018368D01*
X011619Y018266D01*
X011714Y018171D01*
X011837Y018120D01*
X012542Y018120D01*
X012543Y018117D01*
X012558Y018102D01*
X012543Y018087D01*
X012500Y017982D01*
X012500Y017553D01*
X012543Y017448D01*
X012624Y017367D01*
X012638Y017361D01*
X012636Y017354D01*
X012636Y017206D01*
X013545Y017206D01*
X013545Y017148D01*
X012636Y017148D01*
X012636Y017000D01*
X012646Y016961D01*
X012666Y016927D01*
X012694Y016899D01*
X012696Y016898D01*
X012624Y016868D01*
X012560Y016804D01*
X011818Y016804D01*
X011694Y016753D01*
X011517Y016576D01*
X011422Y016481D01*
X011371Y016358D01*
X011371Y015546D01*
X011357Y015541D01*
X011277Y015460D01*
X011233Y015355D01*
X011233Y014865D01*
X011277Y014760D01*
X011357Y014679D01*
X011462Y014636D01*
X011952Y014636D01*
X012058Y014679D01*
X012138Y014760D01*
X012182Y014865D01*
X012182Y015355D01*
X012138Y015460D01*
X012058Y015541D01*
X012044Y015546D01*
X012044Y016132D01*
X012560Y016132D01*
X012624Y016068D01*
X012729Y016024D01*
X014415Y016024D01*
X014383Y015946D01*
X014383Y015849D01*
X012729Y015849D01*
X012624Y015805D01*
X012543Y015725D01*
X012500Y015620D01*
X012500Y015191D01*
X012543Y015086D01*
X012624Y015005D01*
X012729Y014961D01*
X013841Y014961D01*
X013880Y014922D02*
X012182Y014922D01*
X012182Y015021D02*
X012608Y015021D01*
X012530Y015119D02*
X012182Y015119D01*
X012182Y015218D02*
X012500Y015218D01*
X012500Y015316D02*
X012182Y015316D01*
X012157Y015415D02*
X012500Y015415D01*
X012500Y015513D02*
X012085Y015513D01*
X012044Y015612D02*
X012500Y015612D01*
X012537Y015710D02*
X012044Y015710D01*
X012044Y015809D02*
X012632Y015809D01*
X012495Y015996D02*
X012495Y014421D01*
X010133Y014421D01*
X011250Y014824D02*
X002151Y014824D01*
X002151Y014922D02*
X011233Y014922D01*
X011233Y015021D02*
X002151Y015021D01*
X002151Y015119D02*
X011233Y015119D01*
X011233Y015218D02*
X002151Y015218D01*
X002151Y015316D02*
X011233Y015316D01*
X011258Y015415D02*
X002151Y015415D01*
X002151Y015513D02*
X011330Y015513D01*
X011371Y015612D02*
X002151Y015612D01*
X002151Y015710D02*
X011371Y015710D01*
X011371Y015809D02*
X002151Y015809D01*
X002151Y015907D02*
X011371Y015907D01*
X011371Y016006D02*
X002151Y016006D01*
X002151Y016104D02*
X011371Y016104D01*
X011371Y016203D02*
X002151Y016203D01*
X002151Y016301D02*
X011371Y016301D01*
X011388Y016400D02*
X002151Y016400D01*
X002151Y016498D02*
X011439Y016498D01*
X011538Y016597D02*
X002151Y016597D01*
X002151Y016695D02*
X011636Y016695D01*
X011792Y016794D02*
X002151Y016794D01*
X002151Y016892D02*
X012682Y016892D01*
X012638Y016991D02*
X002151Y016991D01*
X002151Y017089D02*
X012636Y017089D01*
X012636Y017286D02*
X002151Y017286D01*
X002151Y017188D02*
X013545Y017188D01*
X013573Y017177D02*
X014365Y017177D01*
X015251Y018063D01*
X018007Y018063D01*
X019188Y018063D01*
X019188Y018456D01*
X019385Y018653D01*
X019837Y018653D01*
X019877Y018515D01*
X020014Y018653D01*
X020723Y018653D01*
X020762Y018693D01*
X020762Y018456D01*
X020959Y018260D01*
X021353Y018260D01*
X021747Y018260D01*
X022140Y018653D01*
X022140Y018515D01*
X022633Y018122D01*
X023026Y018122D01*
X022928Y018023D01*
X022829Y017177D01*
X021156Y015700D01*
X020172Y015602D01*
X019645Y015809D02*
X023072Y015809D01*
X023072Y015907D02*
X019662Y015907D01*
X019662Y015849D02*
X019662Y016339D01*
X019618Y016444D01*
X019538Y016525D01*
X019433Y016569D01*
X018943Y016569D01*
X018937Y016566D01*
X018910Y016577D01*
X018363Y016577D01*
X018258Y016534D01*
X018177Y016453D01*
X018172Y016441D01*
X018016Y016441D01*
X018016Y016143D01*
X017919Y016143D01*
X017919Y016441D01*
X017731Y016441D01*
X017693Y016431D01*
X017659Y016411D01*
X017631Y016383D01*
X017611Y016349D01*
X017601Y016311D01*
X017601Y016143D01*
X017919Y016143D01*
X017919Y016046D01*
X017601Y016046D01*
X017601Y015878D01*
X017611Y015839D01*
X017631Y015805D01*
X017659Y015777D01*
X017693Y015758D01*
X017731Y015747D01*
X017919Y015747D01*
X017919Y016046D01*
X018016Y016046D01*
X018016Y015747D01*
X018172Y015747D01*
X018177Y015735D01*
X018258Y015655D01*
X018363Y015611D01*
X018910Y015611D01*
X018937Y015622D01*
X018943Y015620D01*
X019433Y015620D01*
X019538Y015663D01*
X019618Y015744D01*
X019662Y015849D01*
X019662Y016006D02*
X023072Y016006D01*
X023072Y016104D02*
X019662Y016104D01*
X019662Y016203D02*
X023072Y016203D01*
X023072Y016301D02*
X019662Y016301D01*
X019637Y016400D02*
X023072Y016400D01*
X023072Y016498D02*
X019565Y016498D01*
X019581Y016488D02*
X019385Y016685D01*
X019188Y016685D01*
X018203Y016685D01*
X017967Y016449D01*
X017967Y016094D01*
X014660Y016094D01*
X014463Y015996D01*
X012495Y015996D01*
X012588Y016104D02*
X012044Y016104D01*
X012044Y016006D02*
X014408Y016006D01*
X014383Y015907D02*
X012044Y015907D01*
X011707Y016291D02*
X011707Y015110D01*
X012165Y014824D02*
X013979Y014824D01*
X013602Y014725D02*
X013545Y014725D01*
X013545Y014627D02*
X013602Y014627D01*
X013602Y014528D02*
X013545Y014528D01*
X013545Y014430D02*
X002151Y014430D01*
X002151Y014528D02*
X012636Y014528D01*
X012644Y014627D02*
X002151Y014627D01*
X002151Y014725D02*
X011311Y014725D01*
X012104Y014725D02*
X012754Y014725D01*
X012636Y014392D02*
X012636Y014244D01*
X012646Y014206D01*
X012666Y014171D01*
X012694Y014143D01*
X012728Y014124D01*
X012766Y014113D01*
X013545Y014113D01*
X013545Y014392D01*
X012636Y014392D01*
X012636Y014331D02*
X002151Y014331D01*
X002151Y014233D02*
X012639Y014233D01*
X012710Y014134D02*
X002151Y014134D01*
X002151Y014036D02*
X015456Y014036D01*
X015554Y013937D02*
X014471Y013937D01*
X014600Y013839D02*
X015653Y013839D01*
X015357Y014134D02*
X014437Y014134D01*
X014508Y014233D02*
X015259Y014233D01*
X015160Y014331D02*
X014511Y014331D01*
X014511Y014528D02*
X014963Y014528D01*
X015062Y014430D02*
X013602Y014430D01*
X013573Y014421D02*
X012495Y014421D01*
X012676Y013937D02*
X002151Y013937D01*
X002151Y013839D02*
X012547Y013839D01*
X012504Y013740D02*
X002151Y013740D01*
X002151Y013642D02*
X012500Y013642D01*
X012500Y013543D02*
X002151Y013543D01*
X002151Y013445D02*
X012500Y013445D01*
X012500Y013346D02*
X002151Y013346D01*
X002151Y013248D02*
X012522Y013248D01*
X012537Y013149D02*
X002151Y013149D01*
X002151Y013051D02*
X012500Y013051D01*
X012500Y012952D02*
X002151Y012952D01*
X002151Y012854D02*
X012500Y012854D01*
X012500Y012755D02*
X002151Y012755D01*
X002151Y012657D02*
X003780Y012657D01*
X003644Y012558D02*
X002151Y012558D01*
X002151Y012460D02*
X003550Y012460D01*
X003509Y012361D02*
X002151Y012361D01*
X002151Y012263D02*
X003468Y012263D01*
X003464Y012164D02*
X002151Y012164D01*
X002151Y012066D02*
X003464Y012066D01*
X003487Y011967D02*
X002151Y011967D01*
X002151Y011869D02*
X003528Y011869D01*
X003591Y011770D02*
X002151Y011770D01*
X002151Y011672D02*
X003689Y011672D01*
X002151Y011672D01*
X002151Y011573D02*
X003889Y011573D01*
X002151Y011573D01*
X002151Y011475D02*
X004169Y011475D01*
X002151Y011475D01*
X002151Y011376D02*
X004169Y011376D01*
X002151Y011376D01*
X002151Y011278D02*
X004669Y011278D01*
X002151Y011278D01*
X002151Y011179D02*
X004169Y011179D01*
X002151Y011179D01*
X002151Y011081D02*
X004169Y011081D01*
X002151Y011081D01*
X002151Y010982D02*
X004169Y010982D01*
X002151Y010982D01*
X002151Y010884D02*
X004169Y010884D01*
X002151Y010884D01*
X002151Y010785D02*
X004196Y010785D01*
X002151Y010785D01*
X002151Y010687D02*
X005448Y010687D01*
X002151Y010687D01*
X002151Y010588D02*
X005374Y010588D01*
X002151Y010588D01*
X002151Y010490D02*
X005309Y010490D01*
X005253Y010391D02*
X002151Y010391D01*
X002151Y010293D02*
X005207Y010293D01*
X005168Y010194D02*
X002151Y010194D01*
X002151Y010096D02*
X005134Y010096D01*
X005107Y009997D02*
X002151Y009997D01*
X002151Y009899D02*
X005088Y009899D01*
X005072Y009800D02*
X002151Y009800D01*
X002151Y009702D02*
X005064Y009702D01*
X005063Y009505D02*
X002151Y009505D01*
X002151Y009603D02*
X006736Y009603D01*
X006736Y009505D02*
X006836Y009505D01*
X006836Y009603D02*
X015054Y009603D01*
X015054Y009505D02*
X008509Y009505D01*
X008501Y009406D02*
X015054Y009406D01*
X015054Y009308D02*
X010515Y009308D01*
X010483Y009340D02*
X010378Y009383D01*
X009888Y009383D01*
X009782Y009340D01*
X009702Y009259D01*
X009658Y009154D01*
X009658Y009107D01*
X009548Y008997D01*
X009454Y008903D01*
X009403Y008779D01*
X009403Y008690D01*
X009363Y008787D01*
X009282Y008867D01*
X009177Y008911D01*
X008687Y008911D01*
X008582Y008867D01*
X008501Y008787D01*
X008457Y008682D01*
X008457Y008192D01*
X008486Y008124D01*
X008486Y007559D01*
X008376Y007449D01*
X008376Y007470D01*
X008044Y007802D01*
X007575Y007802D01*
X007243Y007470D01*
X007243Y007001D01*
X007501Y006744D01*
X007243Y006486D01*
X007243Y006017D01*
X007575Y005685D01*
X008044Y005685D01*
X008223Y005864D01*
X008402Y005685D01*
X008871Y005685D01*
X009148Y005963D01*
X009426Y005685D01*
X009895Y005685D01*
X010170Y005961D01*
X010309Y005822D01*
X010448Y005822D01*
X010448Y006213D01*
X010525Y006213D01*
X010525Y005822D01*
X010665Y005822D01*
X010917Y006074D01*
X010917Y006213D01*
X010525Y006213D01*
X010525Y006290D01*
X010917Y006290D01*
X010917Y006430D01*
X010697Y006650D01*
X010721Y006650D01*
X011053Y006982D01*
X011053Y007371D01*
X011059Y007386D01*
X011059Y008081D01*
X012649Y008081D01*
X012655Y008067D01*
X012735Y007986D01*
X012840Y007943D01*
X013330Y007943D01*
X013436Y007986D01*
X013516Y008067D01*
X013560Y008172D01*
X013560Y008662D01*
X013516Y008767D01*
X013436Y008848D01*
X013330Y008891D01*
X012840Y008891D01*
X012735Y008848D01*
X012655Y008767D01*
X012649Y008753D01*
X010656Y008753D01*
X010607Y008733D01*
X010607Y009154D01*
X010563Y009259D01*
X010483Y009340D01*
X010584Y009209D02*
X015054Y009209D01*
X015054Y009111D02*
X010607Y009111D01*
X010607Y009012D02*
X015054Y009012D01*
X015054Y008914D02*
X010607Y008914D01*
X010607Y008815D02*
X012703Y008815D01*
X013085Y008417D02*
X010723Y008417D01*
X010723Y007452D01*
X010487Y007216D01*
X010917Y006845D02*
X012718Y006845D01*
X012739Y006825D02*
X012792Y006786D01*
X012851Y006756D01*
X012914Y006736D01*
X012979Y006725D01*
X013242Y006725D01*
X013242Y007105D01*
X012593Y007105D01*
X012602Y007047D01*
X012623Y006984D01*
X012653Y006925D01*
X012692Y006872D01*
X012739Y006825D01*
X012644Y006944D02*
X011015Y006944D01*
X011053Y007042D02*
X012604Y007042D01*
X012602Y007239D02*
X011053Y007239D01*
X011053Y007141D02*
X013242Y007141D01*
X013242Y007185D02*
X013242Y007565D01*
X012979Y007565D01*
X012914Y007555D01*
X012851Y007535D01*
X012709Y007436D02*
X011059Y007436D01*
X011053Y007338D02*
X012639Y007338D01*
X013242Y007338D02*
X013322Y007338D01*
X013322Y007436D02*
X013242Y007436D01*
X013242Y007535D02*
X013322Y007535D01*
X013322Y007565D02*
X013322Y007185D01*
X013242Y007185D01*
X013242Y007239D02*
X013322Y007239D01*
X013322Y007042D02*
X013242Y007042D01*
X013242Y006944D02*
X013322Y006944D01*
X013322Y006845D02*
X013242Y006845D01*
X013242Y006747D02*
X013322Y006747D01*
X012880Y006747D02*
X010818Y006747D01*
X010698Y006648D02*
X012773Y006648D01*
X012630Y006550D02*
X010797Y006550D01*
X010895Y006451D02*
X012537Y006451D01*
X012496Y006353D02*
X010917Y006353D01*
X010917Y006156D02*
X012456Y006156D01*
X012456Y006254D02*
X010525Y006254D01*
X010525Y006156D02*
X010448Y006156D01*
X010448Y006057D02*
X010525Y006057D01*
X010525Y005959D02*
X010448Y005959D01*
X010448Y005860D02*
X010525Y005860D01*
X010704Y005860D02*
X011520Y005860D01*
X011328Y005762D02*
X009971Y005762D01*
X010069Y005860D02*
X010270Y005860D01*
X010172Y005959D02*
X010168Y005959D01*
X009739Y006330D02*
X009660Y006252D01*
X009739Y006330D02*
X009739Y008712D01*
X009936Y008909D01*
X010133Y008909D01*
X009658Y009111D02*
X008441Y009111D01*
X008468Y009209D02*
X009681Y009209D01*
X009750Y009308D02*
X008486Y009308D01*
X008408Y009012D02*
X009563Y009012D01*
X009465Y008914D02*
X008370Y008914D01*
X008324Y008815D02*
X008529Y008815D01*
X008472Y008717D02*
X008269Y008717D01*
X008206Y008618D02*
X008457Y008618D01*
X008457Y008520D02*
X008133Y008520D01*
X008048Y008421D02*
X008457Y008421D01*
X008457Y008323D02*
X007949Y008323D01*
X007831Y008224D02*
X008457Y008224D01*
X008485Y008126D02*
X007685Y008126D01*
X007499Y008027D02*
X008486Y008027D01*
X008486Y007929D02*
X007220Y007929D01*
X007505Y007732D02*
X006831Y007732D01*
X006733Y007830D02*
X008486Y007830D01*
X008486Y007732D02*
X008115Y007732D01*
X008213Y007633D02*
X008486Y007633D01*
X008462Y007535D02*
X008312Y007535D01*
X007406Y007633D02*
X006930Y007633D01*
X007028Y007535D02*
X007308Y007535D01*
X007243Y007436D02*
X007070Y007436D01*
X007070Y007338D02*
X007243Y007338D01*
X007243Y007239D02*
X007070Y007239D01*
X007070Y007141D02*
X007243Y007141D01*
X007243Y007042D02*
X007070Y007042D01*
X007070Y006944D02*
X007301Y006944D01*
X007400Y006845D02*
X007070Y006845D01*
X007070Y006747D02*
X007498Y006747D01*
X007406Y006648D02*
X007070Y006648D01*
X007070Y006550D02*
X007307Y006550D01*
X007243Y006451D02*
X007052Y006451D01*
X006953Y006353D02*
X007243Y006353D01*
X007243Y006254D02*
X006855Y006254D01*
X006756Y006156D02*
X007243Y006156D01*
X007243Y006057D02*
X006658Y006057D01*
X006559Y005959D02*
X007302Y005959D01*
X007400Y005860D02*
X006757Y005860D01*
X006741Y005867D02*
X006635Y005895D01*
X006526Y005910D01*
X006521Y005910D01*
X006521Y005121D01*
X007310Y005121D01*
X007310Y005126D01*
X007296Y005235D01*
X007267Y005341D01*
X007225Y005442D01*
X007170Y005538D01*
X007103Y005625D01*
X007025Y005703D01*
X006938Y005770D01*
X006843Y005825D01*
X006741Y005867D01*
X006521Y005860D02*
X006461Y005860D01*
X006421Y005762D02*
X006521Y005762D01*
X006521Y005663D02*
X006421Y005663D01*
X006421Y005565D02*
X006521Y005565D01*
X006521Y005466D02*
X006421Y005466D01*
X006421Y005368D02*
X006521Y005368D01*
X006521Y005269D02*
X006421Y005269D01*
X006421Y005171D02*
X006521Y005171D01*
X006421Y005072D02*
X004690Y005072D01*
X004592Y004974D02*
X005638Y004974D01*
X005655Y004875D02*
X004493Y004875D01*
X004395Y004777D02*
X005685Y004777D01*
X005729Y004678D02*
X002151Y004678D01*
X002151Y004580D02*
X005790Y004580D01*
X005874Y004481D02*
X002151Y004481D01*
X002151Y004383D02*
X005989Y004383D01*
X006177Y004284D02*
X002151Y004284D01*
X002151Y004777D02*
X003332Y004777D01*
X003234Y004875D02*
X002151Y004875D01*
X002151Y004974D02*
X003135Y004974D01*
X003037Y005072D02*
X002151Y005072D01*
X002151Y005171D02*
X002938Y005171D01*
X002840Y005269D02*
X002151Y005269D01*
X002151Y005368D02*
X002763Y005368D01*
X002763Y005466D02*
X002151Y005466D01*
X002151Y005565D02*
X002763Y005565D01*
X002763Y005663D02*
X002151Y005663D01*
X002151Y005762D02*
X003813Y005762D01*
X003813Y005851D02*
X002763Y005851D01*
X002763Y006257D01*
X003408Y006901D01*
X003813Y006901D01*
X003813Y005851D01*
X003813Y005860D02*
X003913Y005860D01*
X003913Y005762D02*
X005304Y005762D01*
X005206Y005860D02*
X004963Y005860D01*
X004963Y005959D02*
X005107Y005959D01*
X005009Y006057D02*
X004963Y006057D01*
X004963Y005663D02*
X005877Y005663D01*
X005793Y005565D02*
X004963Y005565D01*
X004963Y005466D02*
X005731Y005466D01*
X005686Y005368D02*
X004963Y005368D01*
X004887Y005269D02*
X005656Y005269D01*
X005638Y005171D02*
X004789Y005171D01*
X003913Y005171D02*
X003813Y005171D01*
X003813Y005269D02*
X003913Y005269D01*
X003913Y005368D02*
X003813Y005368D01*
X003813Y005466D02*
X003913Y005466D01*
X003913Y005565D02*
X003813Y005565D01*
X003813Y005663D02*
X003913Y005663D01*
X003913Y005959D02*
X003813Y005959D01*
X003813Y006057D02*
X003913Y006057D01*
X003913Y006156D02*
X003813Y006156D01*
X003813Y006254D02*
X003913Y006254D01*
X003913Y006353D02*
X003813Y006353D01*
X003813Y006451D02*
X003913Y006451D01*
X003913Y006550D02*
X003813Y006550D01*
X003813Y006648D02*
X003913Y006648D01*
X003913Y006747D02*
X003813Y006747D01*
X003813Y006845D02*
X003913Y006845D01*
X003352Y006845D02*
X002151Y006845D01*
X002151Y006747D02*
X003253Y006747D01*
X003155Y006648D02*
X002151Y006648D01*
X002151Y006550D02*
X003056Y006550D01*
X002958Y006451D02*
X002151Y006451D01*
X002151Y006353D02*
X002859Y006353D01*
X002763Y006254D02*
X002151Y006254D01*
X002151Y006156D02*
X002763Y006156D01*
X002763Y006057D02*
X002151Y006057D01*
X002151Y005959D02*
X002763Y005959D01*
X002763Y005860D02*
X002151Y005860D01*
X002151Y006944D02*
X003332Y006944D01*
X003234Y007042D02*
X002151Y007042D01*
X002151Y007141D02*
X003135Y007141D01*
X003037Y007239D02*
X002151Y007239D01*
X002151Y007338D02*
X002938Y007338D01*
X002840Y007436D02*
X002151Y007436D01*
X002151Y007535D02*
X002741Y007535D01*
X002643Y007633D02*
X002151Y007633D01*
X002151Y007732D02*
X002627Y007732D01*
X002627Y007830D02*
X002151Y007830D01*
X002151Y007929D02*
X002627Y007929D01*
X002627Y008027D02*
X002151Y008027D01*
X002151Y008126D02*
X002627Y008126D01*
X002627Y008224D02*
X002151Y008224D01*
X002151Y008323D02*
X002627Y008323D01*
X002627Y008421D02*
X002151Y008421D01*
X002151Y008520D02*
X002627Y008520D01*
X002627Y008618D02*
X002151Y008618D01*
X002151Y008717D02*
X002671Y008717D01*
X002769Y008815D02*
X002151Y008815D01*
X002151Y008914D02*
X002868Y008914D01*
X002966Y009012D02*
X002151Y009012D01*
X002151Y009111D02*
X003065Y009111D01*
X003163Y009209D02*
X002151Y009209D01*
X002151Y009308D02*
X003262Y009308D01*
X002151Y009406D02*
X005071Y009406D01*
X005086Y009308D02*
X004465Y009308D01*
X004564Y009209D02*
X005105Y009209D01*
X005131Y009111D02*
X004662Y009111D01*
X004761Y009012D02*
X005164Y009012D01*
X005202Y008914D02*
X004859Y008914D01*
X004958Y008815D02*
X005248Y008815D01*
X005303Y008717D02*
X005056Y008717D01*
X005100Y008618D02*
X005367Y008618D01*
X005439Y008520D02*
X005100Y008520D01*
X005100Y008421D02*
X005524Y008421D01*
X005623Y008323D02*
X005100Y008323D01*
X005100Y008224D02*
X005741Y008224D01*
X005230Y008126D02*
X005100Y008126D01*
X005100Y008027D02*
X005131Y008027D01*
X004597Y007141D02*
X004591Y007141D01*
X004597Y007042D02*
X004493Y007042D01*
X004394Y006944D02*
X004597Y006944D01*
X004597Y006845D02*
X004375Y006845D01*
X004473Y006747D02*
X004597Y006747D01*
X004597Y006648D02*
X004572Y006648D01*
X003913Y005072D02*
X003813Y005072D01*
X003813Y004974D02*
X003913Y004974D01*
X003913Y004875D02*
X003813Y004875D01*
X003813Y004777D02*
X003913Y004777D01*
X006953Y004383D02*
X008395Y004383D01*
X008354Y004481D02*
X007068Y004481D01*
X007152Y004580D02*
X008327Y004580D01*
X008419Y005171D02*
X007304Y005171D01*
X007286Y005269D02*
X008485Y005269D01*
X008574Y005368D02*
X007256Y005368D01*
X007211Y005466D02*
X008701Y005466D01*
X008926Y005565D02*
X007149Y005565D01*
X007065Y005663D02*
X011212Y005663D01*
X011127Y005565D02*
X009370Y005565D01*
X009198Y005565D02*
X009098Y005565D01*
X009098Y005466D02*
X009198Y005466D01*
X009198Y005368D02*
X009098Y005368D01*
X009098Y005269D02*
X009198Y005269D01*
X009198Y005171D02*
X009098Y005171D01*
X009098Y005072D02*
X009198Y005072D01*
X009198Y004974D02*
X009098Y004974D01*
X009098Y004678D02*
X009198Y004678D01*
X009198Y004580D02*
X009098Y004580D01*
X009098Y004481D02*
X009198Y004481D01*
X009198Y004383D02*
X009098Y004383D01*
X009098Y004284D02*
X009198Y004284D01*
X009198Y004186D02*
X009098Y004186D01*
X009098Y004087D02*
X009198Y004087D01*
X009198Y003989D02*
X009098Y003989D01*
X009812Y005269D02*
X010990Y005269D01*
X011021Y005368D02*
X009723Y005368D01*
X009595Y005466D02*
X011065Y005466D01*
X010802Y005959D02*
X012487Y005959D01*
X012456Y006057D02*
X010901Y006057D01*
X009349Y005762D02*
X008947Y005762D01*
X009046Y005860D02*
X009251Y005860D01*
X009152Y005959D02*
X009144Y005959D01*
X008326Y005762D02*
X008121Y005762D01*
X008219Y005860D02*
X008227Y005860D01*
X007499Y005762D02*
X006949Y005762D01*
X006836Y007929D02*
X006736Y007929D01*
X006736Y008027D02*
X006836Y008027D01*
X006836Y008126D02*
X006736Y008126D01*
X006736Y008224D02*
X006836Y008224D01*
X006836Y008323D02*
X006736Y008323D01*
X006736Y008421D02*
X006836Y008421D01*
X006836Y008520D02*
X006736Y008520D01*
X006736Y008618D02*
X006836Y008618D01*
X006836Y008717D02*
X006736Y008717D01*
X006736Y008815D02*
X006836Y008815D01*
X006836Y008914D02*
X006736Y008914D01*
X006736Y009012D02*
X006836Y009012D01*
X006836Y009111D02*
X006736Y009111D01*
X006736Y009209D02*
X006836Y009209D01*
X006836Y009308D02*
X006736Y009308D01*
X006736Y009406D02*
X006836Y009406D01*
X006836Y009702D02*
X006736Y009702D01*
X006736Y009800D02*
X006836Y009800D01*
X006836Y009899D02*
X006736Y009899D01*
X006736Y009997D02*
X006836Y009997D01*
X006836Y010096D02*
X006736Y010096D01*
X006736Y010194D02*
X006836Y010194D01*
X006836Y010293D02*
X006736Y010293D01*
X006736Y010391D02*
X006836Y010391D01*
X006836Y010490D02*
X006736Y010490D01*
X006736Y010588D02*
X006836Y010588D01*
X006736Y010588D01*
X006736Y010687D02*
X006836Y010687D01*
X006736Y010687D01*
X006736Y010785D02*
X006836Y010785D01*
X006736Y010785D01*
X006736Y010884D02*
X006836Y010884D01*
X006736Y010884D01*
X006736Y010982D02*
X006836Y010982D01*
X006736Y010982D01*
X006736Y011081D02*
X006836Y011081D01*
X006736Y011081D01*
X006736Y011179D02*
X006836Y011179D01*
X006736Y011179D01*
X006736Y011278D02*
X006836Y011278D01*
X006736Y011278D01*
X006390Y011278D02*
X004769Y011278D01*
X006390Y011278D01*
X006096Y011179D02*
X005269Y011179D01*
X006096Y011179D01*
X005904Y011081D02*
X005269Y011081D01*
X005904Y011081D01*
X005756Y010982D02*
X005269Y010982D01*
X005756Y010982D01*
X005635Y010884D02*
X005269Y010884D01*
X005635Y010884D01*
X005534Y010785D02*
X005243Y010785D01*
X005534Y010785D01*
X005408Y011173D02*
X005408Y011271D01*
X005269Y011376D02*
X012591Y011376D01*
X005269Y011376D01*
X005269Y011475D02*
X012523Y011475D01*
X005269Y011475D01*
X005269Y011573D02*
X012500Y011573D01*
X005269Y011573D01*
X005269Y011672D02*
X012500Y011672D01*
X005269Y011672D01*
X005232Y011770D02*
X012500Y011770D01*
X012500Y011869D02*
X004564Y011869D01*
X004605Y011967D02*
X012504Y011967D01*
X012546Y012066D02*
X004627Y012066D01*
X004627Y012164D02*
X012673Y012164D01*
X012610Y012460D02*
X004542Y012460D01*
X004583Y012361D02*
X016445Y012361D01*
X016343Y012460D02*
X014537Y012460D01*
X014617Y012558D02*
X016244Y012558D01*
X016146Y012657D02*
X014647Y012657D01*
X014647Y012755D02*
X016047Y012755D01*
X015949Y012854D02*
X014647Y012854D01*
X014647Y012952D02*
X015850Y012952D01*
X015752Y013051D02*
X014647Y013051D01*
X014713Y012263D02*
X004623Y012263D01*
X004448Y012558D02*
X012530Y012558D01*
X012500Y012657D02*
X004312Y012657D01*
X004669Y011770D02*
X004769Y011770D01*
X004769Y011672D02*
X004669Y011672D01*
X004669Y011573D02*
X004769Y011573D01*
X004769Y011475D02*
X004669Y011475D01*
X004669Y011376D02*
X004769Y011376D01*
X004769Y011179D02*
X004669Y011179D01*
X004769Y011179D01*
X004769Y011081D02*
X004669Y011081D01*
X004769Y011081D01*
X004769Y010982D02*
X004669Y010982D01*
X004769Y010982D01*
X004769Y010884D02*
X004669Y010884D01*
X004769Y010884D01*
X004769Y010785D02*
X004669Y010785D01*
X004769Y010785D01*
X007182Y011278D02*
X009063Y011278D01*
X007182Y011278D01*
X007477Y011179D02*
X008993Y011179D01*
X007477Y011179D01*
X007668Y011081D02*
X008969Y011081D01*
X007668Y011081D01*
X007816Y010982D02*
X008969Y010982D01*
X007816Y010982D01*
X007937Y010884D02*
X008969Y010884D01*
X007937Y010884D01*
X008038Y010785D02*
X008969Y010785D01*
X008038Y010785D01*
X008124Y010687D02*
X008969Y010687D01*
X008124Y010687D01*
X008198Y010588D02*
X008988Y010588D01*
X008198Y010588D01*
X008263Y010490D02*
X009050Y010490D01*
X009444Y010878D02*
X014562Y010878D01*
X014181Y011278D02*
X009824Y011278D01*
X014181Y011278D01*
X014474Y012164D02*
X014631Y012164D01*
X015054Y011862D02*
X015054Y011370D01*
X015636Y010787D01*
X015636Y010122D01*
X015050Y009899D02*
X008484Y009899D01*
X008500Y009800D02*
X015054Y009800D01*
X015054Y009702D02*
X008508Y009702D01*
X008465Y009997D02*
X012988Y009997D01*
X012925Y010096D02*
X008438Y010096D01*
X008405Y010194D02*
X012906Y010194D01*
X012906Y010293D02*
X008365Y010293D01*
X008319Y010391D02*
X012906Y010391D01*
X012906Y010490D02*
X009837Y010490D01*
X009418Y008815D02*
X009334Y008815D01*
X009392Y008717D02*
X009403Y008717D01*
X011059Y008027D02*
X012694Y008027D01*
X013322Y007565D02*
X013585Y007565D01*
X013651Y007555D01*
X013713Y007535D01*
X013855Y007436D02*
X015054Y007436D01*
X015050Y007338D02*
X013926Y007338D01*
X014660Y007039D02*
X014660Y008811D01*
X014971Y009122D01*
X015636Y009122D01*
X015054Y008815D02*
X013468Y008815D01*
X013537Y008717D02*
X015054Y008717D01*
X015054Y008618D02*
X013560Y008618D01*
X013560Y008520D02*
X015054Y008520D01*
X015054Y008421D02*
X013560Y008421D01*
X013560Y008323D02*
X015050Y008323D01*
X015050Y008224D02*
X013560Y008224D01*
X013540Y008126D02*
X015050Y008126D01*
X015050Y008027D02*
X013476Y008027D01*
X015050Y007929D02*
X011059Y007929D01*
X011059Y007830D02*
X015054Y007830D01*
X015054Y007732D02*
X011059Y007732D01*
X013773Y009997D02*
X014464Y009997D01*
X014857Y010386D02*
X013381Y010386D01*
X015424Y011475D02*
X019317Y011475D01*
X019304Y011462D02*
X019332Y011490D01*
X019366Y011510D01*
X019404Y011520D01*
X019592Y011520D01*
X019592Y011221D01*
X019274Y011221D01*
X019274Y011390D01*
X019284Y011428D01*
X019304Y011462D01*
X019274Y011376D02*
X015523Y011376D01*
X015621Y011278D02*
X019274Y011278D01*
X019274Y011081D02*
X015818Y011081D01*
X015720Y011179D02*
X019592Y011179D01*
X019640Y011173D02*
X018932Y011035D01*
X018400Y011567D01*
X018400Y011862D01*
X018892Y011862D01*
X018991Y011665D01*
X019581Y011763D01*
X020172Y012157D01*
X020172Y013043D01*
X020253Y013051D02*
X020973Y013051D01*
X021003Y013080D02*
X020922Y013000D01*
X020915Y012982D01*
X020904Y012993D01*
X020799Y013037D01*
X020309Y013037D01*
X020253Y013014D01*
X020253Y013286D01*
X020321Y013258D01*
X020811Y013258D01*
X020916Y013301D01*
X020996Y013382D01*
X021002Y013396D01*
X021538Y013396D01*
X021538Y013288D01*
X021856Y013288D01*
X021856Y013191D01*
X021538Y013191D01*
X021538Y013124D01*
X021108Y013124D01*
X021003Y013080D01*
X020961Y013346D02*
X021538Y013346D01*
X021538Y013149D02*
X020253Y013149D01*
X020253Y013248D02*
X021856Y013248D01*
X021904Y013240D02*
X021747Y013141D01*
X022140Y012649D02*
X022239Y012649D01*
X022239Y012000D01*
X022722Y011967D02*
X022788Y011967D01*
X022788Y011869D02*
X022722Y011869D01*
X022722Y011770D02*
X022788Y011770D01*
X022788Y011672D02*
X022699Y011672D01*
X022631Y011573D02*
X022788Y011573D01*
X022788Y011475D02*
X022586Y011475D01*
X022633Y011370D02*
X022593Y011330D01*
X021353Y011330D01*
X022239Y011330D01*
X022495Y011330D01*
X022586Y011278D02*
X022788Y011278D01*
X022788Y011376D02*
X022287Y011376D01*
X022190Y011376D02*
X021401Y011376D01*
X021401Y011278D02*
X021305Y011278D01*
X021305Y011179D02*
X021401Y011179D01*
X021401Y011081D02*
X021305Y011081D01*
X021305Y010982D02*
X021401Y010982D01*
X021622Y010982D02*
X021970Y010982D01*
X021896Y011081D02*
X021696Y011081D01*
X021700Y011179D02*
X021892Y011179D01*
X021892Y011278D02*
X021700Y011278D01*
X021700Y011475D02*
X021892Y011475D01*
X021847Y011573D02*
X021745Y011573D01*
X022190Y011278D02*
X022287Y011278D01*
X022287Y011179D02*
X022190Y011179D01*
X022190Y011081D02*
X022287Y011081D01*
X022287Y010982D02*
X022190Y010982D01*
X022508Y010982D02*
X022788Y010982D01*
X022788Y010884D02*
X021099Y010884D01*
X021099Y010785D02*
X022788Y010785D01*
X022799Y010687D02*
X021088Y010687D01*
X021047Y010588D02*
X022840Y010588D01*
X022928Y010490D02*
X022095Y010490D01*
X022217Y010391D02*
X022928Y010391D01*
X023322Y010391D02*
X030025Y010391D01*
X030113Y010779D02*
X031491Y009401D01*
X032770Y009401D01*
X032869Y009303D01*
X033363Y009111D02*
X036680Y009111D01*
X036679Y009209D02*
X033642Y009209D01*
X033792Y009308D02*
X036677Y009308D01*
X036676Y009406D02*
X033844Y009406D01*
X033855Y009505D02*
X036674Y009505D01*
X036672Y009603D02*
X033855Y009603D01*
X033855Y009702D02*
X036671Y009702D01*
X036680Y009702D02*
X033954Y009702D01*
X033957Y009603D02*
X038586Y009603D01*
X038479Y009603D01*
X038479Y009505D02*
X038586Y009505D01*
X033960Y009505D01*
X033963Y009406D02*
X038586Y009406D01*
X038479Y009406D01*
X038479Y009308D02*
X038586Y009308D01*
X033965Y009308D01*
X033968Y009209D02*
X038586Y009209D01*
X038479Y009209D01*
X038479Y009111D02*
X038586Y009111D01*
X033971Y009111D01*
X033974Y009012D02*
X038586Y009012D01*
X038479Y009012D01*
X038479Y009008D02*
X038479Y009871D01*
X038581Y009973D01*
X038581Y010459D01*
X038479Y010561D01*
X038479Y010871D01*
X038581Y010973D01*
X038581Y011459D01*
X038479Y011561D01*
X038479Y011871D01*
X038581Y011973D01*
X038581Y012459D01*
X038479Y012561D01*
X038479Y012871D01*
X038581Y012973D01*
X038581Y013459D01*
X038479Y013561D01*
X038479Y013871D01*
X038581Y013973D01*
X038581Y014459D01*
X038479Y014561D01*
X038479Y014871D01*
X038581Y014973D01*
X038581Y015459D01*
X038479Y015561D01*
X038479Y015871D01*
X038581Y015973D01*
X038581Y016459D01*
X038479Y016561D01*
X038479Y017871D01*
X038581Y017973D01*
X038581Y018459D01*
X038479Y018561D01*
X038479Y018871D01*
X038581Y018973D01*
X038581Y019459D01*
X038479Y019561D01*
X038479Y019834D01*
X034878Y019834D01*
X034878Y020482D01*
X035259Y020482D01*
X035273Y020449D01*
X035353Y020368D01*
X035458Y020325D01*
X035988Y020325D01*
X036093Y020368D01*
X036174Y020449D01*
X036217Y020554D01*
X036217Y021083D01*
X036174Y021189D01*
X036093Y021269D01*
X035988Y021313D01*
X035458Y021313D01*
X035353Y021269D01*
X035273Y021189D01*
X035259Y021155D01*
X034878Y021155D01*
X034288Y021745D01*
X034288Y022096D01*
X034807Y022096D01*
X034912Y022140D01*
X034992Y022220D01*
X035036Y022326D01*
X035036Y022855D01*
X034992Y022960D01*
X034912Y023041D01*
X034878Y023055D01*
X034878Y023829D01*
X035593Y023829D01*
X035598Y023831D01*
X035570Y023781D01*
X035506Y023645D01*
X035455Y023503D01*
X035416Y023358D01*
X035389Y023209D01*
X035376Y023059D01*
X035376Y023034D01*
X037051Y023034D01*
X037051Y022934D01*
X035376Y022934D01*
X035376Y022909D01*
X035389Y022759D01*
X035416Y022610D01*
X035455Y022465D01*
X035506Y022323D01*
X035570Y022187D01*
X035645Y022056D01*
X035731Y021933D01*
X035828Y021818D01*
X035935Y021711D01*
X036050Y021614D01*
X036173Y021528D01*
X036304Y021453D01*
X036440Y021389D01*
X036582Y021337D01*
X036727Y021298D01*
X036876Y021272D01*
X037026Y021259D01*
X037051Y021259D01*
X037051Y022934D01*
X037151Y022934D01*
X037151Y021259D01*
X037176Y021259D01*
X037326Y021272D01*
X037475Y021298D01*
X037620Y021337D01*
X037762Y021389D01*
X037898Y021453D01*
X038029Y021528D01*
X038152Y021614D01*
X038267Y021711D01*
X038374Y021818D01*
X038471Y021933D01*
X038557Y022056D01*
X038586Y022107D01*
X038586Y009008D01*
X038479Y009008D01*
X038586Y008914D02*
X033977Y008914D01*
X033979Y008815D02*
X038586Y008815D01*
X038586Y008717D02*
X033982Y008717D01*
X033985Y008618D02*
X034061Y008618D01*
X027978Y008618D01*
X027978Y008520D02*
X033009Y008520D01*
X032890Y008421D02*
X030358Y008421D01*
X030438Y008323D02*
X032796Y008323D01*
X032756Y008224D02*
X030865Y008224D01*
X030963Y008126D02*
X032749Y008126D01*
X032749Y008027D02*
X031062Y008027D01*
X031160Y007929D02*
X032749Y007929D01*
X032749Y007830D02*
X031259Y007830D01*
X031357Y007732D02*
X032749Y007732D01*
X032749Y007633D02*
X031456Y007633D01*
X031748Y007535D02*
X032749Y007535D01*
X032695Y007436D02*
X031975Y007436D01*
X031589Y007039D02*
X031585Y007035D01*
X031585Y006480D01*
X030732Y007436D02*
X028975Y007436D01*
X028748Y007535D02*
X029604Y007535D01*
X029517Y007633D02*
X028104Y007633D01*
X028006Y007732D02*
X029481Y007732D01*
X029481Y007830D02*
X027978Y007830D01*
X027978Y007929D02*
X029481Y007929D01*
X029481Y008027D02*
X027978Y008027D01*
X027978Y008126D02*
X029481Y008126D01*
X029481Y008224D02*
X027959Y008224D01*
X027962Y008323D02*
X029512Y008323D01*
X029592Y008421D02*
X027978Y008421D01*
X027978Y008717D02*
X036687Y008717D01*
X036685Y008815D02*
X033149Y008815D01*
X033300Y008914D02*
X036683Y008914D01*
X036682Y009012D02*
X033352Y009012D01*
X033361Y009697D02*
X031786Y009697D01*
X031688Y009795D01*
X031688Y013535D01*
X029621Y015602D01*
X028243Y015602D01*
X028243Y019933D01*
X026471Y019933D01*
X025979Y020425D01*
X019581Y020425D01*
X019581Y020043D01*
X019570Y020031D01*
X019570Y019846D01*
X019680Y019736D01*
X019205Y019749D02*
X016718Y019749D01*
X016718Y019847D02*
X019205Y019847D01*
X019205Y019946D02*
X016718Y019946D01*
X016718Y020044D02*
X019232Y020044D01*
X019245Y020143D02*
X016718Y020143D01*
X016718Y020241D02*
X019245Y020241D01*
X018994Y020340D02*
X016679Y020340D01*
X016623Y020438D02*
X018896Y020438D01*
X019188Y020622D02*
X018991Y020819D01*
X016924Y020819D01*
X016530Y021212D01*
X016056Y021226D02*
X012772Y021226D01*
X012772Y021128D02*
X015724Y021128D01*
X015661Y021029D02*
X012772Y021029D01*
X012772Y020931D02*
X015642Y020931D01*
X015642Y020832D02*
X014458Y020832D01*
X014595Y020734D02*
X015642Y020734D01*
X015642Y020635D02*
X014641Y020635D01*
X014647Y020537D02*
X015642Y020537D01*
X015650Y020438D02*
X014647Y020438D01*
X014647Y020340D02*
X015697Y020340D01*
X015752Y020241D02*
X014647Y020241D01*
X014627Y020143D02*
X015752Y020143D01*
X015752Y020044D02*
X014562Y020044D01*
X014460Y019847D02*
X015752Y019847D01*
X015752Y019749D02*
X014595Y019749D01*
X014641Y019650D02*
X015772Y019650D01*
X015837Y019552D02*
X014647Y019552D01*
X014647Y019453D02*
X015888Y019453D01*
X015888Y019355D02*
X014647Y019355D01*
X014647Y019256D02*
X016186Y019256D01*
X016235Y019303D02*
X015251Y019303D01*
X015251Y018063D01*
X015554Y017582D02*
X014647Y017582D01*
X014647Y017680D02*
X020190Y017680D01*
X020190Y017779D02*
X014647Y017779D01*
X014647Y017877D02*
X020190Y017877D01*
X020215Y017976D02*
X014647Y017976D01*
X014609Y018074D02*
X020288Y018074D01*
X020155Y018173D02*
X020908Y018173D01*
X020858Y018271D02*
X020221Y018271D01*
X020223Y018370D02*
X020792Y018370D01*
X020772Y018468D02*
X019925Y018468D01*
X019828Y018468D02*
X014647Y018468D01*
X014647Y018370D02*
X019530Y018370D01*
X019532Y018271D02*
X014647Y018271D01*
X014627Y018173D02*
X019598Y018173D01*
X019828Y018173D02*
X019925Y018173D01*
X019925Y018271D02*
X019828Y018271D01*
X019828Y018370D02*
X019925Y018370D01*
X019925Y018567D02*
X019828Y018567D01*
X019828Y018665D02*
X019925Y018665D01*
X020223Y018665D02*
X020772Y018665D01*
X020762Y018693D02*
X020762Y018850D01*
X020959Y019047D01*
X020959Y019736D01*
X020369Y019736D01*
X020369Y020228D01*
X025290Y020228D01*
X025290Y020031D01*
X025093Y019736D01*
X025487Y019736D01*
X025505Y019749D02*
X024682Y019749D01*
X024699Y019736D02*
X025093Y019736D01*
X024848Y019718D02*
X024743Y019675D01*
X024694Y019626D01*
X024682Y019639D01*
X024682Y019981D01*
X024638Y020086D01*
X024636Y020089D01*
X025551Y020089D01*
X025548Y020086D01*
X025505Y019981D01*
X025505Y019687D01*
X025430Y019687D01*
X025421Y019684D01*
X025338Y019718D01*
X024848Y019718D01*
X024719Y019650D02*
X024682Y019650D01*
X024682Y019847D02*
X025505Y019847D01*
X025505Y019946D02*
X024682Y019946D01*
X024655Y020044D02*
X025531Y020044D01*
X025979Y019736D02*
X028046Y019736D01*
X028046Y015405D01*
X029325Y015405D01*
X031491Y013240D01*
X031491Y010484D01*
X031294Y010386D01*
X031097Y011074D02*
X025290Y011074D01*
X025290Y012551D01*
X025093Y012748D01*
X025093Y013043D01*
X025487Y013141D02*
X025585Y013141D01*
X025487Y013141D02*
X025487Y013693D01*
X025004Y013740D02*
X023993Y013740D01*
X023993Y013839D02*
X025004Y013839D01*
X025004Y013937D02*
X023993Y013937D01*
X023993Y014036D02*
X025033Y014036D01*
X025110Y014134D02*
X023993Y014134D01*
X023968Y014233D02*
X025140Y014233D01*
X025290Y014323D02*
X025487Y014323D01*
X025526Y014323D02*
X025487Y014362D01*
X025526Y014323D02*
X026373Y014323D01*
X026373Y014913D01*
X026963Y014323D01*
X027652Y014323D01*
X027593Y014263D01*
X027593Y013535D01*
X027642Y013543D02*
X027989Y013543D01*
X027960Y013584D02*
X027960Y013752D01*
X027949Y013790D01*
X027930Y013824D01*
X027902Y013852D01*
X027868Y013872D01*
X027829Y013882D01*
X027642Y013882D01*
X027642Y013584D01*
X027960Y013584D01*
X027960Y013642D02*
X028087Y013642D01*
X027960Y013740D02*
X030515Y013740D01*
X030416Y013839D02*
X027915Y013839D01*
X027642Y013839D02*
X027545Y013839D01*
X027545Y013740D02*
X027642Y013740D01*
X027642Y013642D02*
X027545Y013642D01*
X027340Y013937D02*
X030318Y013937D01*
X030219Y014036D02*
X025941Y014036D01*
X025863Y014134D02*
X030121Y014134D01*
X030022Y014233D02*
X025834Y014233D01*
X025834Y014410D02*
X025834Y014598D01*
X025824Y014636D01*
X025804Y014671D01*
X025776Y014698D01*
X025742Y014718D01*
X025703Y014728D01*
X025535Y014728D01*
X025535Y014410D01*
X025834Y014410D01*
X025834Y014430D02*
X029825Y014430D01*
X029727Y014528D02*
X025834Y014528D01*
X025826Y014627D02*
X029628Y014627D01*
X029530Y014725D02*
X025715Y014725D01*
X025684Y014716D02*
X025487Y014519D01*
X025535Y014528D02*
X025438Y014528D01*
X025438Y014430D02*
X025535Y014430D01*
X025438Y014410D02*
X025438Y014728D01*
X025270Y014728D01*
X025232Y014718D01*
X025198Y014698D01*
X025170Y014671D01*
X025150Y014636D01*
X025140Y014598D01*
X025140Y014410D01*
X025438Y014410D01*
X025438Y014331D02*
X023965Y014331D01*
X023965Y014430D02*
X025140Y014430D01*
X025140Y014528D02*
X023965Y014528D01*
X023965Y014627D02*
X025148Y014627D01*
X025258Y014725D02*
X023965Y014725D01*
X023965Y014824D02*
X029431Y014824D01*
X029333Y014922D02*
X023965Y014922D01*
X023965Y015021D02*
X029234Y015021D01*
X029924Y014331D02*
X025535Y014331D01*
X025290Y014323D02*
X024798Y013830D01*
X024798Y013535D01*
X023518Y013535D01*
X023026Y013535D01*
X023026Y013929D01*
X022731Y013929D01*
X022140Y014323D01*
X020270Y014421D01*
X020172Y014323D01*
X020187Y014134D02*
X016308Y014134D01*
X016407Y014036D02*
X020116Y014036D01*
X020091Y013937D02*
X016505Y013937D01*
X016210Y014233D02*
X023068Y014233D01*
X023072Y014331D02*
X016111Y014331D01*
X016013Y014430D02*
X023072Y014430D01*
X023072Y014528D02*
X015914Y014528D01*
X015731Y015458D02*
X015331Y015857D01*
X015331Y015946D01*
X015288Y016051D01*
X015252Y016087D01*
X015307Y016110D01*
X015432Y016235D01*
X015432Y016235D01*
X015928Y016731D01*
X019859Y016731D01*
X019927Y016703D01*
X020417Y016703D01*
X020522Y016746D01*
X020603Y016827D01*
X020646Y016932D01*
X020646Y017195D01*
X020909Y017195D01*
X021005Y017234D01*
X021901Y017234D01*
X021907Y017220D01*
X021987Y017140D01*
X022092Y017096D01*
X022582Y017096D01*
X022688Y017140D01*
X022768Y017220D01*
X022812Y017326D01*
X022812Y017755D01*
X022978Y017755D01*
X022978Y018073D01*
X023075Y018073D01*
X023075Y017755D01*
X023170Y017755D01*
X023140Y017725D01*
X023072Y017561D01*
X023072Y015458D01*
X015731Y015458D01*
X015675Y015513D02*
X023072Y015513D01*
X023072Y015612D02*
X018911Y015612D01*
X019188Y015504D02*
X019581Y015504D01*
X019581Y016488D01*
X019188Y016094D02*
X018636Y016094D01*
X018362Y015612D02*
X015577Y015612D01*
X015478Y015710D02*
X018202Y015710D01*
X018007Y015700D02*
X018007Y016094D01*
X018016Y016006D02*
X017919Y016006D01*
X017919Y016104D02*
X015294Y016104D01*
X015306Y016006D02*
X017601Y016006D01*
X017601Y015907D02*
X015331Y015907D01*
X015380Y015809D02*
X017629Y015809D01*
X017919Y015809D02*
X018016Y015809D01*
X018016Y015907D02*
X017919Y015907D01*
X018007Y015700D02*
X018203Y015504D01*
X020959Y015504D01*
X021156Y015700D01*
X020570Y016794D02*
X023072Y016794D01*
X023072Y016892D02*
X020630Y016892D01*
X020646Y016991D02*
X023072Y016991D01*
X023072Y017089D02*
X020646Y017089D01*
X020646Y017188D02*
X021939Y017188D01*
X022337Y017571D02*
X020762Y017571D01*
X020664Y017669D01*
X021255Y018023D02*
X021314Y018220D01*
X021353Y018260D01*
X021303Y018072D02*
X021601Y018072D01*
X021601Y018228D01*
X021614Y018233D01*
X021694Y018314D01*
X021738Y018419D01*
X021738Y018761D01*
X021740Y018767D01*
X021781Y018726D01*
X021794Y018721D01*
X021794Y018564D01*
X022092Y018564D01*
X022092Y018682D01*
X022189Y018682D01*
X022189Y018564D01*
X022092Y018564D01*
X022092Y018467D01*
X022189Y018467D01*
X022189Y018564D01*
X022487Y018564D01*
X022487Y018721D01*
X022499Y018726D01*
X022543Y018769D01*
X022543Y018518D01*
X022587Y018412D01*
X022667Y018332D01*
X022679Y018327D01*
X022679Y018170D01*
X022978Y018170D01*
X022978Y018073D01*
X022679Y018073D01*
X022679Y018005D01*
X022582Y018045D01*
X022092Y018045D01*
X021987Y018001D01*
X021907Y017921D01*
X021901Y017907D01*
X021601Y017907D01*
X021601Y017975D01*
X021303Y017975D01*
X021303Y018072D01*
X021303Y017976D02*
X021961Y017976D01*
X021924Y018149D02*
X022092Y018149D01*
X022092Y018467D01*
X021794Y018467D01*
X021794Y018279D01*
X021804Y018241D01*
X021824Y018207D01*
X021851Y018179D01*
X021886Y018159D01*
X021924Y018149D01*
X021862Y018173D02*
X021601Y018173D01*
X021601Y018074D02*
X022978Y018074D01*
X023026Y018122D02*
X023479Y018122D01*
X023617Y018260D01*
X023912Y018260D01*
X024699Y018260D01*
X024896Y018063D01*
X024699Y018063D01*
X024749Y017976D02*
X023373Y017976D01*
X023373Y018173D02*
X023634Y018173D01*
X023623Y018179D02*
X023657Y018159D01*
X023695Y018149D01*
X023864Y018149D01*
X023864Y018467D01*
X023565Y018467D01*
X023565Y018279D01*
X023575Y018241D01*
X023595Y018207D01*
X023623Y018179D01*
X023567Y018271D02*
X023373Y018271D01*
X023423Y018370D02*
X023565Y018370D01*
X023489Y018468D02*
X023864Y018468D01*
X023912Y018515D02*
X023912Y018260D01*
X023864Y018271D02*
X023960Y018271D01*
X023960Y018173D02*
X023864Y018173D01*
X023864Y018370D02*
X023960Y018370D01*
X023961Y018468D02*
X024315Y018468D01*
X024315Y018567D02*
X024259Y018567D01*
X024259Y018665D02*
X024315Y018665D01*
X024309Y018764D02*
X024315Y018764D01*
X024699Y018850D02*
X024699Y019145D01*
X024207Y019637D01*
X024207Y019736D01*
X023715Y019736D02*
X023715Y019244D01*
X023912Y019047D01*
X023912Y019185D01*
X023515Y018764D02*
X023509Y018764D01*
X023509Y018665D02*
X023565Y018665D01*
X023565Y018567D02*
X023509Y018567D01*
X023026Y018791D02*
X023026Y019244D01*
X022928Y019342D01*
X022543Y018764D02*
X022538Y018764D01*
X022543Y018665D02*
X022487Y018665D01*
X022487Y018567D02*
X022543Y018567D01*
X022564Y018468D02*
X022189Y018468D01*
X022189Y018467D02*
X022487Y018467D01*
X022487Y018279D01*
X022477Y018241D01*
X022457Y018207D01*
X022429Y018179D01*
X022395Y018159D01*
X022357Y018149D01*
X022189Y018149D01*
X022189Y018467D01*
X022092Y018468D02*
X021738Y018468D01*
X021738Y018567D02*
X021794Y018567D01*
X021794Y018665D02*
X021738Y018665D01*
X021739Y018764D02*
X021743Y018764D01*
X021451Y018949D02*
X021353Y018850D01*
X021314Y018889D01*
X021255Y018693D01*
X021451Y018949D02*
X021451Y019539D01*
X020977Y019552D02*
X020915Y019552D01*
X020898Y019594D02*
X020817Y019675D01*
X020712Y019718D01*
X020222Y019718D01*
X020154Y019690D01*
X020154Y019981D01*
X020111Y020086D01*
X020108Y020089D01*
X021515Y020089D01*
X021513Y020086D01*
X021483Y020013D01*
X021206Y020013D01*
X021101Y019970D01*
X021021Y019889D01*
X020977Y019784D01*
X020977Y019294D01*
X021018Y019195D01*
X021001Y019195D01*
X020942Y019171D01*
X020942Y019489D01*
X020898Y019594D01*
X020842Y019650D02*
X020977Y019650D01*
X020977Y019749D02*
X020154Y019749D01*
X020172Y019736D02*
X020369Y019736D01*
X020154Y019847D02*
X021003Y019847D01*
X021077Y019946D02*
X020154Y019946D01*
X020128Y020044D02*
X021495Y020044D01*
X021944Y019736D02*
X022140Y019637D01*
X022140Y019185D01*
X022092Y018665D02*
X022189Y018665D01*
X022189Y018567D02*
X022092Y018567D01*
X022092Y018370D02*
X022189Y018370D01*
X022189Y018271D02*
X022092Y018271D01*
X022092Y018173D02*
X022189Y018173D01*
X022419Y018173D02*
X022679Y018173D01*
X022679Y018271D02*
X022485Y018271D01*
X022487Y018370D02*
X022629Y018370D01*
X022978Y017976D02*
X023075Y017976D01*
X023075Y018074D02*
X024451Y018074D01*
X024451Y018173D02*
X024190Y018173D01*
X024257Y018271D02*
X024401Y018271D01*
X024335Y018370D02*
X024259Y018370D01*
X024798Y018693D02*
X024798Y018752D01*
X024699Y018850D01*
X025093Y019244D02*
X025152Y019185D01*
X025684Y019185D01*
X026081Y018764D02*
X026643Y018764D01*
X026373Y018653D02*
X026373Y018260D01*
X026373Y016882D01*
X025684Y016882D01*
X024798Y017767D01*
X024798Y018023D01*
X024846Y017976D02*
X027710Y017976D01*
X027710Y018074D02*
X025145Y018074D01*
X025145Y018173D02*
X025405Y018173D01*
X025339Y018271D02*
X025195Y018271D01*
X025261Y018370D02*
X025337Y018370D01*
X025281Y018468D02*
X025635Y018468D01*
X025684Y018515D02*
X026333Y018614D01*
X026373Y018653D01*
X027259Y018653D01*
X027692Y019086D01*
X027692Y019204D01*
X027652Y019244D01*
X027593Y019244D01*
X027642Y019256D02*
X027710Y019256D01*
X027642Y019158D02*
X027545Y019158D01*
X027545Y019059D02*
X027642Y019059D01*
X027642Y018961D02*
X027545Y018961D01*
X027710Y018862D02*
X027361Y018862D01*
X027205Y018764D02*
X027710Y018764D01*
X027710Y018665D02*
X026031Y018665D01*
X026031Y018567D02*
X027710Y018567D01*
X027710Y018468D02*
X025732Y018468D01*
X025732Y018370D02*
X025635Y018370D01*
X025635Y018271D02*
X025732Y018271D01*
X025732Y018173D02*
X025635Y018173D01*
X025962Y018173D02*
X027710Y018173D01*
X027710Y018271D02*
X026028Y018271D01*
X026031Y018370D02*
X027710Y018370D01*
X027710Y017877D02*
X025145Y017877D01*
X025143Y017779D02*
X027710Y017779D01*
X027710Y017680D02*
X025076Y017680D01*
X024846Y017680D02*
X024749Y017680D01*
X024749Y017779D02*
X024846Y017779D01*
X024846Y017877D02*
X024749Y017877D01*
X024451Y017877D02*
X024091Y017877D01*
X024164Y017779D02*
X024453Y017779D01*
X024520Y017680D02*
X024190Y017680D01*
X024190Y017582D02*
X027710Y017582D01*
X027710Y017483D02*
X024190Y017483D01*
X024190Y017385D02*
X027710Y017385D01*
X027710Y017286D02*
X024190Y017286D01*
X024173Y017188D02*
X027710Y017188D01*
X027710Y017089D02*
X024113Y017089D01*
X023965Y016991D02*
X027710Y016991D01*
X027710Y016892D02*
X023965Y016892D01*
X023965Y016794D02*
X027710Y016794D01*
X027710Y016695D02*
X027436Y016695D01*
X027643Y016597D02*
X027710Y016597D01*
X027710Y016498D02*
X027643Y016498D01*
X027643Y016400D02*
X027710Y016400D01*
X027692Y016291D02*
X027692Y015937D01*
X027455Y015700D01*
X026373Y015700D01*
X025684Y015700D01*
X025684Y014716D01*
X025535Y014725D02*
X025438Y014725D01*
X025438Y014627D02*
X025535Y014627D01*
X026373Y014913D02*
X026373Y015700D01*
X026333Y015661D01*
X025975Y015907D02*
X025686Y015907D01*
X025677Y015809D02*
X026747Y015809D01*
X027298Y015809D02*
X027710Y015809D01*
X027710Y015907D02*
X027457Y015907D01*
X027643Y016006D02*
X027710Y016006D01*
X027710Y016104D02*
X027643Y016104D01*
X027643Y016203D02*
X027710Y016203D01*
X027710Y015710D02*
X025628Y015710D01*
X025684Y015700D02*
X025684Y016882D01*
X025996Y016695D02*
X023965Y016695D01*
X023965Y016597D02*
X025924Y016597D01*
X025898Y016498D02*
X025608Y016498D01*
X025669Y016400D02*
X025898Y016400D01*
X025898Y016301D02*
X025686Y016301D01*
X025686Y016203D02*
X025898Y016203D01*
X025898Y016104D02*
X025686Y016104D01*
X025686Y016006D02*
X025915Y016006D01*
X026373Y016291D02*
X027022Y016291D01*
X027710Y015612D02*
X025484Y015612D01*
X024899Y015612D02*
X024500Y015612D01*
X023965Y015513D02*
X027710Y015513D01*
X027710Y015415D02*
X023965Y015415D01*
X023965Y015316D02*
X027719Y015316D01*
X027760Y015218D02*
X023965Y015218D01*
X023965Y015119D02*
X027858Y015119D01*
X027652Y014323D02*
X030014Y014323D01*
X031196Y013141D01*
X031196Y012945D01*
X030424Y012173D01*
X030424Y012149D01*
X031097Y012157D02*
X031097Y011763D01*
X030900Y011567D01*
X025881Y011567D01*
X025881Y012649D01*
X025004Y013543D02*
X024685Y013543D01*
X025004Y013642D02*
X023975Y013642D01*
X023927Y013543D02*
X023914Y013543D01*
X023856Y013445D02*
X023076Y013445D01*
X023076Y013346D02*
X023831Y013346D01*
X023831Y013248D02*
X023076Y013248D01*
X023076Y013149D02*
X023831Y013149D01*
X023533Y013051D02*
X023504Y013051D01*
X023125Y012649D02*
X023125Y010779D01*
X030113Y010779D01*
X030321Y010096D02*
X027894Y010096D01*
X027958Y009997D02*
X030419Y009997D01*
X030518Y009899D02*
X027978Y009899D01*
X027978Y009800D02*
X030616Y009800D01*
X030715Y009702D02*
X027978Y009702D01*
X027978Y009603D02*
X030813Y009603D01*
X030912Y009505D02*
X027978Y009505D01*
X027978Y009406D02*
X031010Y009406D01*
X031109Y009308D02*
X027978Y009308D01*
X027963Y009209D02*
X031207Y009209D01*
X031314Y009111D02*
X027959Y009111D01*
X027978Y009012D02*
X032385Y009012D01*
X032438Y008914D02*
X027978Y008914D01*
X027978Y008815D02*
X032589Y008815D01*
X033164Y008220D02*
X033085Y008141D01*
X033085Y006480D01*
X033475Y007436D02*
X035482Y007436D01*
X034019Y007436D01*
X034022Y007338D02*
X035448Y007338D01*
X035422Y007239D02*
X034024Y007239D01*
X034027Y007141D02*
X035402Y007141D01*
X035387Y007042D02*
X034030Y007042D01*
X034033Y006944D02*
X035379Y006944D01*
X035378Y006747D02*
X034039Y006747D01*
X034036Y006845D02*
X037051Y006845D01*
X037101Y006842D02*
X038577Y008319D01*
X038577Y017177D01*
X038522Y017232D01*
X038010Y017232D01*
X037995Y017216D01*
X036995Y017216D01*
X037003Y017177D02*
X037003Y017275D01*
X036904Y017275D02*
X033951Y014323D01*
X033951Y012551D01*
X033558Y012945D01*
X033558Y013338D01*
X033500Y013346D02*
X034560Y013346D01*
X034560Y013248D02*
X033500Y013248D01*
X033500Y013149D02*
X034560Y013149D01*
X034560Y013051D02*
X033533Y013051D01*
X033632Y012952D02*
X034560Y012952D01*
X034577Y012854D02*
X033730Y012854D01*
X033829Y012755D02*
X034639Y012755D01*
X035052Y012657D02*
X033927Y012657D01*
X033951Y012551D02*
X035172Y011330D01*
X034424Y010582D01*
X032180Y010582D01*
X032180Y013338D01*
X032024Y013346D02*
X032434Y013346D01*
X032434Y013248D02*
X032024Y013248D01*
X032024Y013149D02*
X032434Y013149D01*
X032434Y013051D02*
X032024Y013051D01*
X032024Y012952D02*
X032434Y012952D01*
X032434Y012854D02*
X032024Y012854D01*
X032024Y012755D02*
X032434Y012755D01*
X032434Y012657D02*
X032024Y012657D01*
X032024Y012558D02*
X032434Y012558D01*
X032444Y012460D02*
X032024Y012460D01*
X032024Y012361D02*
X032485Y012361D01*
X032533Y012263D02*
X032024Y012263D01*
X032024Y012164D02*
X032533Y012164D01*
X032533Y012066D02*
X032024Y012066D01*
X032024Y011967D02*
X032533Y011967D01*
X032533Y011869D02*
X032024Y011869D01*
X032024Y011770D02*
X032533Y011770D01*
X032533Y011672D02*
X032024Y011672D01*
X032024Y011573D02*
X032533Y011573D01*
X032533Y011475D02*
X032024Y011475D01*
X032024Y011376D02*
X032449Y011376D01*
X032390Y011278D02*
X032024Y011278D01*
X032024Y011179D02*
X032375Y011179D01*
X032375Y011081D02*
X032024Y011081D01*
X032024Y010982D02*
X032375Y010982D01*
X032375Y010884D02*
X032024Y010884D01*
X032024Y010785D02*
X032375Y010785D01*
X032385Y010687D02*
X032024Y010687D01*
X032024Y010588D02*
X032436Y010588D01*
X032586Y010490D02*
X032024Y010490D01*
X032024Y010391D02*
X036409Y010391D01*
X036409Y010293D02*
X032024Y010293D01*
X032024Y010194D02*
X036409Y010194D01*
X036409Y010096D02*
X033782Y010096D01*
X033840Y009997D02*
X036409Y009997D01*
X036483Y009899D02*
X033855Y009899D01*
X033855Y009800D02*
X036582Y009800D01*
X037309Y009702D02*
X037680Y009702D01*
X038309Y009702D02*
X038586Y009702D01*
X038479Y009702D01*
X038479Y009800D02*
X038586Y009800D01*
X038586Y009899D02*
X038506Y009899D01*
X038581Y009997D02*
X038586Y009997D01*
X038581Y010096D02*
X038586Y010096D01*
X038581Y010194D02*
X038586Y010194D01*
X038581Y010293D02*
X038586Y010293D01*
X038581Y010391D02*
X038586Y010391D01*
X038586Y010490D02*
X038550Y010490D01*
X038586Y010588D02*
X038479Y010588D01*
X038479Y010687D02*
X038586Y010687D01*
X038586Y010785D02*
X038479Y010785D01*
X038491Y010884D02*
X038586Y010884D01*
X038581Y010982D02*
X038586Y010982D01*
X038581Y011081D02*
X038586Y011081D01*
X038581Y011179D02*
X038586Y011179D01*
X038581Y011278D02*
X038586Y011278D01*
X038581Y011376D02*
X038586Y011376D01*
X038586Y011475D02*
X038565Y011475D01*
X038586Y011573D02*
X038479Y011573D01*
X038479Y011672D02*
X038586Y011672D01*
X038586Y011770D02*
X038479Y011770D01*
X038479Y011869D02*
X038586Y011869D01*
X038575Y011967D02*
X038586Y011967D01*
X038581Y012066D02*
X038586Y012066D01*
X038581Y012164D02*
X038586Y012164D01*
X038581Y012263D02*
X038586Y012263D01*
X038581Y012361D02*
X038586Y012361D01*
X038580Y012460D02*
X038586Y012460D01*
X038586Y012558D02*
X038482Y012558D01*
X038479Y012657D02*
X038586Y012657D01*
X038586Y012755D02*
X038479Y012755D01*
X038479Y012854D02*
X038586Y012854D01*
X038586Y012952D02*
X038560Y012952D01*
X038581Y013051D02*
X038586Y013051D01*
X038581Y013149D02*
X038586Y013149D01*
X038581Y013248D02*
X038586Y013248D01*
X038581Y013346D02*
X038586Y013346D01*
X038581Y013445D02*
X038586Y013445D01*
X038586Y013543D02*
X038497Y013543D01*
X038479Y013642D02*
X038586Y013642D01*
X038586Y013740D02*
X038479Y013740D01*
X038479Y013839D02*
X038586Y013839D01*
X038586Y013937D02*
X038545Y013937D01*
X038581Y014036D02*
X038586Y014036D01*
X038581Y014134D02*
X038586Y014134D01*
X038581Y014233D02*
X038586Y014233D01*
X038581Y014331D02*
X038586Y014331D01*
X038581Y014430D02*
X038586Y014430D01*
X038586Y014528D02*
X038512Y014528D01*
X038479Y014627D02*
X038586Y014627D01*
X038586Y014725D02*
X038479Y014725D01*
X038479Y014824D02*
X038586Y014824D01*
X038586Y014922D02*
X038530Y014922D01*
X038581Y015021D02*
X038586Y015021D01*
X038581Y015119D02*
X038586Y015119D01*
X038581Y015218D02*
X038586Y015218D01*
X038581Y015316D02*
X038586Y015316D01*
X038581Y015415D02*
X038586Y015415D01*
X038586Y015513D02*
X038527Y015513D01*
X038479Y015612D02*
X038586Y015612D01*
X038586Y015710D02*
X038479Y015710D01*
X038479Y015809D02*
X038586Y015809D01*
X038586Y015907D02*
X038515Y015907D01*
X038581Y016006D02*
X038586Y016006D01*
X038581Y016104D02*
X038586Y016104D01*
X038581Y016203D02*
X038586Y016203D01*
X038581Y016301D02*
X038586Y016301D01*
X038581Y016400D02*
X038586Y016400D01*
X038586Y016498D02*
X038542Y016498D01*
X038586Y016597D02*
X038479Y016597D01*
X038479Y016695D02*
X038586Y016695D01*
X038586Y016794D02*
X038479Y016794D01*
X038479Y016892D02*
X038586Y016892D01*
X038586Y016991D02*
X038479Y016991D01*
X038479Y017089D02*
X038586Y017089D01*
X038586Y017188D02*
X038479Y017188D01*
X038479Y017286D02*
X038586Y017286D01*
X038586Y017385D02*
X038479Y017385D01*
X038479Y017483D02*
X038586Y017483D01*
X038586Y017582D02*
X038479Y017582D01*
X038479Y017680D02*
X038586Y017680D01*
X038586Y017779D02*
X038479Y017779D01*
X038485Y017877D02*
X038586Y017877D01*
X038581Y017976D02*
X038586Y017976D01*
X038581Y018074D02*
X038586Y018074D01*
X038581Y018173D02*
X038586Y018173D01*
X038581Y018271D02*
X038586Y018271D01*
X038581Y018370D02*
X038586Y018370D01*
X038572Y018468D02*
X038586Y018468D01*
X038586Y018567D02*
X038479Y018567D01*
X038479Y018665D02*
X038586Y018665D01*
X038586Y018764D02*
X038479Y018764D01*
X038479Y018862D02*
X038586Y018862D01*
X038586Y018961D02*
X038568Y018961D01*
X038581Y019059D02*
X038586Y019059D01*
X038581Y019158D02*
X038586Y019158D01*
X038581Y019256D02*
X038586Y019256D01*
X038581Y019355D02*
X038586Y019355D01*
X038581Y019453D02*
X038586Y019453D01*
X038586Y019552D02*
X038488Y019552D01*
X038479Y019650D02*
X038586Y019650D01*
X038586Y019749D02*
X038479Y019749D01*
X038586Y019847D02*
X034878Y019847D01*
X034878Y019946D02*
X038586Y019946D01*
X038586Y020044D02*
X034878Y020044D01*
X034878Y020143D02*
X038586Y020143D01*
X038586Y020241D02*
X034878Y020241D01*
X034878Y020340D02*
X035422Y020340D01*
X035283Y020438D02*
X034878Y020438D01*
X034542Y020425D02*
X034345Y020622D01*
X030014Y020622D01*
X029621Y021015D01*
X027455Y021015D01*
X027062Y021409D01*
X026668Y021409D01*
X026373Y021704D01*
X026373Y023082D01*
X025782Y023378D02*
X025782Y021704D01*
X026274Y021212D01*
X026865Y021212D01*
X027259Y020819D01*
X029424Y020819D01*
X029818Y020425D01*
X034148Y020425D01*
X034345Y020228D01*
X034345Y018850D01*
X033164Y017669D01*
X032573Y017669D01*
X032377Y017472D01*
X032377Y016882D01*
X032770Y016488D01*
X032770Y012551D01*
X032869Y012452D01*
X032869Y010976D01*
X033361Y010976D02*
X033361Y012354D01*
X032967Y012748D01*
X032967Y016094D01*
X033558Y016685D01*
X035133Y016685D01*
X035329Y016882D01*
X035329Y017669D01*
X034542Y018456D01*
X034542Y020425D01*
X034739Y020819D02*
X033951Y021606D01*
X033951Y023771D01*
X034542Y024362D01*
X035133Y024362D01*
X035231Y024460D01*
X035231Y025559D01*
X035723Y026051D01*
X036116Y026447D02*
X036944Y026447D01*
X036846Y026545D02*
X035987Y026545D01*
X035947Y026644D02*
X036781Y026644D01*
X036805Y026586D02*
X037069Y026322D01*
X037414Y026179D01*
X037788Y026179D01*
X038133Y026322D01*
X038397Y026586D01*
X038540Y026931D01*
X038540Y027305D01*
X038397Y027650D01*
X038133Y027914D01*
X037788Y028057D01*
X037414Y028057D01*
X037069Y027914D01*
X036805Y027650D01*
X036662Y027305D01*
X036662Y026931D01*
X036805Y026586D01*
X036740Y026742D02*
X035997Y026742D01*
X036015Y026841D02*
X036699Y026841D01*
X036662Y026939D02*
X036015Y026939D01*
X036015Y027038D02*
X036662Y027038D01*
X036662Y027136D02*
X036015Y027136D01*
X036015Y027235D02*
X036662Y027235D01*
X036674Y027333D02*
X036015Y027333D01*
X036013Y027432D02*
X036715Y027432D01*
X036756Y027530D02*
X035973Y027530D01*
X035887Y027629D02*
X036796Y027629D01*
X036707Y027708D02*
X036707Y022787D01*
X037101Y022984D01*
X037051Y022999D02*
X034953Y022999D01*
X035017Y022901D02*
X035377Y022901D01*
X035386Y022802D02*
X035036Y022802D01*
X035036Y022704D02*
X035399Y022704D01*
X035417Y022605D02*
X035036Y022605D01*
X035036Y022507D02*
X035443Y022507D01*
X035475Y022408D02*
X035036Y022408D01*
X035029Y022310D02*
X035512Y022310D01*
X035558Y022211D02*
X034983Y022211D01*
X034847Y022113D02*
X035612Y022113D01*
X035674Y022014D02*
X034288Y022014D01*
X034288Y021916D02*
X035746Y021916D01*
X035829Y021817D02*
X034288Y021817D01*
X034314Y021719D02*
X035927Y021719D01*
X036043Y021620D02*
X034413Y021620D01*
X034511Y021522D02*
X036184Y021522D01*
X036367Y021423D02*
X034610Y021423D01*
X034708Y021325D02*
X036629Y021325D01*
X036199Y021128D02*
X038586Y021128D01*
X038586Y021226D02*
X036136Y021226D01*
X036217Y021029D02*
X038586Y021029D01*
X038586Y020931D02*
X036217Y020931D01*
X036217Y020832D02*
X038586Y020832D01*
X038586Y020734D02*
X036217Y020734D01*
X036217Y020635D02*
X038586Y020635D01*
X038586Y020537D02*
X036210Y020537D01*
X036163Y020438D02*
X038586Y020438D01*
X038586Y020340D02*
X036024Y020340D01*
X035723Y020819D02*
X034739Y020819D01*
X034807Y021226D02*
X035310Y021226D01*
X033951Y020031D02*
X033755Y019834D01*
X030014Y019834D01*
X029227Y020622D01*
X027062Y020622D01*
X026668Y021015D01*
X024109Y021015D01*
X023715Y021409D01*
X023715Y021606D01*
X023518Y021803D01*
X023322Y021803D01*
X023322Y021311D02*
X023814Y020819D01*
X026471Y020819D01*
X026865Y020425D01*
X029030Y020425D01*
X029818Y019637D01*
X032377Y019637D01*
X032869Y019145D01*
X032869Y018752D01*
X032869Y018260D02*
X032573Y018260D01*
X032377Y018456D01*
X032377Y019244D01*
X032180Y019441D01*
X029621Y019441D01*
X028833Y020228D01*
X026668Y020228D01*
X026274Y020622D01*
X019188Y020622D01*
X020073Y021606D02*
X016825Y021606D01*
X015841Y022590D01*
X015841Y022728D01*
X015900Y022787D01*
X015339Y022310D02*
X015315Y022310D01*
X015256Y022211D02*
X015380Y022211D01*
X015446Y022113D02*
X015151Y022113D01*
X014950Y022113D02*
X014850Y022113D01*
X014850Y022211D02*
X014950Y022211D01*
X014950Y022310D02*
X014850Y022310D01*
X014850Y022408D02*
X014950Y022408D01*
X014950Y022507D02*
X014850Y022507D01*
X014850Y022605D02*
X014950Y022605D01*
X014950Y022704D02*
X014850Y022704D01*
X014857Y022787D02*
X014900Y022787D01*
X014857Y022830D01*
X014857Y023574D01*
X009345Y023574D01*
X008951Y023968D01*
X008951Y024362D01*
X009050Y024460D01*
X009079Y023787D02*
X011216Y023787D01*
X011314Y023689D02*
X009214Y023689D01*
X009313Y023590D02*
X011413Y023590D01*
X011511Y023492D02*
X009411Y023492D01*
X009510Y023393D02*
X013393Y023393D01*
X013352Y023295D02*
X009608Y023295D01*
X009707Y023196D02*
X013314Y023196D01*
X013314Y023098D02*
X009805Y023098D01*
X009904Y022999D02*
X013314Y022999D01*
X013314Y022901D02*
X012821Y022901D01*
X012692Y022590D02*
X009837Y022590D01*
X008951Y023476D01*
X006688Y023476D01*
X006213Y023492D02*
X004993Y023492D01*
X005064Y023590D02*
X006213Y023590D01*
X006213Y023689D02*
X005126Y023689D01*
X005180Y023787D02*
X006241Y023787D01*
X006316Y023886D02*
X005226Y023886D01*
X005263Y023984D02*
X011019Y023984D01*
X011117Y023886D02*
X007059Y023886D01*
X006688Y024165D02*
X005408Y024165D01*
X005408Y022787D01*
X005113Y022492D01*
X005163Y022507D02*
X009445Y022507D01*
X009347Y022605D02*
X005637Y022605D01*
X005637Y022542D02*
X005637Y022886D01*
X005627Y022924D01*
X005607Y022958D01*
X005579Y022986D01*
X005545Y023006D01*
X005507Y023016D01*
X005163Y023016D01*
X005163Y022542D01*
X005063Y022542D01*
X005063Y023016D01*
X004719Y023016D01*
X004681Y023006D01*
X004647Y022986D01*
X004619Y022958D01*
X004599Y022924D01*
X004589Y022886D01*
X004589Y022542D01*
X005063Y022542D01*
X005063Y022442D01*
X004589Y022442D01*
X004589Y022098D01*
X004599Y022060D01*
X004619Y022026D01*
X004647Y021998D01*
X004681Y021978D01*
X004719Y021968D01*
X005063Y021968D01*
X005063Y022442D01*
X005163Y022442D01*
X005163Y022542D01*
X005637Y022542D01*
X005637Y022442D02*
X005163Y022442D01*
X005163Y021968D01*
X005507Y021968D01*
X005545Y021978D01*
X005579Y021998D01*
X005607Y022026D01*
X005627Y022060D01*
X005637Y022098D01*
X005637Y022442D01*
X005637Y022408D02*
X009544Y022408D01*
X009642Y022310D02*
X005637Y022310D01*
X005637Y022211D02*
X012414Y022211D01*
X012429Y022113D02*
X005637Y022113D01*
X005595Y022014D02*
X012487Y022014D01*
X012155Y021719D02*
X016237Y021719D01*
X016157Y021620D02*
X012182Y021620D01*
X012182Y021522D02*
X016083Y021522D01*
X016056Y021423D02*
X012671Y021423D01*
X012746Y021325D02*
X016056Y021325D01*
X016139Y021817D02*
X012080Y021817D01*
X011707Y021409D02*
X011707Y018653D01*
X011904Y018456D01*
X013554Y018456D01*
X013573Y018437D01*
X012685Y018862D02*
X012044Y018862D01*
X012044Y018961D02*
X015956Y018961D01*
X015890Y019059D02*
X014561Y019059D01*
X014627Y019158D02*
X015888Y019158D01*
X016186Y019158D02*
X016283Y019158D01*
X016283Y019256D02*
X017919Y019256D01*
X017919Y019292D02*
X017601Y019292D01*
X017601Y019460D01*
X017611Y019499D01*
X017631Y019533D01*
X017659Y019561D01*
X017693Y019580D01*
X017731Y019591D01*
X017919Y019591D01*
X017919Y019292D01*
X017919Y019355D02*
X018016Y019355D01*
X018016Y019453D02*
X017919Y019453D01*
X017919Y019552D02*
X018016Y019552D01*
X018225Y019650D02*
X016698Y019650D01*
X016633Y019552D02*
X017650Y019552D01*
X017601Y019453D02*
X016582Y019453D01*
X016582Y019355D02*
X017601Y019355D01*
X017601Y019195D02*
X017601Y019027D01*
X017611Y018989D01*
X017631Y018955D01*
X017659Y018927D01*
X017693Y018907D01*
X017731Y018897D01*
X017919Y018897D01*
X017919Y019195D01*
X017601Y019195D01*
X017601Y019158D02*
X016582Y019158D01*
X016580Y019059D02*
X017601Y019059D01*
X017627Y018961D02*
X016514Y018961D01*
X016283Y018961D02*
X016186Y018961D01*
X016186Y019059D02*
X016283Y019059D01*
X015752Y019946D02*
X012634Y019946D01*
X012634Y019847D02*
X012687Y019847D01*
X012298Y019637D02*
X012495Y019441D01*
X013554Y019441D01*
X013573Y019421D01*
X014462Y018862D02*
X018200Y018862D01*
X018356Y018764D02*
X014596Y018764D01*
X014641Y018665D02*
X019530Y018665D01*
X019530Y018567D02*
X014647Y018567D01*
X014618Y017483D02*
X015418Y017483D01*
X015364Y017430D02*
X015364Y017430D01*
X015320Y017385D02*
X014540Y017385D01*
X014511Y017286D02*
X015221Y017286D01*
X015123Y017188D02*
X013602Y017188D01*
X013573Y017177D02*
X010133Y017177D01*
X011707Y016291D02*
X011885Y016468D01*
X013573Y016468D01*
X014465Y016892D02*
X014480Y016892D01*
X014509Y016991D02*
X014926Y016991D01*
X015024Y017089D02*
X014511Y017089D01*
X015400Y016203D02*
X017601Y016203D01*
X017601Y016301D02*
X015498Y016301D01*
X015597Y016400D02*
X017647Y016400D01*
X017919Y016400D02*
X018016Y016400D01*
X018016Y016301D02*
X017919Y016301D01*
X017919Y016203D02*
X018016Y016203D01*
X018222Y016498D02*
X015695Y016498D01*
X015794Y016597D02*
X023072Y016597D01*
X023072Y016695D02*
X015892Y016695D01*
X017967Y018102D02*
X018007Y018063D01*
X017967Y018102D02*
X017967Y019244D01*
X017919Y019158D02*
X018016Y019158D01*
X018016Y019059D02*
X017919Y019059D01*
X017919Y018961D02*
X018016Y018961D01*
X018597Y019244D02*
X018636Y019244D01*
X019188Y019244D01*
X019837Y019244D01*
X019877Y019185D01*
X019877Y019244D01*
X019975Y019342D01*
X020274Y018764D02*
X020772Y018764D01*
X020772Y018567D02*
X020223Y018567D01*
X019479Y018764D02*
X018917Y018764D01*
X016730Y020537D02*
X016630Y020537D01*
X016630Y020635D02*
X016632Y020635D01*
X017613Y021803D02*
X016924Y022492D01*
X016924Y022763D01*
X016900Y022787D01*
X017908Y022787D02*
X018007Y022689D01*
X018007Y022393D01*
X018400Y022000D01*
X021353Y022000D01*
X021550Y021803D01*
X021550Y021015D01*
X021058Y021114D02*
X021058Y021311D01*
X020566Y021803D01*
X017613Y021803D01*
X015748Y021916D02*
X014053Y021916D01*
X014256Y022014D02*
X015544Y022014D01*
X014857Y022000D02*
X014857Y022787D01*
X014486Y022310D02*
X014461Y022310D01*
X014421Y022211D02*
X014544Y022211D01*
X014650Y022113D02*
X014355Y022113D01*
X014857Y022000D02*
X013676Y022000D01*
X013748Y021916D02*
X004400Y021916D01*
X004455Y021860D02*
X004320Y021996D01*
X004142Y022069D01*
X003950Y022069D01*
X003772Y021996D01*
X003636Y021860D01*
X003563Y021682D01*
X003563Y021490D01*
X003636Y021313D01*
X003772Y021177D01*
X003950Y021103D01*
X004142Y021103D01*
X004320Y021177D01*
X004455Y021313D01*
X004529Y021490D01*
X004529Y021682D01*
X004455Y021860D01*
X004473Y021817D02*
X011334Y021817D01*
X011260Y021719D02*
X004514Y021719D01*
X004529Y021620D02*
X011233Y021620D01*
X011233Y021522D02*
X004529Y021522D01*
X004501Y021423D02*
X011233Y021423D01*
X011233Y021325D02*
X004460Y021325D01*
X004369Y021226D02*
X011233Y021226D01*
X011248Y021128D02*
X004201Y021128D01*
X003891Y021128D02*
X002151Y021128D01*
X002151Y021226D02*
X003723Y021226D01*
X003631Y021325D02*
X002151Y021325D01*
X002151Y021423D02*
X003591Y021423D01*
X003563Y021522D02*
X002151Y021522D01*
X002151Y021620D02*
X003563Y021620D01*
X003578Y021719D02*
X002151Y021719D01*
X002151Y021817D02*
X003619Y021817D01*
X003692Y021916D02*
X002151Y021916D01*
X002151Y022014D02*
X003817Y022014D01*
X004275Y022014D02*
X004630Y022014D01*
X004589Y022113D02*
X002151Y022113D01*
X002151Y022211D02*
X004589Y022211D01*
X004589Y022310D02*
X002151Y022310D01*
X002151Y022408D02*
X004589Y022408D01*
X004589Y022605D02*
X002151Y022605D01*
X002151Y022507D02*
X005063Y022507D01*
X005063Y022605D02*
X005163Y022605D01*
X005163Y022704D02*
X005063Y022704D01*
X005063Y022802D02*
X005163Y022802D01*
X005163Y022901D02*
X005063Y022901D01*
X005063Y022999D02*
X005163Y022999D01*
X005556Y022999D02*
X008953Y022999D01*
X009051Y022901D02*
X005633Y022901D01*
X005637Y022802D02*
X009150Y022802D01*
X009248Y022704D02*
X005637Y022704D01*
X005163Y022408D02*
X005063Y022408D01*
X005063Y022310D02*
X005163Y022310D01*
X005163Y022211D02*
X005063Y022211D01*
X005063Y022113D02*
X005163Y022113D01*
X005163Y022014D02*
X005063Y022014D01*
X004589Y022704D02*
X002151Y022704D01*
X002151Y022802D02*
X004589Y022802D01*
X004593Y022901D02*
X004113Y022901D01*
X004373Y022999D02*
X004670Y022999D01*
X004556Y023098D02*
X006285Y023098D01*
X006228Y023196D02*
X004696Y023196D01*
X004812Y023295D02*
X006213Y023295D01*
X006213Y023393D02*
X004910Y023393D01*
X005295Y024083D02*
X010920Y024083D01*
X010828Y024181D02*
X005321Y024181D01*
X005339Y024280D02*
X010787Y024280D01*
X010781Y024378D02*
X005352Y024378D01*
X005361Y024477D02*
X010781Y024477D01*
X010781Y024575D02*
X003686Y024575D01*
X003686Y024477D02*
X003586Y024477D01*
X003586Y024378D02*
X003686Y024378D01*
X003686Y024280D02*
X003586Y024280D01*
X003586Y024181D02*
X003686Y024181D01*
X003686Y024083D02*
X003586Y024083D01*
X003586Y023984D02*
X003686Y023984D01*
X003686Y023886D02*
X003586Y023886D01*
X003586Y023787D02*
X003686Y023787D01*
X003686Y023689D02*
X003586Y023689D01*
X003586Y023590D02*
X003686Y023590D01*
X003686Y023492D02*
X003586Y023492D01*
X003586Y023393D02*
X003686Y023393D01*
X003686Y023295D02*
X003586Y023295D01*
X003586Y023196D02*
X003686Y023196D01*
X003686Y023098D02*
X003586Y023098D01*
X003586Y022999D02*
X003686Y022999D01*
X003686Y022901D02*
X003586Y022901D01*
X003160Y022901D02*
X002151Y022901D01*
X002151Y022999D02*
X002900Y022999D01*
X002717Y023098D02*
X002151Y023098D01*
X002151Y023196D02*
X002577Y023196D01*
X002461Y023295D02*
X002151Y023295D01*
X002151Y023393D02*
X002363Y023393D01*
X002280Y023492D02*
X002151Y023492D01*
X002151Y023590D02*
X002209Y023590D01*
X003586Y024674D02*
X003686Y024674D01*
X003686Y024772D02*
X003586Y024772D01*
X003586Y024871D02*
X003686Y024871D01*
X003686Y024969D02*
X003586Y024969D01*
X003586Y025068D02*
X003686Y025068D01*
X003686Y025166D02*
X003586Y025166D01*
X003586Y025265D02*
X003686Y025265D01*
X003686Y025363D02*
X003586Y025363D01*
X003586Y025462D02*
X003686Y025462D01*
X003686Y025560D02*
X003586Y025560D01*
X003586Y025659D02*
X003686Y025659D01*
X003686Y025757D02*
X003586Y025757D01*
X003586Y025856D02*
X003686Y025856D01*
X003686Y025954D02*
X003586Y025954D01*
X003586Y026053D02*
X003686Y026053D01*
X003686Y026151D02*
X003586Y026151D01*
X003586Y026250D02*
X003686Y026250D01*
X003979Y026250D02*
X004973Y026250D01*
X004973Y026348D02*
X002151Y026348D01*
X002151Y026250D02*
X003294Y026250D01*
X002970Y026151D02*
X002151Y026151D01*
X002151Y026053D02*
X002775Y026053D01*
X002622Y025954D02*
X002151Y025954D01*
X002151Y025856D02*
X002499Y025856D01*
X002396Y025757D02*
X002151Y025757D01*
X002151Y025659D02*
X002308Y025659D01*
X002232Y025560D02*
X002151Y025560D01*
X002151Y025462D02*
X002166Y025462D01*
X002151Y026447D02*
X004973Y026447D01*
X004972Y026545D02*
X002151Y026545D01*
X002151Y026644D02*
X003832Y026644D01*
X003733Y026742D02*
X002151Y026742D01*
X002151Y026841D02*
X003635Y026841D01*
X003536Y026939D02*
X002151Y026939D01*
X002151Y027038D02*
X003438Y027038D01*
X003291Y027136D02*
X002801Y027136D01*
X002974Y027235D02*
X003118Y027235D01*
X003577Y027374D02*
X003577Y027807D01*
X002514Y027807D01*
X003034Y028318D02*
X003058Y028318D01*
X003156Y028417D02*
X002936Y028417D01*
X002709Y028515D02*
X003383Y028515D01*
X003772Y028515D02*
X005272Y028515D01*
X005046Y028417D02*
X003999Y028417D01*
X004097Y028318D02*
X004238Y028318D01*
X004807Y028318D02*
X004948Y028318D01*
X005467Y027807D02*
X005467Y027374D01*
X005014Y026921D01*
X005310Y026724D01*
X005310Y025543D01*
X005784Y025560D02*
X007915Y025560D01*
X007729Y025659D02*
X005784Y025659D01*
X005784Y025757D02*
X007597Y025757D01*
X007496Y025856D02*
X005756Y025856D01*
X005679Y025954D02*
X007417Y025954D01*
X007354Y026053D02*
X005646Y026053D01*
X005646Y026151D02*
X007304Y026151D01*
X007265Y026250D02*
X005646Y026250D01*
X005646Y026348D02*
X007236Y026348D01*
X007182Y026447D02*
X007038Y026447D01*
X006385Y026447D02*
X006369Y026447D01*
X005784Y025462D02*
X010781Y025462D01*
X010781Y025560D02*
X008789Y025560D01*
X008975Y025659D02*
X010760Y025659D01*
X010662Y025757D02*
X009108Y025757D01*
X009209Y025856D02*
X010563Y025856D01*
X010536Y025954D02*
X009288Y025954D01*
X009350Y026053D02*
X010536Y026053D01*
X010536Y026151D02*
X009400Y026151D01*
X009439Y026250D02*
X010536Y026250D01*
X010536Y026348D02*
X009468Y026348D01*
X009489Y026447D02*
X009575Y026447D01*
X010356Y026447D02*
X010614Y026447D01*
X010713Y026545D02*
X010448Y026545D01*
X010488Y026644D02*
X010811Y026644D01*
X011023Y026742D02*
X010494Y026742D01*
X010494Y026841D02*
X011021Y026841D01*
X010936Y026939D02*
X010494Y026939D01*
X010494Y027038D02*
X010896Y027038D01*
X010895Y027136D02*
X010494Y027136D01*
X010494Y027235D02*
X010920Y027235D01*
X010932Y027333D02*
X010494Y027333D01*
X010494Y027432D02*
X010895Y027432D01*
X010895Y027530D02*
X010494Y027530D01*
X010464Y027629D02*
X010924Y027629D01*
X010993Y027727D02*
X010396Y027727D01*
X010225Y027826D02*
X011163Y027826D01*
X011299Y027826D02*
X011822Y027826D01*
X011652Y027727D02*
X011469Y027727D01*
X012086Y027826D02*
X014757Y027826D01*
X014587Y027727D02*
X012256Y027727D01*
X012325Y027629D02*
X012416Y027629D01*
X012742Y027126D02*
X012692Y027075D01*
X012692Y024952D01*
X013282Y024362D01*
X024503Y024362D01*
X024896Y023968D01*
X024896Y022492D01*
X024699Y022295D01*
X025093Y022000D02*
X024896Y021803D01*
X025093Y022000D02*
X025093Y024165D01*
X024699Y024559D01*
X013873Y024559D01*
X013282Y025149D01*
X013282Y026126D01*
X012202Y026126D02*
X012199Y026123D01*
X012199Y024736D01*
X012770Y024165D01*
X024109Y024165D01*
X024503Y023771D01*
X024503Y022787D01*
X024109Y023279D02*
X024109Y023574D01*
X023715Y023968D01*
X012101Y023968D01*
X011707Y024362D01*
X011707Y027080D01*
X011662Y027126D01*
X011122Y026126D02*
X011117Y026120D01*
X011117Y024362D01*
X011707Y023771D01*
X023125Y023771D01*
X023617Y023279D01*
X024109Y024952D02*
X023715Y025346D01*
X023715Y026120D01*
X023721Y026126D01*
X023260Y025757D02*
X021706Y025757D01*
X021718Y025767D02*
X021809Y025858D01*
X021890Y025959D01*
X021959Y026069D01*
X022015Y026185D01*
X022057Y026307D01*
X022086Y026433D01*
X022101Y026561D01*
X022101Y026576D01*
X021927Y026576D01*
X022027Y026676D01*
X022101Y026676D01*
X022101Y026690D01*
X022095Y026743D01*
X022139Y026788D01*
X022191Y026912D01*
X022191Y027301D01*
X022141Y027421D01*
X022139Y027425D01*
X021789Y027775D01*
X021666Y027826D01*
X021532Y027826D01*
X021408Y027775D01*
X021341Y027707D01*
X021269Y027732D01*
X021144Y027761D01*
X021015Y027776D01*
X021001Y027776D01*
X021001Y027571D01*
X020901Y027571D01*
X020901Y027776D01*
X020886Y027776D01*
X020758Y027761D01*
X020735Y027756D01*
X020716Y027775D01*
X020592Y027826D01*
X020458Y027826D01*
X020335Y027775D01*
X019985Y027425D01*
X019983Y027421D01*
X019933Y027301D01*
X019933Y027164D01*
X019886Y027066D01*
X019844Y026945D01*
X019815Y026819D01*
X019801Y026690D01*
X019801Y026676D01*
X020097Y026676D01*
X020197Y026576D01*
X019801Y026576D01*
X019801Y026561D01*
X019815Y026433D01*
X019844Y026307D01*
X019886Y026185D01*
X019942Y026069D01*
X020011Y025959D01*
X020092Y025858D01*
X020183Y025767D01*
X020284Y025686D01*
X020393Y025618D01*
X020510Y025562D01*
X020632Y025519D01*
X020758Y025490D01*
X020886Y025476D01*
X020901Y025476D01*
X020901Y026387D01*
X021001Y026387D01*
X021001Y025476D01*
X021015Y025476D01*
X021144Y025490D01*
X021269Y025519D01*
X021391Y025562D01*
X021508Y025618D01*
X021617Y025686D01*
X021718Y025767D01*
X021807Y025856D02*
X023161Y025856D01*
X023134Y025954D02*
X021886Y025954D01*
X021949Y026053D02*
X023134Y026053D01*
X023134Y026151D02*
X021999Y026151D01*
X022037Y026250D02*
X023134Y026250D01*
X023134Y026348D02*
X022067Y026348D01*
X022088Y026447D02*
X022739Y026447D01*
X022648Y026545D02*
X022099Y026545D01*
X021995Y026644D02*
X022607Y026644D01*
X022602Y026742D02*
X022095Y026742D01*
X022161Y026841D02*
X022623Y026841D01*
X022679Y026939D02*
X022191Y026939D01*
X022191Y027038D02*
X022819Y027038D01*
X022858Y027136D02*
X022191Y027136D01*
X022191Y027235D02*
X022858Y027235D01*
X022858Y027333D02*
X022177Y027333D01*
X022133Y027432D02*
X022858Y027432D01*
X022858Y027530D02*
X022034Y027530D01*
X021936Y027629D02*
X022887Y027629D01*
X022956Y027727D02*
X021837Y027727D01*
X021667Y027826D02*
X023126Y027826D01*
X023262Y027826D02*
X027523Y027826D01*
X027659Y027826D02*
X028034Y027826D01*
X027911Y027775D02*
X027911Y027775D01*
X027864Y027727D02*
X027829Y027727D01*
X028170Y027826D02*
X028448Y027826D01*
X028840Y027826D02*
X029245Y027826D01*
X029075Y027727D02*
X029010Y027727D01*
X029637Y027826D02*
X030320Y027826D01*
X030146Y027727D02*
X029807Y027727D01*
X029906Y027629D02*
X029995Y027629D01*
X029543Y026387D02*
X029612Y026129D01*
X029781Y025836D01*
X030021Y025596D01*
X030022Y025596D01*
X028556Y025596D01*
X028488Y025624D01*
X028368Y025624D01*
X028627Y025883D01*
X028627Y026368D01*
X028608Y026387D01*
X028838Y026387D01*
X028962Y026438D01*
X029042Y026519D01*
X029123Y026438D01*
X029247Y026387D01*
X029543Y026387D01*
X029553Y026348D02*
X028627Y026348D01*
X028627Y026250D02*
X029580Y026250D01*
X029606Y026151D02*
X028627Y026151D01*
X028627Y026053D02*
X029656Y026053D01*
X029713Y025954D02*
X028627Y025954D01*
X028600Y025856D02*
X029770Y025856D01*
X029860Y025757D02*
X028501Y025757D01*
X028403Y025659D02*
X029959Y025659D01*
X029114Y026447D02*
X028971Y026447D01*
X027352Y027727D02*
X023432Y027727D01*
X023531Y027629D02*
X023935Y027629D01*
X023836Y027530D02*
X023629Y027530D01*
X023728Y027432D02*
X023738Y027432D01*
X024261Y027126D02*
X024306Y027080D01*
X024306Y025346D01*
X024503Y025149D01*
X025290Y025149D01*
X027259Y023181D01*
X027259Y022689D01*
X027652Y022295D01*
X027554Y021704D02*
X026963Y022295D01*
X026963Y023082D01*
X025093Y024952D01*
X024109Y024952D01*
X023426Y025166D02*
X014922Y025166D01*
X014823Y025265D02*
X023385Y025265D01*
X023379Y025363D02*
X018470Y025363D01*
X018381Y025339D02*
X018043Y025339D01*
X017716Y025427D01*
X017422Y025596D01*
X017183Y025836D01*
X017014Y026129D01*
X016937Y026415D01*
X016870Y026387D01*
X016225Y026387D01*
X016102Y026438D01*
X016007Y026533D01*
X015956Y026656D01*
X015956Y026790D01*
X016007Y026914D01*
X016072Y026979D01*
X016007Y027044D01*
X015956Y027168D01*
X015956Y027429D01*
X016007Y027553D01*
X016135Y027680D01*
X016230Y027775D01*
X016353Y027826D01*
X016743Y027826D01*
X016866Y027775D01*
X017031Y027610D01*
X017060Y027680D01*
X017155Y027775D01*
X017278Y027826D01*
X017412Y027826D01*
X017536Y027775D01*
X017570Y027740D01*
X017716Y027824D01*
X018043Y027912D01*
X018381Y027912D01*
X018709Y027824D01*
X018722Y027816D01*
X018746Y027826D01*
X019135Y027826D01*
X019259Y027775D01*
X019481Y027553D01*
X019532Y027429D01*
X019532Y027295D01*
X019481Y027172D01*
X019415Y027106D01*
X019461Y026933D01*
X019481Y026914D01*
X019532Y026790D01*
X019532Y026656D01*
X019498Y026575D01*
X019498Y026456D01*
X019411Y026129D01*
X019241Y025836D01*
X019002Y025596D01*
X018709Y025427D01*
X018381Y025339D01*
X018769Y025462D02*
X023379Y025462D01*
X023379Y025560D02*
X021388Y025560D01*
X021573Y025659D02*
X023358Y025659D01*
X024801Y025644D02*
X024801Y026126D01*
X024801Y025644D02*
X025099Y025346D01*
X025487Y025346D01*
X027652Y023181D01*
X027652Y022984D01*
X028243Y022984D02*
X028243Y022590D01*
X028636Y022197D01*
X028636Y022886D02*
X028636Y022984D01*
X025881Y025740D01*
X025881Y026126D01*
X025881Y026134D01*
X025684Y025543D02*
X025487Y025543D01*
X025388Y025641D01*
X025388Y027078D01*
X025341Y027126D01*
X025667Y027629D02*
X027175Y027629D01*
X027076Y027530D02*
X026671Y027530D01*
X026785Y027432D02*
X026978Y027432D01*
X026914Y027333D02*
X026849Y027333D01*
X026871Y027235D02*
X026914Y027235D01*
X026914Y027136D02*
X026843Y027136D01*
X026871Y027038D02*
X026914Y027038D01*
X026914Y026939D02*
X026871Y026939D01*
X026843Y026841D02*
X026956Y026841D01*
X027055Y026742D02*
X026843Y026742D01*
X026421Y027126D02*
X026421Y028544D01*
X026654Y029628D02*
X026398Y030140D01*
X026909Y030140D02*
X026654Y029628D01*
X027196Y029884D02*
X027707Y029884D01*
X027707Y029756D02*
X027707Y030012D01*
X027579Y030140D01*
X027324Y030140D01*
X027196Y030012D01*
X027196Y029884D01*
X027324Y029628D02*
X027579Y029628D01*
X027707Y029756D01*
X027988Y030140D02*
X028116Y030140D01*
X028372Y029884D01*
X028372Y029628D02*
X028372Y030140D01*
X029455Y030395D02*
X029455Y029628D01*
X029967Y029628D02*
X029967Y030395D01*
X029711Y030140D01*
X029455Y030395D01*
X030253Y030267D02*
X030253Y029756D01*
X030381Y029628D01*
X030636Y029628D01*
X030764Y029756D01*
X030764Y030267D01*
X030636Y030395D01*
X030381Y030395D01*
X030253Y030267D01*
X031050Y030267D02*
X031178Y030395D01*
X031434Y030395D01*
X031562Y030267D01*
X031562Y029756D01*
X031434Y029628D01*
X031178Y029628D01*
X031050Y029756D01*
X031833Y029756D02*
X031833Y029628D01*
X031960Y029628D01*
X031960Y029756D01*
X031833Y029756D01*
X032247Y029628D02*
X032247Y030140D01*
X032502Y030395D01*
X032758Y030140D01*
X032758Y029628D01*
X033044Y029756D02*
X033044Y030012D01*
X033300Y030012D01*
X033556Y030267D02*
X033428Y030395D01*
X033172Y030395D01*
X033044Y030267D01*
X032758Y030012D02*
X032247Y030012D01*
X033044Y029756D02*
X033172Y029628D01*
X033428Y029628D01*
X033556Y029756D01*
X033556Y030267D01*
X033842Y030267D02*
X033842Y030012D01*
X033970Y029884D01*
X034353Y029884D01*
X034353Y029628D02*
X034353Y030395D01*
X033970Y030395D01*
X033842Y030267D01*
X034639Y030395D02*
X035151Y030395D01*
X035151Y029628D01*
X035437Y029756D02*
X035565Y029628D01*
X035820Y029628D01*
X035948Y029756D01*
X035948Y030267D01*
X035820Y030395D01*
X035565Y030395D01*
X035437Y030267D01*
X035151Y030012D02*
X034895Y030012D01*
X036234Y030012D02*
X036362Y029884D01*
X036746Y029884D01*
X036746Y029628D02*
X036746Y030395D01*
X036362Y030395D01*
X036234Y030267D01*
X036234Y030012D01*
X037032Y030267D02*
X037160Y030395D01*
X037415Y030395D01*
X037543Y030267D01*
X037543Y029756D01*
X037415Y029628D01*
X037160Y029628D01*
X037032Y029756D01*
X035723Y028693D02*
X036707Y027708D01*
X036883Y027727D02*
X035789Y027727D01*
X035619Y027826D02*
X036981Y027826D01*
X037094Y027924D02*
X033368Y027924D01*
X033481Y027826D02*
X033632Y027826D01*
X034024Y027826D02*
X034429Y027826D01*
X034259Y027727D02*
X034194Y027727D01*
X034739Y027708D02*
X033755Y028693D01*
X035723Y028693D01*
X035227Y027826D02*
X034949Y027826D01*
X034739Y027708D02*
X033361Y025248D01*
X033361Y024756D01*
X033459Y024657D01*
X033459Y022787D01*
X030979Y022787D01*
X030113Y022197D02*
X030113Y023968D01*
X029818Y024263D01*
X029507Y024263D01*
X029030Y023082D02*
X029030Y021409D01*
X028243Y022984D02*
X025684Y025543D01*
X024896Y024756D02*
X014857Y024756D01*
X014463Y025149D01*
X014463Y026025D01*
X014362Y026126D01*
X014823Y025757D02*
X014982Y025757D01*
X015080Y025659D02*
X014799Y025659D01*
X014799Y025560D02*
X015179Y025560D01*
X014799Y025462D02*
X017656Y025462D01*
X017485Y025560D02*
X015706Y025560D01*
X015804Y025659D02*
X017360Y025659D01*
X017262Y025757D02*
X015903Y025757D01*
X016001Y025856D02*
X017171Y025856D01*
X017115Y025954D02*
X016028Y025954D01*
X016028Y026053D02*
X017058Y026053D01*
X017008Y026151D02*
X016028Y026151D01*
X016028Y026250D02*
X016981Y026250D01*
X016955Y026348D02*
X016028Y026348D01*
X016093Y026447D02*
X015950Y026447D01*
X016002Y026545D02*
X015852Y026545D01*
X015753Y026644D02*
X015961Y026644D01*
X015956Y026742D02*
X015545Y026742D01*
X015545Y026841D02*
X015977Y026841D01*
X016033Y026939D02*
X015545Y026939D01*
X015545Y027038D02*
X016013Y027038D01*
X015969Y027136D02*
X015545Y027136D01*
X015545Y027235D02*
X015956Y027235D01*
X015956Y027333D02*
X015545Y027333D01*
X015545Y027432D02*
X015957Y027432D01*
X015998Y027530D02*
X015545Y027530D01*
X015515Y027629D02*
X016083Y027629D01*
X016182Y027727D02*
X015447Y027727D01*
X015276Y027826D02*
X016352Y027826D01*
X016744Y027826D02*
X017277Y027826D01*
X017413Y027826D02*
X017721Y027826D01*
X017107Y027727D02*
X016914Y027727D01*
X017012Y027629D02*
X017039Y027629D01*
X018703Y027826D02*
X018745Y027826D01*
X019136Y027826D02*
X020457Y027826D01*
X020593Y027826D02*
X021531Y027826D01*
X021361Y027727D02*
X021284Y027727D01*
X021001Y027727D02*
X020901Y027727D01*
X020901Y027629D02*
X021001Y027629D01*
X020287Y027727D02*
X019306Y027727D01*
X019405Y027629D02*
X020188Y027629D01*
X020090Y027530D02*
X019490Y027530D01*
X019531Y027432D02*
X019991Y027432D01*
X019947Y027333D02*
X019532Y027333D01*
X019507Y027235D02*
X019933Y027235D01*
X019920Y027136D02*
X019446Y027136D01*
X019433Y027038D02*
X019876Y027038D01*
X019843Y026939D02*
X019460Y026939D01*
X019511Y026841D02*
X019820Y026841D01*
X019806Y026742D02*
X019532Y026742D01*
X019527Y026644D02*
X020129Y026644D01*
X019802Y026545D02*
X019498Y026545D01*
X019496Y026447D02*
X019813Y026447D01*
X019834Y026348D02*
X019469Y026348D01*
X019443Y026250D02*
X019864Y026250D01*
X019903Y026151D02*
X019417Y026151D01*
X019367Y026053D02*
X019952Y026053D01*
X020015Y025954D02*
X019310Y025954D01*
X019253Y025856D02*
X020094Y025856D01*
X020195Y025757D02*
X019163Y025757D01*
X019064Y025659D02*
X020328Y025659D01*
X020513Y025560D02*
X018939Y025560D01*
X017954Y025363D02*
X014799Y025363D01*
X013822Y027126D02*
X013822Y028347D01*
X014070Y028594D01*
X014169Y029628D02*
X014169Y030140D01*
X013883Y030395D02*
X013755Y030395D01*
X013755Y029628D01*
X013883Y029628D02*
X013627Y029628D01*
X013224Y029628D02*
X013224Y030267D01*
X013096Y030395D01*
X013096Y030012D02*
X013351Y030012D01*
X014169Y029628D02*
X014553Y029628D01*
X014681Y029756D01*
X014681Y030140D01*
X014967Y030012D02*
X014967Y029628D01*
X014967Y030012D02*
X015095Y030140D01*
X015478Y030140D01*
X015478Y029628D01*
X015764Y029628D02*
X016148Y029628D01*
X016276Y029756D01*
X016148Y029884D01*
X015764Y029884D01*
X015764Y030012D02*
X015764Y029628D01*
X015764Y030012D02*
X015892Y030140D01*
X016148Y030140D01*
X016562Y030267D02*
X016562Y030012D01*
X016690Y029884D01*
X017073Y029884D01*
X016818Y029884D02*
X016562Y029628D01*
X017073Y029628D02*
X017073Y030395D01*
X016690Y030395D01*
X016562Y030267D01*
X018157Y030267D02*
X018285Y030395D01*
X018540Y030395D01*
X018668Y030267D01*
X018157Y030267D02*
X018157Y030140D01*
X018668Y029628D01*
X018157Y029628D01*
X018955Y029628D02*
X019466Y029628D01*
X019210Y029628D02*
X019210Y030395D01*
X019466Y030140D01*
X019752Y030267D02*
X019752Y029756D01*
X019880Y029628D01*
X020136Y029628D01*
X020263Y029756D01*
X019752Y030267D01*
X019880Y030395D01*
X020136Y030395D01*
X020263Y030267D01*
X020263Y029756D01*
X020550Y029628D02*
X021061Y029628D01*
X020550Y030140D01*
X020550Y030267D01*
X020677Y030395D01*
X020933Y030395D01*
X021061Y030267D01*
X022134Y030140D02*
X022134Y029884D01*
X022390Y029628D01*
X022676Y029628D02*
X023060Y029628D01*
X023188Y029756D01*
X023188Y030012D01*
X023060Y030140D01*
X022676Y030140D01*
X022390Y030395D02*
X022134Y030140D01*
X023464Y030395D02*
X023719Y030140D01*
X023719Y029884D01*
X023464Y029628D01*
X024803Y029628D02*
X025314Y029628D01*
X025059Y029628D02*
X025059Y030395D01*
X025314Y030140D01*
X025015Y027629D02*
X024587Y027629D01*
X024705Y027530D02*
X024873Y027530D01*
X025879Y027530D02*
X025959Y027530D01*
X026961Y026126D02*
X026865Y026030D01*
X026865Y025248D01*
X029030Y023082D01*
X031507Y024263D02*
X031605Y024165D01*
X031983Y024165D01*
X032573Y023378D01*
X033656Y024263D02*
X033951Y024559D01*
X033951Y025248D01*
X034739Y026035D01*
X034739Y026051D01*
X034346Y026447D02*
X034154Y026447D01*
X034146Y026438D02*
X034241Y026533D01*
X034368Y026661D01*
X034371Y026667D01*
X034381Y026663D01*
X034431Y026643D01*
X034550Y026643D01*
X034574Y026586D01*
X034423Y026524D01*
X034266Y026367D01*
X034181Y026162D01*
X034181Y025953D01*
X033666Y025438D01*
X033615Y025315D01*
X033615Y024698D01*
X033498Y024581D01*
X033444Y024713D01*
X032629Y025528D01*
X032465Y025596D01*
X031599Y025596D01*
X031600Y025596D01*
X031840Y025836D01*
X032009Y026129D01*
X032097Y026456D01*
X032097Y026554D01*
X032329Y026322D01*
X032674Y026179D01*
X033048Y026179D01*
X033393Y026322D01*
X033509Y026438D01*
X033509Y026438D01*
X033633Y026387D01*
X034022Y026387D01*
X034146Y026438D01*
X034258Y026348D02*
X033419Y026348D01*
X033219Y026250D02*
X034217Y026250D01*
X034181Y026151D02*
X032015Y026151D01*
X032041Y026250D02*
X032503Y026250D01*
X032303Y026348D02*
X032068Y026348D01*
X032094Y026447D02*
X032204Y026447D01*
X032106Y026545D02*
X032097Y026545D01*
X031965Y026053D02*
X034181Y026053D01*
X034181Y025954D02*
X031908Y025954D01*
X031851Y025856D02*
X034084Y025856D01*
X033985Y025757D02*
X031761Y025757D01*
X031663Y025659D02*
X033887Y025659D01*
X033788Y025560D02*
X032551Y025560D01*
X032695Y025462D02*
X033690Y025462D01*
X033635Y025363D02*
X032794Y025363D01*
X032892Y025265D02*
X033615Y025265D01*
X033615Y025166D02*
X032991Y025166D01*
X033089Y025068D02*
X033615Y025068D01*
X033615Y024969D02*
X033188Y024969D01*
X033286Y024871D02*
X033615Y024871D01*
X033615Y024772D02*
X033385Y024772D01*
X033460Y024674D02*
X033591Y024674D01*
X033656Y024263D02*
X033656Y021212D01*
X033558Y021114D01*
X033558Y021015D01*
X034542Y022590D02*
X034542Y023968D01*
X034739Y024165D01*
X035526Y024165D01*
X035723Y024362D01*
X035723Y025263D01*
X036119Y024871D02*
X038586Y024871D01*
X038586Y024969D02*
X036205Y024969D01*
X036246Y025068D02*
X038586Y025068D01*
X038586Y025166D02*
X036281Y025166D01*
X036281Y025265D02*
X038586Y025265D01*
X038586Y025363D02*
X036281Y025363D01*
X036245Y025462D02*
X038586Y025462D01*
X038586Y025560D02*
X036204Y025560D01*
X036120Y025659D02*
X038586Y025659D01*
X038586Y025757D02*
X036205Y025757D01*
X036246Y025856D02*
X038586Y025856D01*
X038586Y025954D02*
X036281Y025954D01*
X036281Y026053D02*
X038586Y026053D01*
X038586Y026151D02*
X036281Y026151D01*
X036245Y026250D02*
X037243Y026250D01*
X037043Y026348D02*
X036204Y026348D01*
X036059Y024772D02*
X038586Y024772D01*
X038586Y024674D02*
X037450Y024674D01*
X037151Y024674D02*
X037051Y024674D01*
X037051Y024575D02*
X037151Y024575D01*
X037151Y024477D02*
X037051Y024477D01*
X037051Y024378D02*
X037151Y024378D01*
X037151Y024280D02*
X037051Y024280D01*
X037051Y024181D02*
X037151Y024181D01*
X037151Y024083D02*
X037051Y024083D01*
X037051Y023984D02*
X037151Y023984D01*
X037151Y023886D02*
X037051Y023886D01*
X037051Y023787D02*
X037151Y023787D01*
X037151Y023689D02*
X037051Y023689D01*
X037051Y023590D02*
X037151Y023590D01*
X037151Y023492D02*
X037051Y023492D01*
X037051Y023393D02*
X037151Y023393D01*
X037151Y023295D02*
X037051Y023295D01*
X037051Y023196D02*
X037151Y023196D01*
X037151Y023098D02*
X037051Y023098D01*
X037051Y022901D02*
X037151Y022901D01*
X037151Y022802D02*
X037051Y022802D01*
X037051Y022704D02*
X037151Y022704D01*
X037151Y022605D02*
X037051Y022605D01*
X037051Y022507D02*
X037151Y022507D01*
X037151Y022408D02*
X037051Y022408D01*
X037051Y022310D02*
X037151Y022310D01*
X037151Y022211D02*
X037051Y022211D01*
X037051Y022113D02*
X037151Y022113D01*
X037151Y022014D02*
X037051Y022014D01*
X037051Y021916D02*
X037151Y021916D01*
X037151Y021817D02*
X037051Y021817D01*
X037051Y021719D02*
X037151Y021719D01*
X037151Y021620D02*
X037051Y021620D01*
X037051Y021522D02*
X037151Y021522D01*
X037151Y021423D02*
X037051Y021423D01*
X037051Y021325D02*
X037151Y021325D01*
X037573Y021325D02*
X038586Y021325D01*
X038586Y021423D02*
X037835Y021423D01*
X038018Y021522D02*
X038586Y021522D01*
X038586Y021620D02*
X038159Y021620D01*
X038275Y021719D02*
X038586Y021719D01*
X038586Y021817D02*
X038374Y021817D01*
X038456Y021916D02*
X038586Y021916D01*
X038586Y022014D02*
X038528Y022014D01*
X038572Y023886D02*
X038586Y023886D01*
X038586Y023984D02*
X038506Y023984D01*
X038431Y024083D02*
X038586Y024083D01*
X038586Y024181D02*
X038343Y024181D01*
X038240Y024280D02*
X038586Y024280D01*
X038586Y024378D02*
X038117Y024378D01*
X037965Y024477D02*
X038586Y024477D01*
X038586Y024575D02*
X037770Y024575D01*
X036752Y024674D02*
X036059Y024674D01*
X036059Y024575D02*
X036432Y024575D01*
X036237Y024477D02*
X036059Y024477D01*
X036059Y024378D02*
X036085Y024378D01*
X035573Y023787D02*
X034878Y023787D01*
X034878Y023689D02*
X035527Y023689D01*
X035486Y023590D02*
X034878Y023590D01*
X034878Y023492D02*
X035451Y023492D01*
X035425Y023393D02*
X034878Y023393D01*
X034878Y023295D02*
X035404Y023295D01*
X035388Y023196D02*
X034878Y023196D01*
X034878Y023098D02*
X035380Y023098D01*
X037959Y026250D02*
X038586Y026250D01*
X038586Y026348D02*
X038159Y026348D01*
X038258Y026447D02*
X038586Y026447D01*
X038586Y026545D02*
X038356Y026545D01*
X038421Y026644D02*
X038586Y026644D01*
X038586Y026742D02*
X038462Y026742D01*
X038503Y026841D02*
X038586Y026841D01*
X038586Y026939D02*
X038540Y026939D01*
X038540Y027038D02*
X038586Y027038D01*
X038586Y027136D02*
X038540Y027136D01*
X038540Y027235D02*
X038586Y027235D01*
X038586Y027333D02*
X038528Y027333D01*
X038487Y027432D02*
X038586Y027432D01*
X038586Y027530D02*
X038447Y027530D01*
X038406Y027629D02*
X038586Y027629D01*
X038586Y027727D02*
X038319Y027727D01*
X038221Y027826D02*
X038586Y027826D01*
X038586Y027924D02*
X038108Y027924D01*
X037870Y028023D02*
X038586Y028023D01*
X038586Y028121D02*
X007189Y028121D01*
X007230Y028023D02*
X032592Y028023D01*
X032354Y027924D02*
X007259Y027924D01*
X007259Y027826D02*
X009706Y027826D01*
X009536Y027727D02*
X008686Y027727D01*
X008917Y027629D02*
X009437Y027629D01*
X008804Y028250D02*
X008755Y028299D01*
X008755Y028200D02*
X008459Y028200D01*
X008361Y028299D01*
X008361Y028102D01*
X008402Y027727D02*
X008302Y027727D01*
X008302Y027629D02*
X008402Y027629D01*
X008018Y027727D02*
X007259Y027727D01*
X007246Y027629D02*
X007787Y027629D01*
X007600Y027530D02*
X007418Y027530D01*
X007148Y028220D02*
X038586Y028220D01*
X038586Y028318D02*
X007050Y028318D01*
X006951Y028417D02*
X038586Y028417D01*
X038586Y028515D02*
X006725Y028515D01*
X006335Y028515D02*
X005662Y028515D01*
X005888Y028417D02*
X006109Y028417D01*
X006011Y028318D02*
X005987Y028318D01*
X005467Y027807D02*
X006530Y027807D01*
X006589Y027748D01*
X006786Y028909D02*
X002151Y028909D01*
X002151Y028811D02*
X038586Y028811D01*
X038586Y028712D02*
X002151Y028712D01*
X002151Y028614D02*
X038586Y028614D01*
X037332Y028023D02*
X033130Y028023D01*
X033755Y028693D02*
X028833Y028693D01*
X028636Y028496D01*
X031631Y027826D02*
X032037Y027826D01*
X031867Y027727D02*
X031801Y027727D01*
X034253Y026545D02*
X034475Y026545D01*
X034428Y026644D02*
X034351Y026644D01*
X028694Y019892D02*
X028833Y019753D01*
X028833Y019047D01*
X029424Y019047D01*
X029737Y018734D01*
X029376Y018734D01*
X029270Y018690D01*
X029190Y018610D01*
X029146Y018505D01*
X029146Y018014D01*
X029190Y017909D01*
X029270Y017829D01*
X029376Y017785D01*
X029866Y017785D01*
X029971Y017829D01*
X030051Y017909D01*
X030095Y018014D01*
X030095Y018022D01*
X031091Y018022D01*
X031042Y018001D01*
X030962Y017921D01*
X030918Y017816D01*
X030918Y017326D01*
X030918Y017324D01*
X030918Y017323D01*
X030918Y017218D01*
X029259Y017218D01*
X029135Y017167D01*
X029040Y017072D01*
X028931Y016962D01*
X028687Y016962D01*
X028582Y016919D01*
X028579Y016916D01*
X028579Y019892D01*
X028694Y019892D01*
X028739Y019847D02*
X028579Y019847D01*
X028579Y019749D02*
X028833Y019749D01*
X028833Y019650D02*
X028579Y019650D01*
X028579Y019552D02*
X028833Y019552D01*
X028833Y019453D02*
X028579Y019453D01*
X028579Y019355D02*
X028833Y019355D01*
X028833Y019441D02*
X028636Y019081D01*
X028474Y019081D01*
X028440Y019047D01*
X028440Y015897D01*
X029818Y015897D01*
X032180Y013535D01*
X032024Y013543D02*
X032434Y013543D01*
X032434Y013445D02*
X032024Y013445D01*
X032007Y013642D02*
X032434Y013642D01*
X032434Y013740D02*
X031958Y013740D01*
X031860Y013839D02*
X032434Y013839D01*
X032228Y013937D02*
X032131Y013937D01*
X032131Y014036D02*
X032228Y014036D01*
X032228Y014134D02*
X032131Y014134D01*
X032131Y014233D02*
X032228Y014233D01*
X032131Y014331D02*
X031367Y014331D01*
X031466Y014233D02*
X031833Y014233D01*
X031833Y014134D02*
X031564Y014134D01*
X031663Y014036D02*
X031836Y014036D01*
X031907Y013937D02*
X031761Y013937D01*
X031833Y014430D02*
X031269Y014430D01*
X031392Y014913D02*
X032180Y014913D01*
X032180Y014952D01*
X033164Y015897D02*
X033755Y016488D01*
X035329Y016488D01*
X035822Y016980D01*
X035822Y017767D01*
X036220Y017385D02*
X036545Y017385D01*
X036545Y017483D02*
X036280Y017483D01*
X036296Y017582D02*
X036544Y017582D01*
X036542Y017680D02*
X036296Y017680D01*
X036296Y017779D02*
X036540Y017779D01*
X036505Y017877D02*
X036296Y017877D01*
X036296Y017976D02*
X036409Y017976D01*
X036409Y018074D02*
X036270Y018074D01*
X036197Y018173D02*
X036409Y018173D01*
X036409Y018271D02*
X035203Y018271D01*
X035301Y018173D02*
X035446Y018173D01*
X035104Y018370D02*
X036409Y018370D01*
X036418Y018468D02*
X035006Y018468D01*
X034907Y018567D02*
X036516Y018567D01*
X036526Y018665D02*
X034878Y018665D01*
X034878Y018764D02*
X036525Y018764D01*
X036520Y018862D02*
X034878Y018862D01*
X034878Y018961D02*
X036421Y018961D01*
X036409Y019059D02*
X034878Y019059D01*
X034878Y019158D02*
X036409Y019158D01*
X036409Y019256D02*
X034878Y019256D01*
X034878Y019355D02*
X036409Y019355D01*
X036409Y019453D02*
X034878Y019453D01*
X034878Y019552D02*
X036501Y019552D01*
X036545Y017286D02*
X036158Y017286D01*
X036158Y017188D02*
X036550Y017188D01*
X036545Y017089D02*
X036158Y017089D01*
X036158Y016991D02*
X036553Y016991D01*
X036555Y016892D02*
X036149Y016892D01*
X036108Y016794D02*
X036556Y016794D01*
X036558Y016695D02*
X036012Y016695D01*
X035914Y016597D02*
X036546Y016597D01*
X036448Y016498D02*
X035815Y016498D01*
X035717Y016400D02*
X036409Y016400D01*
X036409Y016301D02*
X035618Y016301D01*
X035520Y016203D02*
X036409Y016203D01*
X036409Y016104D02*
X033846Y016104D01*
X033748Y016006D02*
X036409Y016006D01*
X036475Y015907D02*
X033649Y015907D01*
X033551Y015809D02*
X036572Y015809D01*
X036574Y015710D02*
X033500Y015710D01*
X033500Y015612D02*
X036561Y015612D01*
X036463Y015513D02*
X033500Y015513D01*
X033500Y015415D02*
X036409Y015415D01*
X036409Y015316D02*
X033500Y015316D01*
X033500Y015218D02*
X036409Y015218D01*
X036409Y015119D02*
X033500Y015119D01*
X033500Y015021D02*
X036409Y015021D01*
X036460Y014922D02*
X033500Y014922D01*
X033500Y014824D02*
X036558Y014824D01*
X036590Y014725D02*
X033500Y014725D01*
X033500Y014627D02*
X036576Y014627D01*
X036478Y014528D02*
X035511Y014528D01*
X035582Y014430D02*
X036409Y014430D01*
X036409Y014331D02*
X035607Y014331D01*
X035329Y013929D02*
X036707Y013929D01*
X036995Y014216D01*
X037003Y014224D01*
X036711Y013535D02*
X036711Y013500D01*
X036995Y013216D01*
X036711Y013535D02*
X035526Y013535D01*
X035329Y013929D02*
X035133Y014126D01*
X035052Y013642D02*
X033500Y013642D01*
X033500Y013740D02*
X034737Y013740D01*
X034676Y013839D02*
X033500Y013839D01*
X033500Y013937D02*
X034658Y013937D01*
X034658Y014036D02*
X033500Y014036D01*
X033500Y014134D02*
X034658Y014134D01*
X034658Y014233D02*
X033500Y014233D01*
X033500Y014331D02*
X034658Y014331D01*
X034683Y014430D02*
X033500Y014430D01*
X033500Y014528D02*
X034754Y014528D01*
X034655Y013543D02*
X033500Y013543D01*
X033500Y013445D02*
X034584Y013445D01*
X035034Y013141D02*
X036117Y013141D01*
X036707Y012551D01*
X036892Y012354D01*
X036995Y012252D01*
X036995Y012216D01*
X036225Y011573D02*
X034288Y011573D01*
X034288Y011475D02*
X036324Y011475D01*
X036409Y011376D02*
X034372Y011376D01*
X034430Y011278D02*
X036409Y011278D01*
X036409Y011179D02*
X034445Y011179D01*
X034445Y011081D02*
X036409Y011081D01*
X036409Y010982D02*
X034445Y010982D01*
X034445Y010884D02*
X036498Y010884D01*
X036597Y010785D02*
X034445Y010785D01*
X034435Y010687D02*
X036636Y010687D01*
X036538Y010588D02*
X034384Y010588D01*
X034235Y010490D02*
X036439Y010490D01*
X036995Y011216D02*
X036995Y011279D01*
X035822Y012452D01*
X035822Y012748D01*
X035526Y012748D01*
X035536Y012263D02*
X034272Y012263D01*
X034288Y012164D02*
X035634Y012164D01*
X035733Y012066D02*
X034288Y012066D01*
X034288Y011967D02*
X035831Y011967D01*
X035930Y011869D02*
X034288Y011869D01*
X034288Y011770D02*
X036028Y011770D01*
X036127Y011672D02*
X034288Y011672D01*
X033951Y012157D02*
X033164Y012945D01*
X033164Y015897D01*
X033066Y016980D02*
X032869Y017177D01*
X033066Y016980D02*
X034739Y016980D01*
X034739Y017078D01*
X033459Y017374D02*
X033164Y017669D01*
X032180Y017669D02*
X031885Y017964D01*
X032180Y017669D02*
X032180Y016488D01*
X030211Y016488D01*
X030014Y016291D01*
X029719Y016685D02*
X031885Y016685D01*
X031885Y017571D01*
X031392Y017571D01*
X030918Y017582D02*
X028579Y017582D01*
X028579Y017680D02*
X030918Y017680D01*
X030918Y017779D02*
X028579Y017779D01*
X028579Y017877D02*
X029222Y017877D01*
X029162Y017976D02*
X028579Y017976D01*
X028579Y018074D02*
X029146Y018074D01*
X029146Y018173D02*
X028579Y018173D01*
X028579Y018271D02*
X029146Y018271D01*
X029146Y018370D02*
X028579Y018370D01*
X028579Y018468D02*
X029146Y018468D01*
X029172Y018567D02*
X028579Y018567D01*
X028579Y018665D02*
X029245Y018665D01*
X029510Y018961D02*
X028579Y018961D01*
X028579Y019059D02*
X028833Y019059D01*
X028833Y019158D02*
X028579Y019158D01*
X028636Y019081D02*
X029389Y019081D01*
X029719Y018752D01*
X029707Y018764D02*
X028579Y018764D01*
X028579Y018862D02*
X029609Y018862D01*
X029621Y018358D02*
X029621Y018260D01*
X029621Y018358D02*
X031294Y018358D01*
X031983Y019047D01*
X031017Y017976D02*
X030079Y017976D01*
X030019Y017877D02*
X030944Y017877D01*
X030918Y017483D02*
X028579Y017483D01*
X028579Y017385D02*
X030918Y017385D01*
X030918Y017286D02*
X028579Y017286D01*
X028579Y017188D02*
X029186Y017188D01*
X029058Y017089D02*
X028579Y017089D01*
X028579Y016991D02*
X028959Y016991D01*
X029325Y016882D02*
X031589Y016882D01*
X031392Y017078D01*
X029719Y016685D02*
X029522Y016488D01*
X029325Y016882D02*
X028932Y016488D01*
X028833Y019256D02*
X028579Y019256D01*
X026924Y019244D02*
X026274Y019244D01*
X025287Y018764D02*
X025281Y018764D01*
X025281Y018665D02*
X025337Y018665D01*
X025337Y018567D02*
X025281Y018567D01*
X023715Y019736D02*
X021944Y019736D01*
X020977Y019453D02*
X020942Y019453D01*
X020942Y019355D02*
X020977Y019355D01*
X020993Y019256D02*
X020942Y019256D01*
X021717Y018370D02*
X021794Y018370D01*
X021796Y018271D02*
X021651Y018271D01*
X022812Y017680D02*
X023122Y017680D01*
X023081Y017582D02*
X022812Y017582D01*
X022812Y017483D02*
X023072Y017483D01*
X023072Y017385D02*
X022812Y017385D01*
X022795Y017286D02*
X023072Y017286D01*
X023072Y017188D02*
X022735Y017188D01*
X022978Y017779D02*
X023075Y017779D01*
X023075Y017877D02*
X022978Y017877D01*
X023072Y015710D02*
X019585Y015710D01*
X019778Y014323D02*
X019680Y014224D01*
X019188Y014224D01*
X019053Y013839D02*
X020091Y013839D01*
X020091Y013740D02*
X019567Y013740D01*
X019638Y013642D02*
X020091Y013642D01*
X020566Y013732D02*
X022081Y013732D01*
X022573Y013240D01*
X022633Y013082D01*
X022633Y012649D01*
X022722Y012164D02*
X022788Y012164D01*
X022788Y012066D02*
X022722Y012066D01*
X023461Y011649D02*
X023461Y011115D01*
X023565Y011115D01*
X023565Y011282D01*
X023864Y011282D01*
X023864Y011379D01*
X023565Y011379D01*
X023565Y011535D01*
X023553Y011541D01*
X023473Y011621D01*
X023461Y011649D01*
X023461Y011573D02*
X023520Y011573D01*
X023565Y011475D02*
X023461Y011475D01*
X023461Y011376D02*
X023864Y011376D01*
X023912Y011330D02*
X024798Y011330D01*
X024699Y011960D02*
X024306Y012157D01*
X024306Y013141D01*
X023912Y012649D02*
X023912Y012000D01*
X023912Y011330D02*
X023577Y011330D01*
X023518Y011370D01*
X023518Y013535D01*
X023123Y013543D02*
X023056Y013543D01*
X023061Y013642D02*
X022990Y013642D01*
X023044Y013740D02*
X022549Y013740D01*
X022450Y013839D02*
X023044Y013839D01*
X023044Y013937D02*
X022352Y013937D01*
X022227Y014036D02*
X023044Y014036D01*
X023044Y014134D02*
X020944Y014134D01*
X019778Y013141D02*
X019581Y013141D01*
X019680Y012649D02*
X016629Y012649D01*
X015841Y013437D01*
X013652Y013437D01*
X013573Y013515D01*
X013545Y014134D02*
X013602Y014134D01*
X013602Y014233D02*
X013545Y014233D01*
X013545Y014331D02*
X013602Y014331D01*
X014503Y014627D02*
X014865Y014627D01*
X015395Y012263D02*
X019285Y012263D01*
X020074Y012263D02*
X020102Y012263D01*
X020171Y012164D02*
X015477Y012164D01*
X015508Y012066D02*
X020218Y012066D01*
X020218Y011967D02*
X015508Y011967D01*
X015508Y011869D02*
X020195Y011869D01*
X020097Y011770D02*
X015508Y011770D01*
X015508Y011672D02*
X020014Y011672D01*
X019892Y011573D02*
X015482Y011573D01*
X015841Y011862D02*
X018400Y011862D01*
X018338Y010982D02*
X019274Y010982D01*
X019592Y011278D02*
X019689Y011278D01*
X019689Y011376D02*
X019592Y011376D01*
X019592Y011475D02*
X019689Y011475D01*
X020310Y011508D02*
X020310Y011173D01*
X020310Y011508D02*
X020554Y011752D01*
X020554Y012563D01*
X021353Y012649D02*
X021353Y012000D01*
X021353Y011960D01*
X021156Y011960D01*
X020762Y011567D01*
X020762Y010779D01*
X020566Y010582D01*
X022582Y011081D02*
X022788Y011081D01*
X022788Y011179D02*
X022586Y011179D01*
X023461Y011179D02*
X023565Y011179D01*
X023565Y011278D02*
X023461Y011278D01*
X024699Y011960D02*
X024739Y012000D01*
X024798Y012000D01*
X024261Y010096D02*
X023912Y010096D01*
X023912Y009997D02*
X024196Y009997D01*
X024177Y009899D02*
X023912Y009899D01*
X023912Y009800D02*
X024177Y009800D01*
X024177Y009702D02*
X023912Y009702D01*
X023912Y009603D02*
X024177Y009603D01*
X024177Y009505D02*
X023912Y009505D01*
X023912Y009406D02*
X024177Y009406D01*
X024177Y009308D02*
X023912Y009308D01*
X023912Y009209D02*
X024192Y009209D01*
X024196Y009111D02*
X023912Y009111D01*
X023912Y009012D02*
X024177Y009012D01*
X024177Y008914D02*
X023912Y008914D01*
X023912Y008815D02*
X024177Y008815D01*
X024177Y008717D02*
X023912Y008717D01*
X023912Y008618D02*
X024177Y008618D01*
X024177Y008520D02*
X023912Y008520D01*
X024719Y008712D02*
X024719Y008791D01*
X024699Y008811D01*
X024699Y008023D01*
X024699Y007846D01*
X024719Y007826D01*
X025467Y007826D02*
X025467Y008712D01*
X025467Y009598D01*
X026009Y009603D02*
X026146Y009603D01*
X026146Y009505D02*
X026009Y009505D01*
X026009Y009406D02*
X026146Y009406D01*
X026146Y009308D02*
X026009Y009308D01*
X025994Y009209D02*
X026161Y009209D01*
X026146Y009702D02*
X026009Y009702D01*
X026009Y009800D02*
X026146Y009800D01*
X026146Y009899D02*
X026009Y009899D01*
X025990Y009997D02*
X026165Y009997D01*
X026229Y010096D02*
X025926Y010096D01*
X026688Y009598D02*
X026688Y008712D01*
X026077Y008712D01*
X026688Y008712D02*
X026688Y007826D01*
X027436Y007826D02*
X027436Y008712D01*
X027436Y009598D01*
X028243Y008023D02*
X028440Y007826D01*
X029227Y007826D01*
X030085Y006968D01*
X030085Y006480D01*
X030085Y005590D01*
X030802Y005464D02*
X030835Y005431D01*
X030835Y004480D01*
X028585Y006480D02*
X028585Y006677D01*
X027436Y007826D01*
X028203Y007535D02*
X028423Y007535D01*
X028243Y008023D02*
X028636Y008023D01*
X030211Y009598D01*
X030605Y009598D01*
X031392Y008811D01*
X035329Y008811D01*
X035329Y008614D01*
X037101Y006842D01*
X037051Y006747D02*
X037151Y006747D01*
X037151Y006648D02*
X037051Y006648D01*
X037051Y006550D02*
X037151Y006550D01*
X037151Y006451D02*
X037051Y006451D01*
X037051Y006353D02*
X037151Y006353D01*
X037151Y006254D02*
X037051Y006254D01*
X037051Y006156D02*
X037151Y006156D01*
X037151Y006057D02*
X037051Y006057D01*
X037051Y005959D02*
X037151Y005959D01*
X037151Y005860D02*
X037051Y005860D01*
X037051Y005762D02*
X037151Y005762D01*
X037151Y005663D02*
X037051Y005663D01*
X037051Y005565D02*
X037151Y005565D01*
X037151Y005466D02*
X037051Y005466D01*
X037051Y005368D02*
X037151Y005368D01*
X037151Y005269D02*
X037051Y005269D01*
X037051Y005171D02*
X037151Y005171D01*
X037527Y005171D02*
X038586Y005171D01*
X038586Y005269D02*
X037809Y005269D01*
X037997Y005368D02*
X038586Y005368D01*
X038586Y005466D02*
X038143Y005466D01*
X038262Y005565D02*
X038586Y005565D01*
X038586Y005663D02*
X038361Y005663D01*
X038446Y005762D02*
X038586Y005762D01*
X038586Y005860D02*
X038519Y005860D01*
X038583Y005959D02*
X038586Y005959D01*
X038586Y005072D02*
X036729Y005072D01*
X036765Y005030D02*
X036765Y005030D01*
X036785Y004974D02*
X038586Y004974D01*
X038586Y004875D02*
X036821Y004875D01*
X036857Y004777D02*
X038586Y004777D01*
X038586Y004678D02*
X036872Y004678D01*
X036872Y004580D02*
X038586Y004580D01*
X038586Y004481D02*
X036872Y004481D01*
X036904Y004383D02*
X038586Y004383D01*
X038586Y004284D02*
X036968Y004284D01*
X037009Y004186D02*
X038586Y004186D01*
X038586Y004087D02*
X037050Y004087D01*
X037090Y003989D02*
X038586Y003989D01*
X038586Y003890D02*
X037092Y003890D01*
X037092Y003792D02*
X038586Y003792D01*
X038586Y003693D02*
X037092Y003693D01*
X037091Y003595D02*
X038586Y003595D01*
X038586Y003496D02*
X037050Y003496D01*
X037009Y003398D02*
X038586Y003398D01*
X038586Y003299D02*
X036969Y003299D01*
X036906Y003201D02*
X038586Y003201D01*
X036675Y005171D02*
X036647Y005171D01*
X035908Y005466D02*
X034075Y005466D01*
X034078Y005368D02*
X035577Y005368D01*
X035407Y005269D02*
X035407Y005269D01*
X035241Y005072D02*
X034086Y005072D01*
X034089Y004974D02*
X035186Y004974D01*
X035150Y004875D02*
X034092Y004875D01*
X034095Y004777D02*
X035114Y004777D01*
X035099Y004678D02*
X034098Y004678D01*
X034100Y004580D02*
X035099Y004580D01*
X035099Y004481D02*
X034103Y004481D01*
X034106Y004383D02*
X035099Y004383D01*
X035099Y004284D02*
X034109Y004284D01*
X034112Y004186D02*
X035099Y004186D01*
X035099Y004087D02*
X034115Y004087D01*
X034117Y003989D02*
X035099Y003989D01*
X035099Y003890D02*
X034120Y003890D01*
X034123Y003792D02*
X035099Y003792D01*
X035099Y003693D02*
X034126Y003693D01*
X034129Y003595D02*
X035099Y003595D01*
X035099Y003496D02*
X034131Y003496D01*
X034134Y003398D02*
X035099Y003398D01*
X035099Y003299D02*
X034137Y003299D01*
X034140Y003201D02*
X035099Y003201D01*
X034739Y005464D02*
X034739Y007531D01*
X035329Y008122D01*
X035329Y008614D01*
X034895Y008520D02*
X036697Y008520D01*
X036690Y008520D02*
X034895Y008520D01*
X034918Y008421D02*
X036406Y008421D01*
X034918Y008421D01*
X034918Y008323D02*
X036216Y008323D01*
X034918Y008323D01*
X034918Y008224D02*
X036068Y008224D01*
X034918Y008224D01*
X034918Y008126D02*
X035947Y008126D01*
X034918Y008126D01*
X034918Y008027D02*
X035847Y008027D01*
X034918Y008027D01*
X034899Y007929D02*
X035761Y007929D01*
X034899Y007929D01*
X034835Y007830D02*
X035687Y007830D01*
X034835Y007830D01*
X034444Y008220D02*
X033164Y008220D01*
X033422Y007830D02*
X034053Y007830D01*
X034008Y007830D01*
X034010Y007732D02*
X035623Y007732D01*
X033422Y007732D01*
X033422Y007633D02*
X035567Y007633D01*
X034013Y007633D01*
X034016Y007535D02*
X035521Y007535D01*
X033422Y007535D01*
X034041Y006648D02*
X035387Y006648D01*
X035401Y006550D02*
X034044Y006550D01*
X034047Y006451D02*
X035420Y006451D01*
X035447Y006353D02*
X034050Y006353D01*
X034053Y006254D02*
X035480Y006254D01*
X035518Y006156D02*
X034055Y006156D01*
X034058Y006057D02*
X035564Y006057D01*
X035620Y005959D02*
X034061Y005959D01*
X034064Y005860D02*
X035683Y005860D01*
X035756Y005762D02*
X034067Y005762D01*
X034069Y005663D02*
X035841Y005663D01*
X035940Y005565D02*
X034072Y005565D01*
X037051Y006944D02*
X037151Y006944D01*
X037151Y007042D02*
X037051Y007042D01*
X037051Y007141D02*
X037151Y007141D01*
X037151Y007239D02*
X037051Y007239D01*
X037051Y007338D02*
X037151Y007338D01*
X037151Y007436D02*
X037051Y007436D01*
X037051Y007535D02*
X037151Y007535D01*
X037151Y007633D02*
X037051Y007633D01*
X037051Y007732D02*
X037151Y007732D01*
X037151Y007830D02*
X037051Y007830D01*
X037051Y007929D02*
X037151Y007929D01*
X037151Y008027D02*
X037051Y008027D01*
X037051Y008126D02*
X037151Y008126D01*
X037151Y008224D02*
X037051Y008224D01*
X037051Y008323D02*
X037151Y008323D01*
X037151Y008421D02*
X037051Y008421D01*
X037051Y008520D02*
X037151Y008520D01*
X037505Y008520D02*
X038586Y008520D01*
X038586Y008618D02*
X034827Y008618D01*
X036688Y008618D01*
X037796Y008421D02*
X038586Y008421D01*
X038586Y008323D02*
X037986Y008323D01*
X038134Y008224D02*
X038586Y008224D01*
X038586Y008126D02*
X038255Y008126D01*
X038355Y008027D02*
X038586Y008027D01*
X038586Y007929D02*
X038441Y007929D01*
X038515Y007830D02*
X038586Y007830D01*
X038579Y007732D02*
X038586Y007732D01*
X035172Y011330D02*
X035211Y011370D01*
X035723Y011862D01*
X035132Y012361D02*
X034223Y012361D01*
X034124Y012460D02*
X035070Y012460D01*
X035052Y012558D02*
X034026Y012558D01*
X033951Y012157D02*
X033951Y010976D01*
X033668Y010490D02*
X033644Y010490D01*
X032940Y010096D02*
X032024Y010096D01*
X030535Y007633D02*
X030433Y007633D01*
X030346Y007535D02*
X030633Y007535D01*
X027085Y006480D02*
X027085Y005488D01*
X027062Y005464D01*
X025585Y006480D02*
X025585Y007708D01*
X025467Y007826D01*
X024719Y008712D02*
X024719Y009598D01*
X023715Y007630D02*
X024109Y007236D01*
X024085Y007212D01*
X024085Y006480D01*
X023322Y005464D02*
X023335Y005450D01*
X023335Y004480D01*
X022585Y006480D02*
X022585Y006496D01*
X021550Y007531D01*
X021550Y007708D01*
X021432Y007826D01*
X021085Y006480D02*
X021085Y005535D01*
X021156Y005464D01*
X020369Y005464D02*
X020335Y005431D01*
X020335Y004480D01*
X019585Y006480D02*
X019585Y007508D01*
X019266Y007826D01*
X019266Y008712D01*
X017307Y010194D02*
X017223Y010194D01*
X016750Y010785D02*
X015973Y010785D01*
X015973Y010687D02*
X016372Y010687D01*
X016274Y010588D02*
X015999Y010588D01*
X015960Y010884D02*
X016871Y010884D01*
X017478Y010982D02*
X015917Y010982D01*
X012606Y017385D02*
X002151Y017385D01*
X002151Y017483D02*
X012529Y017483D01*
X012500Y017582D02*
X002151Y017582D01*
X002151Y017680D02*
X012500Y017680D01*
X012500Y017779D02*
X002151Y017779D01*
X002151Y017877D02*
X012500Y017877D01*
X012500Y017976D02*
X002151Y017976D01*
X002151Y018074D02*
X012538Y018074D01*
X011712Y018173D02*
X002151Y018173D01*
X002151Y018271D02*
X011614Y018271D01*
X011515Y018370D02*
X002151Y018370D01*
X002151Y018468D02*
X011420Y018468D01*
X011379Y018567D02*
X002151Y018567D01*
X002151Y018665D02*
X011371Y018665D01*
X011371Y018764D02*
X002151Y018764D01*
X002151Y018862D02*
X011371Y018862D01*
X011371Y018961D02*
X002151Y018961D01*
X002151Y019059D02*
X011371Y019059D01*
X011371Y019158D02*
X002151Y019158D01*
X002151Y019256D02*
X011371Y019256D01*
X011371Y019355D02*
X002151Y019355D01*
X002151Y019453D02*
X011371Y019453D01*
X011371Y019552D02*
X002151Y019552D01*
X002151Y019650D02*
X011371Y019650D01*
X011371Y019749D02*
X002151Y019749D01*
X002151Y019847D02*
X011371Y019847D01*
X011371Y019946D02*
X002151Y019946D01*
X002151Y020044D02*
X011371Y020044D01*
X011371Y020143D02*
X002151Y020143D01*
X002151Y020241D02*
X011371Y020241D01*
X011371Y020340D02*
X002151Y020340D01*
X002151Y020438D02*
X011371Y020438D01*
X011371Y020537D02*
X002151Y020537D01*
X002151Y020635D02*
X011371Y020635D01*
X011371Y020734D02*
X002151Y020734D01*
X002151Y020832D02*
X011371Y020832D01*
X011371Y020931D02*
X002151Y020931D01*
X002151Y021029D02*
X011306Y021029D01*
X012298Y021015D02*
X012298Y019637D01*
X012105Y019355D02*
X012044Y019355D01*
X012044Y019256D02*
X012204Y019256D01*
X012302Y019158D02*
X012044Y019158D01*
X012044Y019059D02*
X012586Y019059D01*
X013290Y022014D02*
X013544Y022014D01*
X013446Y022113D02*
X013348Y022113D01*
X013363Y022211D02*
X013380Y022211D01*
X012888Y022393D02*
X012692Y022590D01*
X013261Y022802D02*
X013314Y022802D01*
X010781Y024674D02*
X005358Y024674D01*
X005349Y024772D02*
X010781Y024772D01*
X010781Y024871D02*
X005333Y024871D01*
X005312Y024969D02*
X010781Y024969D01*
X010781Y025068D02*
X005286Y025068D01*
X005714Y025166D02*
X010781Y025166D01*
X010781Y025265D02*
X005770Y025265D01*
X005784Y025363D02*
X010781Y025363D01*
X008402Y025560D02*
X008302Y025560D01*
X008302Y025659D02*
X008402Y025659D01*
X008402Y025757D02*
X008302Y025757D01*
X008302Y025856D02*
X008402Y025856D01*
X008402Y025954D02*
X008302Y025954D01*
X008302Y026053D02*
X008402Y026053D01*
X008402Y026151D02*
X008302Y026151D01*
X008302Y026250D02*
X008402Y026250D01*
X008402Y026348D02*
X008302Y026348D01*
X006786Y029008D02*
X002151Y029008D01*
X002151Y029106D02*
X006786Y029106D01*
X006786Y029205D02*
X006633Y029205D01*
X006349Y029205D02*
X004834Y029205D01*
X004810Y029191D02*
X004884Y029234D01*
X004952Y029286D01*
X005012Y029346D01*
X005064Y029413D01*
X005107Y029487D01*
X005139Y029566D01*
X005161Y029648D01*
X005171Y029725D01*
X004572Y029725D01*
X004572Y029126D01*
X004649Y029136D01*
X004732Y029158D01*
X004810Y029191D01*
X004970Y029303D02*
X006140Y029303D01*
X006042Y029402D02*
X005055Y029402D01*
X005112Y029500D02*
X005975Y029500D01*
X005935Y029599D02*
X005148Y029599D01*
X005168Y029697D02*
X005909Y029697D01*
X005909Y029796D02*
X004572Y029796D01*
X004572Y029825D02*
X005171Y029825D01*
X005161Y029902D01*
X005139Y029985D01*
X005107Y030063D01*
X005064Y030137D01*
X005012Y030205D01*
X004952Y030265D01*
X004884Y030317D01*
X004810Y030359D01*
X004732Y030392D01*
X004649Y030414D01*
X004572Y030424D01*
X004572Y029825D01*
X004472Y029825D01*
X004472Y029725D01*
X003873Y029725D01*
X003883Y029648D01*
X003905Y029566D01*
X003938Y029487D01*
X003981Y029413D01*
X004033Y029346D01*
X004093Y029286D01*
X004160Y029234D01*
X004234Y029191D01*
X004313Y029158D01*
X004395Y029136D01*
X004472Y029126D01*
X004472Y029725D01*
X004572Y029725D01*
X004572Y029825D01*
X004572Y029894D02*
X004472Y029894D01*
X004472Y029825D02*
X004472Y030424D01*
X004395Y030414D01*
X004313Y030392D01*
X004234Y030359D01*
X004160Y030317D01*
X004093Y030265D01*
X004033Y030205D01*
X003981Y030137D01*
X003938Y030063D01*
X003905Y029985D01*
X003883Y029902D01*
X003873Y029825D01*
X004472Y029825D01*
X004472Y029796D02*
X003135Y029796D01*
X003134Y029894D02*
X003882Y029894D01*
X003909Y029993D02*
X003093Y029993D01*
X003052Y030091D02*
X003954Y030091D01*
X004021Y030190D02*
X002962Y030190D01*
X002905Y030288D02*
X004123Y030288D01*
X004300Y030387D02*
X003003Y030387D01*
X003070Y030485D02*
X005975Y030485D01*
X005934Y030584D02*
X003110Y030584D01*
X003135Y030682D02*
X005909Y030682D01*
X005909Y030781D02*
X003135Y030781D01*
X003135Y029697D02*
X003877Y029697D01*
X003897Y029599D02*
X003110Y029599D01*
X003069Y029500D02*
X003933Y029500D01*
X003990Y029402D02*
X003003Y029402D01*
X002904Y029303D02*
X004075Y029303D01*
X004210Y029205D02*
X002696Y029205D01*
X002412Y029205D02*
X002151Y029205D01*
X002151Y029303D02*
X002203Y029303D01*
X002151Y028515D02*
X002320Y028515D01*
X002228Y027136D02*
X002151Y027136D01*
X003577Y027374D02*
X004030Y026921D01*
X005014Y026921D01*
X004973Y026151D02*
X004303Y026151D01*
X004498Y026053D02*
X004973Y026053D01*
X004940Y025954D02*
X004651Y025954D01*
X004774Y025856D02*
X004863Y025856D01*
X007090Y023098D02*
X008854Y023098D01*
X013068Y027629D02*
X014488Y027629D01*
X013863Y027530D02*
X013778Y027530D01*
X012022Y029628D02*
X011639Y029628D01*
X011511Y029756D01*
X011511Y030267D01*
X011639Y030395D01*
X012022Y030395D01*
X012022Y029628D01*
X011225Y029756D02*
X011097Y029628D01*
X010841Y029628D01*
X010713Y029756D01*
X010713Y030012D01*
X010841Y030140D01*
X011097Y030140D01*
X011225Y030012D01*
X011225Y029756D01*
X010427Y029628D02*
X010044Y029628D01*
X009916Y029756D01*
X010044Y029884D01*
X010299Y029884D01*
X010427Y030012D01*
X010299Y030140D01*
X009916Y030140D01*
X009630Y030140D02*
X009630Y029756D01*
X009502Y029628D01*
X009374Y029756D01*
X009246Y029628D01*
X009118Y029756D01*
X009118Y030140D01*
X008832Y030012D02*
X008704Y030140D01*
X008449Y030140D01*
X008321Y030012D01*
X008321Y029884D01*
X008832Y029884D01*
X008832Y029756D02*
X008832Y030012D01*
X008832Y029756D02*
X008704Y029628D01*
X008449Y029628D01*
X008034Y029628D02*
X007779Y029628D01*
X007907Y029628D02*
X007907Y030395D01*
X008034Y030395D01*
X007503Y030395D02*
X007375Y030395D01*
X007375Y029628D01*
X007503Y029628D02*
X007247Y029628D01*
X006140Y030288D02*
X004922Y030288D01*
X005024Y030190D02*
X006083Y030190D01*
X005992Y030091D02*
X005090Y030091D01*
X005136Y029993D02*
X005951Y029993D01*
X005911Y029894D02*
X005162Y029894D01*
X004745Y030387D02*
X006041Y030387D01*
X004572Y030387D02*
X004472Y030387D01*
X004472Y030288D02*
X004572Y030288D01*
X004572Y030190D02*
X004472Y030190D01*
X004472Y030091D02*
X004572Y030091D01*
X004572Y029993D02*
X004472Y029993D01*
X004472Y029697D02*
X004572Y029697D01*
X004572Y029599D02*
X004472Y029599D01*
X004472Y029500D02*
X004572Y029500D01*
X004572Y029402D02*
X004472Y029402D01*
X004472Y029303D02*
X004572Y029303D01*
X004572Y029205D02*
X004472Y029205D01*
X020073Y021606D02*
X020566Y021114D01*
X024896Y024756D02*
X025388Y024263D01*
X025388Y021409D01*
X025487Y021409D01*
X021001Y025560D02*
X020901Y025560D01*
X020901Y025659D02*
X021001Y025659D01*
X021001Y025757D02*
X020901Y025757D01*
X020901Y025856D02*
X021001Y025856D01*
X021001Y025954D02*
X020901Y025954D01*
X020901Y026053D02*
X021001Y026053D01*
X021001Y026151D02*
X020901Y026151D01*
X020901Y026250D02*
X021001Y026250D01*
X021001Y026348D02*
X020901Y026348D01*
X020951Y026626D02*
X020951Y028585D01*
X028760Y013642D02*
X029087Y013642D01*
X028989Y013543D02*
X028859Y013543D01*
X029760Y013642D02*
X030087Y013642D01*
X029989Y013543D02*
X029859Y013543D01*
X030424Y013149D02*
X029924Y012649D01*
X027948Y012649D01*
X027652Y012945D01*
D11*
X027436Y009598D03*
X026688Y009598D03*
X026688Y008712D03*
X027436Y008712D03*
X027436Y007826D03*
X026688Y007826D03*
X025467Y007826D03*
X024719Y007826D03*
X024719Y008712D03*
X025467Y008712D03*
X025467Y009598D03*
X024719Y009598D03*
X021432Y009598D03*
X020684Y009598D03*
X020684Y008712D03*
X021432Y008712D03*
X021432Y007826D03*
X020684Y007826D03*
X019266Y007826D03*
X018518Y007826D03*
X018518Y008712D03*
X019266Y008712D03*
D12*
X011806Y005071D03*
X009148Y004756D03*
X006471Y005071D03*
D13*
X007810Y006252D03*
X008636Y006252D03*
X009660Y006252D03*
X010487Y006252D03*
X010487Y007216D03*
X007810Y007236D03*
D14*
X015636Y007122D03*
X015636Y008122D03*
X015636Y009122D03*
X015636Y010122D03*
X016636Y010122D03*
X016636Y009122D03*
X016636Y008122D03*
X016636Y007122D03*
X016636Y006122D03*
X015636Y006122D03*
X028424Y012149D03*
X029424Y012149D03*
X030424Y012149D03*
X029424Y013149D03*
X028424Y013149D03*
X036995Y013216D03*
X037995Y013216D03*
X037995Y012216D03*
X037995Y011216D03*
X037995Y010216D03*
X036995Y010216D03*
X036995Y011216D03*
X036995Y012216D03*
X036995Y014216D03*
X037995Y014216D03*
X037995Y015216D03*
X037995Y016216D03*
X037995Y017216D03*
X037995Y018216D03*
X037995Y019216D03*
X036995Y019216D03*
X036995Y018216D03*
X036995Y017216D03*
X036995Y016216D03*
X036995Y015216D03*
X028041Y026126D03*
X026961Y026126D03*
X025881Y026126D03*
X024801Y026126D03*
X023721Y026126D03*
X024261Y027126D03*
X025341Y027126D03*
X026421Y027126D03*
X027501Y027126D03*
X015442Y026126D03*
X014362Y026126D03*
X013282Y026126D03*
X012202Y026126D03*
X011122Y026126D03*
X011662Y027126D03*
X012742Y027126D03*
X013822Y027126D03*
X014902Y027126D03*
D15*
X018212Y026626D03*
X020951Y026626D03*
X030811Y026626D03*
X008352Y026626D03*
D16*
X017908Y010464D03*
X017908Y009716D03*
D17*
X021353Y011330D03*
X021353Y012000D03*
X022239Y012000D03*
X022239Y011330D03*
X023912Y011330D03*
X023912Y012000D03*
X024798Y012000D03*
X024798Y011330D03*
X025487Y013693D03*
X025487Y014362D03*
X024798Y018023D03*
X024798Y018693D03*
X023912Y018515D03*
X023912Y019185D03*
X023026Y018791D03*
X023026Y018122D03*
X022140Y018515D03*
X022140Y019185D03*
X021255Y018693D03*
X021255Y018023D03*
X019877Y018515D03*
X019877Y019185D03*
X016235Y019303D03*
X016235Y019972D03*
X025684Y019185D03*
X025684Y018515D03*
X032180Y014952D03*
X032180Y014283D03*
D18*
X027593Y013535D03*
X026924Y013535D03*
X027022Y016291D03*
X027692Y016291D03*
X027593Y019244D03*
X026924Y019244D03*
X022573Y013240D03*
X021904Y013240D03*
X020310Y011173D03*
X019640Y011173D03*
X018636Y013437D03*
X017967Y013437D03*
X017967Y016094D03*
X018636Y016094D03*
X018636Y019244D03*
X017967Y019244D03*
D19*
X032861Y027118D03*
X037601Y027118D03*
D20*
X035723Y026051D03*
X034739Y026051D03*
X034739Y025263D03*
X035723Y025263D03*
D21*
X005833Y006981D03*
X003863Y005801D03*
X003863Y008161D03*
D22*
X013900Y022487D02*
X013900Y023087D01*
X014900Y023087D02*
X014900Y022487D01*
X015900Y022487D02*
X015900Y023087D01*
X016900Y023087D02*
X016900Y022487D01*
X017900Y022487D02*
X017900Y023087D01*
X018900Y023087D02*
X018900Y022487D01*
X019900Y022487D02*
X019900Y023087D01*
X020900Y023087D02*
X020900Y022487D01*
X021900Y022487D02*
X021900Y023087D01*
X022900Y023087D02*
X022900Y022487D01*
D23*
X029507Y024073D02*
X029507Y024453D01*
X031507Y024453D02*
X031507Y024073D01*
D24*
X013552Y007145D02*
X013012Y007145D01*
X013012Y006145D02*
X013552Y006145D01*
D25*
X004522Y029775D03*
D26*
X003577Y027807D03*
X002514Y027807D03*
X005467Y027807D03*
X006530Y027807D03*
D27*
X018085Y006870D02*
X018085Y006090D01*
X018835Y004870D02*
X018835Y004090D01*
X020335Y004090D02*
X020335Y004870D01*
X019585Y006090D02*
X019585Y006870D01*
X021085Y006870D02*
X021085Y006090D01*
X021835Y004870D02*
X021835Y004090D01*
X023335Y004090D02*
X023335Y004870D01*
X022585Y006090D02*
X022585Y006870D01*
X024085Y006870D02*
X024085Y006090D01*
X025585Y006090D02*
X025585Y006870D01*
X027085Y006870D02*
X027085Y006090D01*
X026335Y004870D02*
X026335Y004090D01*
X024835Y004090D02*
X024835Y004870D01*
X027835Y004870D02*
X027835Y004090D01*
X029335Y004090D02*
X029335Y004870D01*
X028585Y006090D02*
X028585Y006870D01*
X030085Y006870D02*
X030085Y006090D01*
X030835Y004870D02*
X030835Y004090D01*
X032335Y004090D02*
X032335Y004870D01*
X031585Y006090D02*
X031585Y006870D01*
X033085Y006870D02*
X033085Y006090D01*
D28*
X005113Y022492D03*
D29*
X013573Y020405D03*
X013573Y019421D03*
X013573Y018437D03*
X013573Y017767D03*
X013573Y017177D03*
X013573Y016468D03*
X013573Y015405D03*
X013573Y014421D03*
X013573Y013515D03*
X013573Y012846D03*
X013573Y011744D03*
D30*
X004719Y011271D03*
D31*
X006786Y009598D03*
X003636Y024559D03*
X037101Y022984D03*
X037101Y006842D03*
D32*
X030424Y013149D03*
X030605Y021704D03*
X029605Y021704D03*
X031605Y021704D03*
D33*
X028833Y028299D02*
X028636Y028496D01*
X028538Y028594D01*
X026471Y028594D01*
X026421Y028544D01*
X026471Y028594D02*
X020959Y028594D01*
X020951Y028585D01*
X020959Y028594D02*
X014070Y028594D01*
X013676Y028594D01*
X009148Y028594D01*
X008804Y028250D01*
X008755Y028200D01*
X008755Y028299D02*
X007967Y028693D01*
X005605Y028693D01*
X004916Y029775D01*
X004522Y029775D01*
X008352Y026626D02*
X008352Y025158D01*
X009050Y024460D01*
X010428Y022197D02*
X010133Y021901D01*
X005507Y021901D01*
X005014Y022393D01*
X005113Y022492D02*
X002751Y022492D01*
X002751Y023279D01*
X003636Y024559D01*
X002751Y022492D02*
X002652Y022393D01*
X002652Y020819D01*
X003636Y020819D01*
X002652Y020819D02*
X002652Y017866D01*
X003636Y017866D01*
X002652Y017866D02*
X002652Y017078D01*
X002652Y014716D01*
X002652Y014421D01*
X002652Y011271D01*
X002652Y005858D01*
X003806Y005858D01*
X003863Y005801D02*
X004397Y005267D01*
X006274Y005267D01*
X006471Y005071D01*
X008833Y005071D01*
X009148Y004756D01*
X009148Y004913D02*
X010487Y006252D01*
X010625Y006252D02*
X011806Y005071D01*
X006786Y009598D02*
X006786Y009795D01*
X005408Y011173D01*
X005408Y011271D02*
X004818Y011271D01*
X004818Y011370D01*
X004719Y011271D02*
X002652Y011271D01*
X005408Y011271D02*
X005408Y012256D01*
X010034Y012256D01*
X010133Y014027D02*
X010133Y014421D01*
X002652Y014421D01*
X002652Y014716D02*
X002751Y014815D01*
X002849Y014815D01*
X002652Y017177D02*
X010133Y017177D01*
X010133Y017374D01*
X010133Y020720D02*
X010133Y021901D01*
X010428Y022197D02*
X012396Y022197D01*
X013822Y028448D02*
X013676Y028594D01*
D34*
X002652Y017177D02*
X002652Y017078D01*
D35*
X003636Y017866D03*
X006294Y018358D03*
X007672Y019145D03*
X007770Y017571D03*
X010133Y017374D03*
X011510Y017472D03*
X012003Y017078D03*
X012298Y015208D03*
X011707Y015110D03*
X010133Y014027D03*
X011018Y012945D03*
X011904Y011763D03*
X013381Y010386D03*
X014562Y010878D03*
X014857Y010386D03*
X015841Y011862D03*
X017613Y011862D03*
X018991Y011665D03*
X019680Y012649D03*
X019778Y013141D03*
X019188Y013338D03*
X019188Y014224D03*
X019188Y015504D03*
X019188Y016094D03*
X019188Y016685D03*
X020172Y017177D03*
X020664Y017669D03*
X020566Y018358D03*
X020467Y019244D03*
X020172Y019736D03*
X019680Y019736D03*
X019188Y019244D03*
X019188Y018063D03*
X020959Y019736D03*
X021451Y019539D03*
X021944Y019736D03*
X022928Y019342D03*
X023715Y019736D03*
X024207Y019736D03*
X024699Y019736D03*
X025093Y019244D03*
X025487Y019736D03*
X025979Y019736D03*
X026274Y019244D03*
X026373Y018260D03*
X025388Y017964D03*
X024798Y017374D03*
X025290Y016783D03*
X026373Y016882D03*
X026373Y016291D03*
X026373Y015700D03*
X025290Y015110D03*
X024896Y014323D03*
X024798Y013535D03*
X025093Y013043D03*
X025585Y013141D03*
X025881Y012649D03*
X026274Y013535D03*
X026373Y014323D03*
X027652Y012945D03*
X029916Y013732D03*
X031392Y014913D03*
X030014Y016291D03*
X029522Y016488D03*
X028932Y016488D03*
X029621Y018260D03*
X029719Y018752D03*
X028833Y019441D03*
X029030Y021409D03*
X028636Y022197D03*
X028636Y022886D03*
X027652Y022984D03*
X027652Y022295D03*
X027554Y021704D03*
X026373Y023082D03*
X025782Y023378D03*
X024503Y022787D03*
X024109Y023279D03*
X023617Y023279D03*
X024699Y022295D03*
X024896Y021803D03*
X025487Y021409D03*
X023322Y021803D03*
X021550Y021015D03*
X021058Y021114D03*
X020566Y021114D03*
X021845Y017964D03*
X022337Y017571D03*
X022829Y017177D03*
X023715Y017472D03*
X022928Y015602D03*
X024109Y015307D03*
X023518Y013929D03*
X022731Y013929D03*
X021845Y014421D03*
X020566Y013732D03*
X020959Y013141D03*
X021353Y012649D03*
X022140Y012649D03*
X022633Y012649D03*
X023125Y012649D03*
X023912Y012649D03*
X024306Y013141D03*
X023420Y010287D03*
X026077Y008712D03*
X023322Y007039D03*
X017908Y008712D03*
X014857Y006744D03*
X014660Y005464D03*
X017121Y005366D03*
X016924Y003496D03*
X011609Y007630D03*
X013085Y008417D03*
X010133Y008909D03*
X008932Y008437D03*
X009444Y010878D03*
X008755Y011665D03*
X007770Y014519D03*
X006294Y015405D03*
X003636Y014815D03*
X005605Y013141D03*
X003341Y012256D03*
X002455Y007826D03*
X002849Y003496D03*
X014857Y015700D03*
X015349Y015996D03*
X014857Y016488D03*
X010133Y020720D03*
X011117Y021901D03*
X011707Y021409D03*
X012298Y021015D03*
X012888Y021803D03*
X012888Y022393D03*
X013085Y023181D03*
X016038Y025346D03*
X018203Y028299D03*
X020959Y028496D03*
X022534Y028496D03*
X028243Y025149D03*
X029227Y025937D03*
X030999Y028496D03*
X033164Y028496D03*
X035329Y028496D03*
X037298Y028496D03*
X033361Y025346D03*
X033066Y023968D03*
X032573Y023378D03*
X030979Y022787D03*
X030113Y022197D03*
X031885Y017964D03*
X031392Y017571D03*
X031392Y017078D03*
X032869Y017177D03*
X033459Y017374D03*
X034739Y017078D03*
X035329Y017669D03*
X035822Y017767D03*
X036018Y020130D03*
X038381Y021606D03*
X038282Y024756D03*
X036412Y024854D03*
X035133Y014126D03*
X035526Y013535D03*
X035034Y013141D03*
X035526Y012748D03*
X035723Y011862D03*
X033755Y010386D03*
X033361Y008811D03*
X034444Y008220D03*
X034345Y006941D03*
X034345Y005464D03*
X034345Y003693D03*
X037987Y003791D03*
X031294Y010386D03*
X031097Y011074D03*
X031097Y012157D03*
X021648Y017177D03*
X020554Y012563D03*
X016530Y021212D03*
X010034Y023279D03*
X009050Y024460D03*
X006688Y024165D03*
X006688Y023476D03*
X005310Y025543D03*
X002554Y026527D03*
X002455Y022787D03*
X003636Y020819D03*
X007770Y020819D03*
X009936Y028299D03*
X008361Y028496D03*
D36*
X012396Y022197D02*
X012593Y022000D01*
X013676Y022000D01*
X003806Y005858D02*
X003863Y005801D01*
X011904Y005071D02*
X013676Y005071D01*
X014070Y005464D01*
X014660Y005464D01*
X018007Y005464D01*
X020369Y005464D01*
X021156Y005464D01*
X023322Y005464D01*
X027062Y005464D01*
X030802Y005464D01*
X034739Y005464D01*
X035723Y005464D01*
X037101Y006842D01*
D37*
X035329Y008122D02*
X035329Y008220D01*
X035329Y008811D02*
X035428Y008909D01*
X031589Y007039D02*
X030644Y007984D01*
X029975Y007984D01*
X024699Y008023D02*
X024109Y008023D01*
X020684Y008220D02*
X019975Y008220D01*
X011904Y005071D02*
X011806Y005071D01*
X010625Y006252D02*
X010487Y006252D01*
X009148Y004913D02*
X009148Y004756D01*
X016235Y019972D02*
X016235Y020622D01*
X016136Y020720D01*
D38*
X015743Y017177D02*
X020172Y017177D01*
X023518Y017472D02*
X023518Y015011D01*
X023518Y013929D01*
X023518Y015011D02*
X015546Y015011D01*
X014857Y015700D01*
X014857Y016488D02*
X015054Y016488D01*
X015743Y017177D01*
X023518Y017472D02*
X023715Y017472D01*
X028243Y025149D02*
X032377Y025149D01*
X033066Y024460D01*
X033066Y023968D01*
X008932Y008437D02*
X008932Y007374D01*
X007810Y006252D01*
X005408Y011271D02*
X004719Y011271D01*
X003636Y014815D02*
X002849Y014815D01*
D39*
X005408Y024165D02*
X005703Y024460D01*
X009050Y024460D01*
D40*
X024207Y016094D02*
X025192Y016094D01*
X026274Y013535D02*
X026924Y013535D01*
X036018Y020130D02*
X036412Y020130D01*
X036412Y022098D01*
X037101Y022984D01*
X036412Y020130D02*
X036412Y017866D01*
X037003Y017275D01*
D41*
X032180Y014283D02*
X032180Y013535D01*
X032180Y013338D01*
D42*
X033558Y013338D03*
X033361Y010976D03*
X032869Y010976D03*
X033951Y010976D03*
X033361Y009697D03*
X032869Y009303D03*
X030605Y009598D03*
X029975Y007984D03*
X028243Y008023D03*
X024109Y008023D03*
X019975Y008220D03*
X020270Y014421D03*
X020172Y015602D03*
X024207Y016094D03*
X025192Y016094D03*
X023322Y021311D03*
X016136Y020720D03*
X031983Y019047D03*
X032869Y018752D03*
X032869Y018260D03*
X033951Y020031D03*
X033558Y021015D03*
X034542Y022590D03*
X035723Y020819D03*
X035428Y008909D03*
D43*
X020467Y019244D02*
X020073Y019244D01*
X019975Y019342D01*
D44*
X015054Y011862D03*
M02*
