%
M48
M72
T01C0.0197
T02C0.0236
T03C0.0240
T04C0.0276
T05C0.0354
T06C0.0360
T07C0.0362
T08C0.0394
T09C0.0400
T10C0.0520
T11C0.0591
T12C0.0906
T13C0.1260
T14C0.1300
T15C0.1378
%
T01
X15054Y11862
T02
X2849Y3496
X2455Y7826
X3341Y12256
X5605Y13141
X7770Y14519
X6294Y15405
X7770Y17571
X6294Y18358
X7672Y19145
X7770Y20819
X10133Y20720
X11117Y21901
X11707Y21409
X12298Y21015
X12888Y21803
X12888Y22393
X13085Y23181
X16038Y25346
X18203Y28299
X20959Y28496
X22534Y28496
X28243Y25149
X29227Y25937
X30999Y28496
X33164Y28496
X35329Y28496
X37298Y28496
X33361Y25346
X33066Y23968
X32573Y23378
X30979Y22787
X30113Y22197
X29030Y21409
X28636Y22197
X28636Y22886
X27652Y22984
X27652Y22295
X27554Y21704
X26373Y23082
X25782Y23378
X24503Y22787
X24109Y23279
X23617Y23279
X24699Y22295
X24896Y21803
X25487Y21409
X25487Y19736
X25979Y19736
X26274Y19244
X26373Y18260
X25388Y17964
X24798Y17374
X25290Y16783
X26373Y16882
X26373Y16291
X26373Y15700
X25290Y15110
X24896Y14323
X24798Y13535
X25093Y13043
X25585Y13141
X25881Y12649
X26274Y13535
X26373Y14323
X27652Y12945
X29916Y13732
X31392Y14913
X30014Y16291
X29522Y16488
X28932Y16488
X29621Y18260
X29719Y18752
X28833Y19441
X31392Y17571
X31392Y17078
X31885Y17964
X32869Y17177
X33459Y17374
X34739Y17078
X35329Y17669
X35822Y17767
X36018Y20130
X38381Y21606
X38282Y24756
X36412Y24854
X25093Y19244
X24699Y19736
X24207Y19736
X23715Y19736
X22928Y19342
X21944Y19736
X21451Y19539
X20959Y19736
X20467Y19244
X20172Y19736
X19680Y19736
X19188Y19244
X19188Y18063
X20172Y17177
X20664Y17669
X20566Y18358
X21845Y17964
X22337Y17571
X22829Y17177
X23715Y17472
X22928Y15602
X24109Y15307
X23518Y13929
X22731Y13929
X21845Y14421
X20566Y13732
X20959Y13141
X21353Y12649
X22140Y12649
X22633Y12649
X23125Y12649
X23912Y12649
X24306Y13141
X23420Y10287
X26077Y8712
X23322Y7039
X17908Y8712
X14857Y10386
X14562Y10878
X13381Y10386
X11904Y11763
X11018Y12945
X10133Y14027
X11707Y15110
X12298Y15208
X12003Y17078
X11510Y17472
X10133Y17374
X14857Y16488
X15349Y15996
X14857Y15700
X15841Y11862
X17613Y11862
X18991Y11665
X19680Y12649
X19778Y13141
X19188Y13338
X19188Y14224
X19188Y15504
X19188Y16094
X19188Y16685
X21648Y17177
X21550Y21015
X21058Y21114
X20566Y21114
X23322Y21803
X16530Y21212
X10034Y23279
X9050Y24460
X6688Y24165
X6688Y23476
X5310Y25543
X2554Y26527
X2455Y22787
X3636Y20819
X3636Y17866
X3636Y14815
X8755Y11665
X9444Y10878
X10133Y8909
X8932Y8437
X11609Y7630
X13085Y8417
X14857Y6744
X14660Y5464
X17121Y5366
X16924Y3496
X20554Y12563
X31097Y12157
X31097Y11074
X31294Y10386
X33361Y8811
X34444Y8220
X34345Y6941
X34345Y5464
X34345Y3693
X37987Y3791
X33755Y10386
X35723Y11862
X35526Y12748
X35034Y13141
X35526Y13535
X35133Y14126
X9936Y28299
X8361Y28496
T03
X29507Y24263
X31507Y24263
T04
X34542Y22590
X33558Y21015
X33951Y20031
X32869Y18752
X32869Y18260
X31983Y19047
X35723Y20819
X33558Y13338
X33361Y10976
X32869Y10976
X33951Y10976
X33361Y9697
X32869Y9303
X30605Y9598
X29975Y7984
X28243Y8023
X24109Y8023
X19975Y8220
X20270Y14421
X20172Y15602
X24207Y16094
X25192Y16094
X23322Y21311
X16136Y20720
X35428Y8909
T05
X10487Y7216
X10487Y6252
X9660Y6252
X8636Y6252
X7810Y6252
X7810Y7236
T06
X13282Y7145
X13282Y6145
T07
X34739Y25263
X35723Y25263
X35723Y26051
X34739Y26051
T08
X4046Y21586
T09
X11122Y26126
X12202Y26126
X13282Y26126
X14362Y26126
X15442Y26126
X14902Y27126
X13822Y27126
X12742Y27126
X11662Y27126
X13900Y22787
X14900Y22787
X15900Y22787
X16900Y22787
X17900Y22787
X18900Y22787
X19900Y22787
X20900Y22787
X21900Y22787
X22900Y22787
X23721Y26126
X24801Y26126
X25881Y26126
X26961Y26126
X28041Y26126
X27501Y27126
X26421Y27126
X25341Y27126
X24261Y27126
X29605Y21704
X30605Y21704
X31605Y21704
X36995Y19216
X37995Y19216
X37995Y18216
X37995Y17216
X37995Y16216
X37995Y15216
X37995Y14216
X37995Y13216
X37995Y12216
X37995Y11216
X37995Y10216
X36995Y10216
X36995Y11216
X36995Y12216
X36995Y13216
X36995Y14216
X36995Y15216
X36995Y16216
X36995Y17216
X36995Y18216
X30424Y13149
X30424Y12149
X29424Y12149
X28424Y12149
X28424Y13149
X29424Y13149
X16636Y10122
X15636Y10122
X15636Y9122
X15636Y8122
X15636Y7122
X15636Y6122
X16636Y6122
X16636Y7122
X16636Y8122
X16636Y9122
T10
X18085Y6480
X19585Y6480
X21085Y6480
X22585Y6480
X24085Y6480
X25585Y6480
X27085Y6480
X28585Y6480
X30085Y6480
X31585Y6480
X33085Y6480
X32335Y4480
X30835Y4480
X29335Y4480
X27835Y4480
X26335Y4480
X24835Y4480
X23335Y4480
X21835Y4480
X20335Y4480
X18835Y4480
T11
X4046Y12137
X3577Y27807
X4522Y27807
X5467Y27807
X6530Y27807
X6491Y29775
X6491Y30760
X4522Y29775
X2554Y29775
X2554Y30760
X2514Y27807
T12
X6471Y5071
X9148Y4756
X11806Y5071
X32861Y27118
X37601Y27118
T13
X37101Y22984
X37101Y6842
X6786Y9598
X3636Y24559
T14
X8352Y26626
X18212Y26626
X20951Y26626
X30811Y26626
X5833Y6981
X3863Y5801
X3863Y8161
T15
X15054Y3791
X36117Y3791
M30
