G75*
G70*
%OFA0B0*%
%FSLAX24Y24*%
%IPPOS*%
%LPD*%
%AMOC8*
5,1,8,0,0,1.08239X$1,22.5*
%
%ADD10R,0.0710X0.0198*%
%ADD11R,0.0198X0.0710*%
%ADD12R,0.0789X0.0237*%
%ADD13R,0.0592X0.0671*%
%ADD14R,0.0671X0.0592*%
%ADD15R,0.0390X0.0430*%
%ADD16R,0.0474X0.0513*%
%ADD17R,0.0474X0.0631*%
%ADD18C,0.1458*%
%ADD19OC8,0.0640*%
%ADD20R,0.0710X0.0592*%
%ADD21R,0.0513X0.0474*%
%ADD22R,0.0552X0.0631*%
%ADD23R,0.0316X0.0356*%
%ADD24R,0.0960X0.0560*%
%ADD25R,0.0946X0.1497*%
%ADD26OC8,0.0680*%
%ADD27C,0.2080*%
%ADD28R,0.0316X0.0946*%
%ADD29R,0.0592X0.0710*%
%ADD30R,0.0580X0.0280*%
%ADD31R,0.0280X0.0580*%
%ADD32C,0.1386*%
%ADD33C,0.0623*%
%ADD34R,0.1261X0.0631*%
%ADD35R,0.0159X0.0277*%
%ADD36OC8,0.1980*%
%ADD37C,0.0680*%
%ADD38C,0.0460*%
%ADD39C,0.0620*%
%ADD40C,0.1080*%
%ADD41C,0.0966*%
%ADD42C,0.0671*%
%ADD43C,0.0860*%
%ADD44C,0.0474*%
%ADD45R,0.0631X0.1261*%
%ADD46C,0.3230*%
%ADD47C,0.0680*%
%ADD48R,0.0552X0.0552*%
%ADD49R,0.0456X0.0456*%
%ADD50R,0.0496X0.0496*%
%ADD51R,0.0417X0.0417*%
D10*
X018605Y012748D03*
X018605Y012945D03*
X018605Y013141D03*
X018605Y013338D03*
X018605Y013535D03*
X018605Y013732D03*
X018605Y013929D03*
X018605Y014126D03*
X018605Y014323D03*
X018605Y014519D03*
X018605Y014716D03*
X018605Y014913D03*
X018605Y015110D03*
X018605Y015307D03*
X018605Y015504D03*
X018605Y015700D03*
X018605Y015897D03*
X018605Y016094D03*
X018605Y016291D03*
X018605Y016488D03*
X018605Y016685D03*
X018605Y016882D03*
X018605Y017078D03*
X018605Y017275D03*
X018605Y017472D03*
X018605Y017669D03*
X018605Y017866D03*
X018605Y018063D03*
X018605Y018260D03*
X018605Y018456D03*
X018605Y018653D03*
X018605Y018850D03*
X018605Y019047D03*
X018605Y019244D03*
X018605Y019441D03*
X018605Y019637D03*
X027030Y019637D03*
X027030Y019441D03*
X027030Y019244D03*
X027030Y019047D03*
X027030Y018850D03*
X027030Y018653D03*
X027030Y018456D03*
X027030Y018260D03*
X027030Y018063D03*
X027030Y017866D03*
X027030Y017669D03*
X027030Y017472D03*
X027030Y017275D03*
X027030Y017078D03*
X027030Y016882D03*
X027030Y016685D03*
X027030Y016488D03*
X027030Y016291D03*
X027030Y016094D03*
X027030Y015897D03*
X027030Y015700D03*
X027030Y015504D03*
X027030Y015307D03*
X027030Y015110D03*
X027030Y014913D03*
X027030Y014716D03*
X027030Y014519D03*
X027030Y014323D03*
X027030Y014126D03*
X027030Y013929D03*
X027030Y013732D03*
X027030Y013535D03*
X027030Y013338D03*
X027030Y013141D03*
X027030Y012945D03*
X027030Y012748D03*
D11*
X026262Y011980D03*
X026066Y011980D03*
X025869Y011980D03*
X025672Y011980D03*
X025475Y011980D03*
X025278Y011980D03*
X025081Y011980D03*
X024885Y011980D03*
X024688Y011980D03*
X024491Y011980D03*
X024294Y011980D03*
X024097Y011980D03*
X023900Y011980D03*
X023703Y011980D03*
X023507Y011980D03*
X023310Y011980D03*
X023113Y011980D03*
X022916Y011980D03*
X022719Y011980D03*
X022522Y011980D03*
X022325Y011980D03*
X022129Y011980D03*
X021932Y011980D03*
X021735Y011980D03*
X021538Y011980D03*
X021341Y011980D03*
X021144Y011980D03*
X020948Y011980D03*
X020751Y011980D03*
X020554Y011980D03*
X020357Y011980D03*
X020160Y011980D03*
X019963Y011980D03*
X019766Y011980D03*
X019570Y011980D03*
X019373Y011980D03*
X019373Y020405D03*
X019570Y020405D03*
X019766Y020405D03*
X019963Y020405D03*
X020160Y020405D03*
X020357Y020405D03*
X020554Y020405D03*
X020751Y020405D03*
X020948Y020405D03*
X021144Y020405D03*
X021341Y020405D03*
X021538Y020405D03*
X021735Y020405D03*
X021932Y020405D03*
X022129Y020405D03*
X022325Y020405D03*
X022522Y020405D03*
X022719Y020405D03*
X022916Y020405D03*
X023113Y020405D03*
X023310Y020405D03*
X023507Y020405D03*
X023703Y020405D03*
X023900Y020405D03*
X024097Y020405D03*
X024294Y020405D03*
X024491Y020405D03*
X024688Y020405D03*
X024885Y020405D03*
X025081Y020405D03*
X025278Y020405D03*
X025475Y020405D03*
X025672Y020405D03*
X025869Y020405D03*
X026066Y020405D03*
X026262Y020405D03*
D12*
X032158Y011207D03*
X032158Y010951D03*
X032158Y010696D03*
X032158Y010440D03*
X032158Y010184D03*
X032158Y009928D03*
X032158Y009672D03*
X032158Y009416D03*
X032158Y009160D03*
X032158Y008904D03*
X034697Y008904D03*
X034697Y009160D03*
X034697Y009416D03*
X034697Y009672D03*
X034697Y009928D03*
X034697Y010184D03*
X034697Y010440D03*
X034697Y010696D03*
X034697Y010951D03*
X034697Y011207D03*
D13*
X034660Y020130D03*
X035408Y020130D03*
X035014Y021015D03*
X034266Y021015D03*
X034522Y021901D03*
X033774Y021901D03*
X032357Y022787D03*
X031609Y022787D03*
X030388Y022787D03*
X029640Y022787D03*
X017892Y021113D03*
X017144Y021113D03*
X008440Y024460D03*
X007692Y024460D03*
X007495Y023574D03*
X008243Y023574D03*
X010251Y010878D03*
X010999Y010878D03*
X011924Y010090D03*
X012672Y010090D03*
X013597Y009697D03*
X014345Y009697D03*
X018322Y009500D03*
X019070Y009500D03*
X020881Y009598D03*
X021629Y009598D03*
D14*
X019975Y009775D03*
X019975Y009027D03*
X024404Y009519D03*
X024404Y010267D03*
X025290Y010169D03*
X026373Y010267D03*
X026373Y009519D03*
X025290Y009421D03*
X027259Y009421D03*
X027259Y010169D03*
X036904Y020149D03*
X036904Y020897D03*
X037790Y020897D03*
X037790Y020149D03*
X026471Y021724D03*
X026471Y022472D03*
X025585Y022767D03*
X025585Y022019D03*
X012199Y009185D03*
X011314Y009185D03*
X011314Y008437D03*
X012199Y008437D03*
X009444Y009224D03*
X009444Y009972D03*
X008262Y021921D03*
X008262Y022669D03*
X005900Y022905D03*
X005900Y023653D03*
X005900Y024677D03*
X005900Y025425D03*
D15*
X010255Y010195D03*
X011015Y010195D03*
X010635Y009395D03*
X013601Y009014D03*
X014361Y009014D03*
X013981Y008214D03*
D16*
X028144Y008574D03*
X028144Y009244D03*
X029030Y008653D03*
X029030Y007984D03*
X030802Y008378D03*
X030802Y009047D03*
X030525Y019898D03*
X030525Y020568D03*
X006786Y024716D03*
X006786Y025386D03*
D17*
X006707Y022826D03*
X007455Y022826D03*
X007081Y021960D03*
X018420Y008653D03*
X019168Y008653D03*
X018794Y007787D03*
X020684Y008653D03*
X021432Y008653D03*
X021058Y007787D03*
X024424Y008653D03*
X025172Y008653D03*
X024798Y007787D03*
X026688Y008653D03*
X027436Y008653D03*
X027062Y007787D03*
D18*
X036117Y003791D03*
X015054Y003791D03*
X011806Y005071D03*
X009148Y004756D03*
X006471Y005071D03*
D19*
X007810Y006252D03*
X008636Y006252D03*
X009660Y006252D03*
X010487Y006252D03*
X010487Y007216D03*
X007810Y007236D03*
D20*
X010428Y023988D03*
X011314Y023988D03*
X012199Y023988D03*
X012199Y024736D03*
X011314Y024736D03*
X010428Y024736D03*
X013085Y024736D03*
X013971Y024736D03*
X014857Y024736D03*
X014857Y023988D03*
X013971Y023988D03*
X013085Y023988D03*
X022928Y023988D03*
X023814Y023988D03*
X024699Y023988D03*
X025585Y023988D03*
X025585Y024736D03*
X024699Y024736D03*
X023814Y024736D03*
X022928Y024736D03*
X026471Y024736D03*
X027357Y024736D03*
X027357Y023988D03*
X026471Y023988D03*
X033755Y023949D03*
X033755Y023200D03*
X028144Y010760D03*
X028144Y010011D03*
X029030Y010169D03*
X029916Y009578D03*
X029916Y008830D03*
X029030Y009421D03*
D21*
X033223Y008220D03*
X033892Y008220D03*
X034503Y011862D03*
X035172Y011862D03*
D22*
X023410Y009458D03*
X022544Y009458D03*
X022544Y008458D03*
D23*
X023410Y008458D03*
D24*
X004385Y012921D03*
X004385Y013830D03*
X004385Y014740D03*
X004385Y015972D03*
X004385Y016882D03*
X004385Y017791D03*
X004385Y019023D03*
X004385Y019933D03*
X004385Y020843D03*
D25*
X006825Y019933D03*
X006825Y016882D03*
X006825Y013830D03*
D26*
X015636Y010122D03*
X015636Y009122D03*
X015636Y008122D03*
X015636Y007122D03*
X015636Y006122D03*
X016636Y006122D03*
X016636Y007122D03*
X016636Y008122D03*
X016636Y009122D03*
X016636Y010122D03*
X028424Y012149D03*
X029424Y012149D03*
X030424Y012149D03*
X029424Y013149D03*
X028424Y013149D03*
X036995Y013216D03*
X037995Y013216D03*
X037995Y012216D03*
X037995Y011216D03*
X037995Y010216D03*
X036995Y010216D03*
X036995Y011216D03*
X036995Y012216D03*
X036995Y014216D03*
X037995Y014216D03*
X037995Y015216D03*
X037995Y016216D03*
X037995Y017216D03*
X037995Y018216D03*
X037995Y019216D03*
X036995Y019216D03*
X036995Y018216D03*
X036995Y017216D03*
X036995Y016216D03*
X036995Y015216D03*
X028041Y026126D03*
X026961Y026126D03*
X025881Y026126D03*
X024801Y026126D03*
X023721Y026126D03*
X024261Y027126D03*
X025341Y027126D03*
X026421Y027126D03*
X027501Y027126D03*
X015442Y026126D03*
X014362Y026126D03*
X013282Y026126D03*
X012202Y026126D03*
X011122Y026126D03*
X011662Y027126D03*
X012742Y027126D03*
X013822Y027126D03*
X014902Y027126D03*
D27*
X018212Y026626D03*
X020951Y026626D03*
X030811Y026626D03*
X008352Y026626D03*
D28*
X031934Y014394D03*
X032434Y014394D03*
X032934Y014394D03*
X033434Y014394D03*
X033434Y012346D03*
X032934Y012346D03*
X032434Y012346D03*
X031934Y012346D03*
D29*
X031707Y008220D03*
X032455Y008220D03*
D30*
X034055Y017088D03*
X034055Y017403D03*
X034055Y017717D03*
X034055Y018032D03*
X034055Y018347D03*
X034055Y018662D03*
X034055Y018977D03*
X034055Y019292D03*
X030675Y019292D03*
X030675Y018977D03*
X030675Y018662D03*
X030675Y018347D03*
X030675Y018032D03*
X030675Y017717D03*
X030675Y017403D03*
X030675Y017088D03*
D31*
X031262Y016500D03*
X031577Y016500D03*
X031892Y016500D03*
X032207Y016500D03*
X032522Y016500D03*
X032837Y016500D03*
X033152Y016500D03*
X033467Y016500D03*
X033467Y019880D03*
X033152Y019880D03*
X032837Y019880D03*
X032522Y019880D03*
X032207Y019880D03*
X031892Y019880D03*
X031577Y019880D03*
X031262Y019880D03*
D32*
X032861Y027118D03*
X037601Y027118D03*
D33*
X035723Y026051D03*
X034739Y026051D03*
X034739Y025263D03*
X035723Y025263D03*
D34*
X004581Y010582D03*
X002692Y010582D03*
D35*
X014562Y012256D03*
X014759Y012256D03*
X014955Y012256D03*
X015152Y012256D03*
X015349Y012256D03*
X015546Y012256D03*
X015743Y012256D03*
X015940Y012256D03*
X016136Y012256D03*
X016333Y012256D03*
X016530Y012256D03*
X016727Y012256D03*
X016924Y012256D03*
X017121Y012256D03*
X017318Y012256D03*
X017514Y012256D03*
X017514Y020130D03*
X017318Y020130D03*
X017121Y020130D03*
X016924Y020130D03*
X016727Y020130D03*
X016530Y020130D03*
X016333Y020130D03*
X016136Y020130D03*
X015940Y020130D03*
X015743Y020130D03*
X015546Y020130D03*
X015349Y020130D03*
X015152Y020130D03*
X014955Y020130D03*
X014759Y020130D03*
X014562Y020130D03*
D36*
X003863Y008161D03*
X005833Y006981D03*
X003863Y005801D03*
D37*
X013900Y022487D02*
X013900Y023087D01*
X014900Y023087D02*
X014900Y022487D01*
X015900Y022487D02*
X015900Y023087D01*
X016900Y023087D02*
X016900Y022487D01*
X017900Y022487D02*
X017900Y023087D01*
X018900Y023087D02*
X018900Y022487D01*
X019900Y022487D02*
X019900Y023087D01*
X020900Y023087D02*
X020900Y022487D01*
X021900Y022487D02*
X021900Y023087D01*
X022900Y023087D02*
X022900Y022487D01*
D38*
X029507Y024073D02*
X029507Y024453D01*
X031507Y024453D02*
X031507Y024073D01*
D39*
X013552Y007145D02*
X013012Y007145D01*
X013012Y006145D02*
X013552Y006145D01*
D40*
X004522Y029775D03*
D41*
X003577Y027807D03*
X002514Y027807D03*
X005467Y027807D03*
X006530Y027807D03*
D42*
X004522Y027807D03*
X002554Y029775D03*
X002554Y030760D03*
X006491Y030760D03*
X006491Y029775D03*
X004046Y012137D03*
D43*
X018085Y006870D02*
X018085Y006090D01*
X018835Y004870D02*
X018835Y004090D01*
X020335Y004090D02*
X020335Y004870D01*
X019585Y006090D02*
X019585Y006870D01*
X021085Y006870D02*
X021085Y006090D01*
X021835Y004870D02*
X021835Y004090D01*
X023335Y004090D02*
X023335Y004870D01*
X022585Y006090D02*
X022585Y006870D01*
X024085Y006870D02*
X024085Y006090D01*
X025585Y006090D02*
X025585Y006870D01*
X027085Y006870D02*
X027085Y006090D01*
X026335Y004870D02*
X026335Y004090D01*
X024835Y004090D02*
X024835Y004870D01*
X027835Y004870D02*
X027835Y004090D01*
X029335Y004090D02*
X029335Y004870D01*
X028585Y006090D02*
X028585Y006870D01*
X030085Y006870D02*
X030085Y006090D01*
X030835Y004870D02*
X030835Y004090D01*
X032335Y004090D02*
X032335Y004870D01*
X031585Y006090D02*
X031585Y006870D01*
X033085Y006870D02*
X033085Y006090D01*
D44*
X004046Y021586D03*
D45*
X009542Y020681D03*
X009542Y018791D03*
X009542Y017334D03*
X009542Y015445D03*
X009542Y013988D03*
X009542Y012098D03*
D46*
X006786Y009598D03*
X003636Y024559D03*
X037101Y022984D03*
X037101Y006842D03*
D47*
X030424Y013149D03*
X030605Y021704D03*
X029605Y021704D03*
X031605Y021704D03*
D48*
X034522Y023968D03*
X035349Y023968D03*
D49*
X002849Y003496D03*
X002455Y007826D03*
X003341Y012256D03*
X005605Y013141D03*
X007770Y014519D03*
X006294Y015405D03*
X007770Y017571D03*
X006294Y018358D03*
X007672Y019145D03*
X007770Y020819D03*
X010133Y020720D03*
X011117Y021901D03*
X011707Y021409D03*
X012298Y021015D03*
X012888Y021803D03*
X012888Y022393D03*
X013085Y023181D03*
X016038Y025346D03*
X018203Y028299D03*
X020959Y028496D03*
X022534Y028496D03*
X028243Y025149D03*
X029227Y025937D03*
X030999Y028496D03*
X033164Y028496D03*
X035329Y028496D03*
X037298Y028496D03*
X033361Y025346D03*
X033066Y023968D03*
X032573Y023378D03*
X030979Y022787D03*
X030113Y022197D03*
X029030Y021409D03*
X028636Y022197D03*
X028636Y022886D03*
X027652Y022984D03*
X027652Y022295D03*
X027554Y021704D03*
X026373Y023082D03*
X025782Y023378D03*
X024503Y022787D03*
X024109Y023279D03*
X023617Y023279D03*
X024699Y022295D03*
X024896Y021803D03*
X025487Y021409D03*
X025487Y019736D03*
X025979Y019736D03*
X026274Y019244D03*
X026373Y018260D03*
X025388Y017964D03*
X024798Y017374D03*
X025290Y016783D03*
X026373Y016882D03*
X026373Y016291D03*
X026373Y015700D03*
X025290Y015110D03*
X024896Y014323D03*
X024798Y013535D03*
X025093Y013043D03*
X025585Y013141D03*
X025881Y012649D03*
X026274Y013535D03*
X026373Y014323D03*
X027652Y012945D03*
X029916Y013732D03*
X031392Y014913D03*
X030014Y016291D03*
X029522Y016488D03*
X028932Y016488D03*
X029621Y018260D03*
X029719Y018752D03*
X028833Y019441D03*
X031392Y017571D03*
X031392Y017078D03*
X031885Y017964D03*
X032869Y017177D03*
X033459Y017374D03*
X034739Y017078D03*
X035329Y017669D03*
X035822Y017767D03*
X036018Y020130D03*
X038381Y021606D03*
X038282Y024756D03*
X036412Y024854D03*
X025093Y019244D03*
X024699Y019736D03*
X024207Y019736D03*
X023715Y019736D03*
X022928Y019342D03*
X021944Y019736D03*
X021451Y019539D03*
X020959Y019736D03*
X020467Y019244D03*
X020172Y019736D03*
X019680Y019736D03*
X019188Y019244D03*
X019188Y018063D03*
X020172Y017177D03*
X020664Y017669D03*
X020566Y018358D03*
X021845Y017964D03*
X022337Y017571D03*
X022829Y017177D03*
X023715Y017472D03*
X022928Y015602D03*
X024109Y015307D03*
X023518Y013929D03*
X022731Y013929D03*
X021845Y014421D03*
X020566Y013732D03*
X020959Y013141D03*
X021353Y012649D03*
X022140Y012649D03*
X022633Y012649D03*
X023125Y012649D03*
X023912Y012649D03*
X024306Y013141D03*
X023420Y010287D03*
X026077Y008712D03*
X023322Y007039D03*
X017908Y008712D03*
X014857Y010386D03*
X014562Y010878D03*
X013381Y010386D03*
X011904Y011763D03*
X011018Y012945D03*
X010133Y014027D03*
X011707Y015110D03*
X012298Y015208D03*
X012003Y017078D03*
X011510Y017472D03*
X010133Y017374D03*
X014857Y016488D03*
X015349Y015996D03*
X014857Y015700D03*
X015841Y011862D03*
X017613Y011862D03*
X018991Y011665D03*
X019680Y012649D03*
X019778Y013141D03*
X019188Y013338D03*
X019188Y014224D03*
X019188Y015504D03*
X019188Y016094D03*
X019188Y016685D03*
X021648Y017177D03*
X021550Y021015D03*
X021058Y021114D03*
X020566Y021114D03*
X023322Y021803D03*
X016530Y021212D03*
X010034Y023279D03*
X009050Y024460D03*
X006688Y024165D03*
X006688Y023476D03*
X005310Y025543D03*
X002554Y026527D03*
X002455Y022787D03*
X003636Y020819D03*
X003636Y017866D03*
X003636Y014815D03*
X008755Y011665D03*
X009444Y010878D03*
X010133Y008909D03*
X008932Y008437D03*
X011609Y007630D03*
X013085Y008417D03*
X014857Y006744D03*
X014660Y005464D03*
X017121Y005366D03*
X016924Y003496D03*
X020554Y012563D03*
X031097Y012157D03*
X031097Y011074D03*
X031294Y010386D03*
X033361Y008811D03*
X034444Y008220D03*
X034345Y006941D03*
X034345Y005464D03*
X034345Y003693D03*
X037987Y003791D03*
X033755Y010386D03*
X035723Y011862D03*
X035526Y012748D03*
X035034Y013141D03*
X035526Y013535D03*
X035133Y014126D03*
X009936Y028299D03*
X008361Y028496D03*
D50*
X016136Y020720D03*
X020172Y015602D03*
X020270Y014421D03*
X024207Y016094D03*
X025192Y016094D03*
X023322Y021311D03*
X031983Y019047D03*
X032869Y018752D03*
X032869Y018260D03*
X033951Y020031D03*
X033558Y021015D03*
X034542Y022590D03*
X035723Y020819D03*
X033558Y013338D03*
X033361Y010976D03*
X032869Y010976D03*
X033951Y010976D03*
X033361Y009697D03*
X032869Y009303D03*
X030605Y009598D03*
X029975Y007984D03*
X028243Y008023D03*
X024109Y008023D03*
X019975Y008220D03*
X035428Y008909D03*
D51*
X015054Y011862D03*
M02*
