G75*
G70*
%OFA0B0*%
%FSLAX24Y24*%
%IPPOS*%
%LPD*%
%AMOC8*
5,1,8,0,0,1.08239X$1,22.5*
%
%ADD10R,0.0592X0.0671*%
%ADD11C,0.1458*%
%ADD12OC8,0.0640*%
%ADD13OC8,0.0680*%
%ADD14C,0.2080*%
%ADD15R,0.0710X0.0592*%
%ADD16R,0.0474X0.0513*%
%ADD17R,0.0513X0.0474*%
%ADD18C,0.1386*%
%ADD19C,0.0623*%
%ADD20OC8,0.1980*%
%ADD21C,0.0680*%
%ADD22C,0.0460*%
%ADD23C,0.0620*%
%ADD24C,0.1080*%
%ADD25C,0.0966*%
%ADD26C,0.0671*%
%ADD27C,0.0860*%
%ADD28R,0.0828X0.0828*%
%ADD29R,0.1655X0.0395*%
%ADD30R,0.0880X0.0880*%
%ADD31C,0.0474*%
%ADD32C,0.3230*%
%ADD33C,0.0680*%
%ADD34R,0.0456X0.0456*%
%ADD35R,0.0496X0.0496*%
%ADD36R,0.0417X0.0417*%
D10*
X018518Y007826D03*
X019266Y007826D03*
X019266Y008712D03*
X018518Y008712D03*
X020684Y008712D03*
X021432Y008712D03*
X021432Y007826D03*
X020684Y007826D03*
X020684Y009598D03*
X021432Y009598D03*
X024719Y009598D03*
X025467Y009598D03*
X025467Y008712D03*
X024719Y008712D03*
X024719Y007826D03*
X025467Y007826D03*
X026688Y007826D03*
X027436Y007826D03*
X027436Y008712D03*
X026688Y008712D03*
X026688Y009598D03*
X027436Y009598D03*
D11*
X036117Y003791D03*
X015054Y003791D03*
X011806Y005071D03*
X009148Y004756D03*
X006471Y005071D03*
D12*
X007810Y006252D03*
X008636Y006252D03*
X009660Y006252D03*
X010487Y006252D03*
X010487Y007216D03*
X007810Y007236D03*
D13*
X015636Y007122D03*
X015636Y008122D03*
X015636Y009122D03*
X015636Y010122D03*
X016636Y010122D03*
X016636Y009122D03*
X016636Y008122D03*
X016636Y007122D03*
X016636Y006122D03*
X015636Y006122D03*
X028424Y012149D03*
X029424Y012149D03*
X030424Y012149D03*
X029424Y013149D03*
X028424Y013149D03*
X036995Y013216D03*
X037995Y013216D03*
X037995Y012216D03*
X037995Y011216D03*
X037995Y010216D03*
X036995Y010216D03*
X036995Y011216D03*
X036995Y012216D03*
X036995Y014216D03*
X037995Y014216D03*
X037995Y015216D03*
X037995Y016216D03*
X037995Y017216D03*
X037995Y018216D03*
X037995Y019216D03*
X036995Y019216D03*
X036995Y018216D03*
X036995Y017216D03*
X036995Y016216D03*
X036995Y015216D03*
X028041Y026126D03*
X026961Y026126D03*
X025881Y026126D03*
X024801Y026126D03*
X023721Y026126D03*
X024261Y027126D03*
X025341Y027126D03*
X026421Y027126D03*
X027501Y027126D03*
X015442Y026126D03*
X014362Y026126D03*
X013282Y026126D03*
X012202Y026126D03*
X011122Y026126D03*
X011662Y027126D03*
X012742Y027126D03*
X013822Y027126D03*
X014902Y027126D03*
D14*
X018212Y026626D03*
X020951Y026626D03*
X030811Y026626D03*
X008352Y026626D03*
D15*
X017908Y010464D03*
X017908Y009716D03*
D16*
X021353Y011330D03*
X021353Y012000D03*
X022239Y012000D03*
X022239Y011330D03*
X023912Y011330D03*
X023912Y012000D03*
X024798Y012000D03*
X024798Y011330D03*
X025487Y013693D03*
X025487Y014362D03*
X024798Y018023D03*
X024798Y018693D03*
X023912Y018515D03*
X023912Y019185D03*
X023026Y018791D03*
X023026Y018122D03*
X022140Y018515D03*
X022140Y019185D03*
X021255Y018693D03*
X021255Y018023D03*
X019877Y018515D03*
X019877Y019185D03*
X016235Y019303D03*
X016235Y019972D03*
X025684Y019185D03*
X025684Y018515D03*
X032180Y014952D03*
X032180Y014283D03*
D17*
X027593Y013535D03*
X026924Y013535D03*
X027022Y016291D03*
X027692Y016291D03*
X027593Y019244D03*
X026924Y019244D03*
X022573Y013240D03*
X021904Y013240D03*
X020310Y011173D03*
X019640Y011173D03*
X018636Y013437D03*
X017967Y013437D03*
X017967Y016094D03*
X018636Y016094D03*
X018636Y019244D03*
X017967Y019244D03*
D18*
X032861Y027118D03*
X037601Y027118D03*
D19*
X035723Y026051D03*
X034739Y026051D03*
X034739Y025263D03*
X035723Y025263D03*
D20*
X005833Y006981D03*
X003863Y005801D03*
X003863Y008161D03*
D21*
X013900Y022487D02*
X013900Y023087D01*
X014900Y023087D02*
X014900Y022487D01*
X015900Y022487D02*
X015900Y023087D01*
X016900Y023087D02*
X016900Y022487D01*
X017900Y022487D02*
X017900Y023087D01*
X018900Y023087D02*
X018900Y022487D01*
X019900Y022487D02*
X019900Y023087D01*
X020900Y023087D02*
X020900Y022487D01*
X021900Y022487D02*
X021900Y023087D01*
X022900Y023087D02*
X022900Y022487D01*
D22*
X029507Y024073D02*
X029507Y024453D01*
X031507Y024453D02*
X031507Y024073D01*
D23*
X013552Y007145D02*
X013012Y007145D01*
X013012Y006145D02*
X013552Y006145D01*
D24*
X004522Y029775D03*
D25*
X003577Y027807D03*
X002514Y027807D03*
X005467Y027807D03*
X006530Y027807D03*
D26*
X004522Y027807D03*
X002554Y029775D03*
X002554Y030760D03*
X006491Y030760D03*
X006491Y029775D03*
X004046Y012137D03*
D27*
X018085Y006870D02*
X018085Y006090D01*
X018835Y004870D02*
X018835Y004090D01*
X020335Y004090D02*
X020335Y004870D01*
X019585Y006090D02*
X019585Y006870D01*
X021085Y006870D02*
X021085Y006090D01*
X021835Y004870D02*
X021835Y004090D01*
X023335Y004090D02*
X023335Y004870D01*
X022585Y006090D02*
X022585Y006870D01*
X024085Y006870D02*
X024085Y006090D01*
X025585Y006090D02*
X025585Y006870D01*
X027085Y006870D02*
X027085Y006090D01*
X026335Y004870D02*
X026335Y004090D01*
X024835Y004090D02*
X024835Y004870D01*
X027835Y004870D02*
X027835Y004090D01*
X029335Y004090D02*
X029335Y004870D01*
X028585Y006090D02*
X028585Y006870D01*
X030085Y006870D02*
X030085Y006090D01*
X030835Y004870D02*
X030835Y004090D01*
X032335Y004090D02*
X032335Y004870D01*
X031585Y006090D02*
X031585Y006870D01*
X033085Y006870D02*
X033085Y006090D01*
D28*
X005113Y022492D03*
D29*
X013573Y020405D03*
X013573Y019421D03*
X013573Y018437D03*
X013573Y017767D03*
X013573Y017177D03*
X013573Y016468D03*
X013573Y015405D03*
X013573Y014421D03*
X013573Y013515D03*
X013573Y012846D03*
X013573Y011744D03*
D30*
X004719Y011271D03*
D31*
X004046Y021586D03*
D32*
X003636Y024559D03*
X006786Y009598D03*
X037101Y006842D03*
X037101Y022984D03*
D33*
X031605Y021704D03*
X030605Y021704D03*
X029605Y021704D03*
X030424Y013149D03*
D34*
X002849Y003496D03*
X002455Y007826D03*
X003341Y012256D03*
X005605Y013141D03*
X007770Y014519D03*
X006294Y015405D03*
X007770Y017571D03*
X006294Y018358D03*
X007672Y019145D03*
X007770Y020819D03*
X010133Y020720D03*
X011117Y021901D03*
X011707Y021409D03*
X012298Y021015D03*
X012888Y021803D03*
X012888Y022393D03*
X013085Y023181D03*
X016038Y025346D03*
X018203Y028299D03*
X020959Y028496D03*
X022534Y028496D03*
X028243Y025149D03*
X029227Y025937D03*
X030999Y028496D03*
X033164Y028496D03*
X035329Y028496D03*
X037298Y028496D03*
X033361Y025346D03*
X033066Y023968D03*
X032573Y023378D03*
X030979Y022787D03*
X030113Y022197D03*
X029030Y021409D03*
X028636Y022197D03*
X028636Y022886D03*
X027652Y022984D03*
X027652Y022295D03*
X027554Y021704D03*
X026373Y023082D03*
X025782Y023378D03*
X024503Y022787D03*
X024109Y023279D03*
X023617Y023279D03*
X024699Y022295D03*
X024896Y021803D03*
X025487Y021409D03*
X025487Y019736D03*
X025979Y019736D03*
X026274Y019244D03*
X026373Y018260D03*
X025388Y017964D03*
X024798Y017374D03*
X025290Y016783D03*
X026373Y016882D03*
X026373Y016291D03*
X026373Y015700D03*
X025290Y015110D03*
X024896Y014323D03*
X024798Y013535D03*
X025093Y013043D03*
X025585Y013141D03*
X025881Y012649D03*
X026274Y013535D03*
X026373Y014323D03*
X027652Y012945D03*
X029916Y013732D03*
X031392Y014913D03*
X030014Y016291D03*
X029522Y016488D03*
X028932Y016488D03*
X029621Y018260D03*
X029719Y018752D03*
X028833Y019441D03*
X031392Y017571D03*
X031392Y017078D03*
X031885Y017964D03*
X032869Y017177D03*
X033459Y017374D03*
X034739Y017078D03*
X035329Y017669D03*
X035822Y017767D03*
X036018Y020130D03*
X038381Y021606D03*
X038282Y024756D03*
X036412Y024854D03*
X025093Y019244D03*
X024699Y019736D03*
X024207Y019736D03*
X023715Y019736D03*
X022928Y019342D03*
X021944Y019736D03*
X021451Y019539D03*
X020959Y019736D03*
X020467Y019244D03*
X020172Y019736D03*
X019680Y019736D03*
X019188Y019244D03*
X019188Y018063D03*
X020172Y017177D03*
X020664Y017669D03*
X020566Y018358D03*
X021845Y017964D03*
X022337Y017571D03*
X022829Y017177D03*
X023715Y017472D03*
X022928Y015602D03*
X024109Y015307D03*
X023518Y013929D03*
X022731Y013929D03*
X021845Y014421D03*
X020566Y013732D03*
X020959Y013141D03*
X021353Y012649D03*
X022140Y012649D03*
X022633Y012649D03*
X023125Y012649D03*
X023912Y012649D03*
X024306Y013141D03*
X023420Y010287D03*
X026077Y008712D03*
X023322Y007039D03*
X017908Y008712D03*
X014857Y010386D03*
X014562Y010878D03*
X013381Y010386D03*
X011904Y011763D03*
X011018Y012945D03*
X010133Y014027D03*
X011707Y015110D03*
X012298Y015208D03*
X012003Y017078D03*
X011510Y017472D03*
X010133Y017374D03*
X014857Y016488D03*
X015349Y015996D03*
X014857Y015700D03*
X015841Y011862D03*
X017613Y011862D03*
X018991Y011665D03*
X019680Y012649D03*
X019778Y013141D03*
X019188Y013338D03*
X019188Y014224D03*
X019188Y015504D03*
X019188Y016094D03*
X019188Y016685D03*
X021648Y017177D03*
X021550Y021015D03*
X021058Y021114D03*
X020566Y021114D03*
X023322Y021803D03*
X016530Y021212D03*
X010034Y023279D03*
X009050Y024460D03*
X006688Y024165D03*
X006688Y023476D03*
X005310Y025543D03*
X002554Y026527D03*
X002455Y022787D03*
X003636Y020819D03*
X003636Y017866D03*
X003636Y014815D03*
X008755Y011665D03*
X009444Y010878D03*
X010133Y008909D03*
X008932Y008437D03*
X011609Y007630D03*
X013085Y008417D03*
X014857Y006744D03*
X014660Y005464D03*
X017121Y005366D03*
X016924Y003496D03*
X020554Y012563D03*
X031097Y012157D03*
X031097Y011074D03*
X031294Y010386D03*
X033361Y008811D03*
X034444Y008220D03*
X034345Y006941D03*
X034345Y005464D03*
X034345Y003693D03*
X037987Y003791D03*
X033755Y010386D03*
X035723Y011862D03*
X035526Y012748D03*
X035034Y013141D03*
X035526Y013535D03*
X035133Y014126D03*
X009936Y028299D03*
X008361Y028496D03*
D35*
X016136Y020720D03*
X020172Y015602D03*
X020270Y014421D03*
X024207Y016094D03*
X025192Y016094D03*
X023322Y021311D03*
X031983Y019047D03*
X032869Y018752D03*
X032869Y018260D03*
X033951Y020031D03*
X033558Y021015D03*
X034542Y022590D03*
X035723Y020819D03*
X033558Y013338D03*
X033361Y010976D03*
X032869Y010976D03*
X033951Y010976D03*
X033361Y009697D03*
X032869Y009303D03*
X030605Y009598D03*
X029975Y007984D03*
X028243Y008023D03*
X024109Y008023D03*
X019975Y008220D03*
X035428Y008909D03*
D36*
X015054Y011862D03*
M02*
